<svg width="157" height="280" viewBox="0 0 157 280" fill="none" xmlns="http://www.w3.org/2000/svg">
<path fill-rule="evenodd" clip-rule="evenodd" d="M-11 -10H157V181H-11V-10Z" fill="#4AF6CD"/>
<path d="M49.22 145.36C49.22 142.2 49.68 139.42 50.6 137.02C51.52 134.58 52.9 132.4 54.74 130.48L60.62 135.46C58.34 138.34 57.2 141.36 57.2 144.52C57.2 146.16 57.52 147.42 58.16 148.3C58.76 149.14 59.62 149.56 60.74 149.56C61.54 149.56 62.2 149.34 62.72 148.9C63.24 148.46 63.74 147.72 64.22 146.68C64.7 145.64 65.3 144 66.02 141.76C67.38 137.48 69.1 134.36 71.18 132.4C73.22 130.4 76.06 129.4 79.7 129.4C82.34 129.4 84.68 130.08 86.72 131.44C88.72 132.8 90.28 134.78 91.4 137.38C92.52 139.94 93.08 142.96 93.08 146.44C93.08 153.08 91.06 158.5 87.02 162.7L80.96 157.24C83.68 153.92 85.04 150.46 85.04 146.86C85.04 144.98 84.64 143.52 83.84 142.48C83 141.44 81.9 140.92 80.54 140.92C79.58 140.92 78.8 141.12 78.2 141.52C77.56 141.92 77 142.64 76.52 143.68C76 144.68 75.44 146.16 74.84 148.12C73.36 152.84 71.58 156.16 69.5 158.08C67.42 160 64.8 160.96 61.64 160.96C59.16 160.96 56.98 160.3 55.1 158.98C53.22 157.62 51.78 155.76 50.78 153.4C49.74 151 49.22 148.32 49.22 145.36ZM78.02 91.9553C80.9 91.9553 83.48 92.5953 85.76 93.8753C88.04 95.1153 89.84 96.9953 91.16 99.5153C92.44 102.035 93.08 105.115 93.08 108.755C93.08 114.275 91.74 118.455 89.06 121.295C86.34 124.135 82.66 125.555 78.02 125.555H50.3V114.455H77.66C80.18 114.455 82.04 114.015 83.24 113.135C84.4 112.215 84.98 110.755 84.98 108.755C84.98 106.755 84.38 105.315 83.18 104.435C81.98 103.555 80.14 103.115 77.66 103.115H50.3V91.9553H78.02ZM76.64 71.9477V75.0077H92V86.1077H50.3V71.6477C50.3 65.7677 51.36 61.3877 53.48 58.5077C55.6 55.5877 58.86 54.1277 63.26 54.1277C65.9 54.1277 68.1 54.7477 69.86 55.9877C71.62 57.1877 73.2 59.1277 74.6 61.8077L92 51.4277V63.7877L76.64 71.9477ZM69.08 75.0077V71.2877C69.08 67.4477 67.14 65.5277 63.26 65.5277C61.46 65.5277 60.14 66.0677 59.3 67.1477C58.46 68.1877 58.04 69.7677 58.04 71.8877V75.0077H69.08ZM92 48.9006H50.3V23.2806L58.16 24.4206V37.8006H68.18V26.0406H76.04V37.8006H92V48.9006Z" fill="white"/>
<path d="M49.22 257.92C49.22 252.36 50.98 247.58 54.5 243.58L60.2 249.04C59.12 250.56 58.34 251.94 57.86 253.18C57.34 254.38 57.08 255.76 57.08 257.32C57.08 260.32 58.24 262.68 60.56 264.4C62.88 266.08 66.42 266.92 71.18 266.92C74.66 266.92 77.42 266.64 79.46 266.08C81.46 265.52 82.9 264.68 83.78 263.56C84.66 262.4 85.1 260.92 85.1 259.12C85.1 257.32 84.72 255.68 83.96 254.2H75.38V258.94L67.76 260.02V243.46H88.52C89.96 245.62 91.08 248.06 91.88 250.78C92.68 253.5 93.08 256.18 93.08 258.82C93.08 271.86 85.76 278.38 71.12 278.38C66.56 278.38 62.64 277.5 59.36 275.74C56.04 273.94 53.52 271.5 51.8 268.42C50.08 265.34 49.22 261.84 49.22 257.92ZM49.22 220.335C49.22 214.295 51.14 209.595 54.98 206.235C58.82 202.875 64.2 201.195 71.12 201.195C75.64 201.195 79.56 201.955 82.88 203.475C86.16 204.955 88.68 207.135 90.44 210.015C92.2 212.895 93.08 216.335 93.08 220.335C93.08 226.375 91.16 231.075 87.32 234.435C83.48 237.755 78.08 239.415 71.12 239.415C66.6 239.415 62.7 238.675 59.42 237.195C56.14 235.675 53.62 233.495 51.86 230.655C50.1 227.775 49.22 224.335 49.22 220.335ZM57.2 220.335C57.2 222.935 58.28 224.855 60.44 226.095C62.6 227.295 66.16 227.895 71.12 227.895C76.08 227.895 79.66 227.275 81.86 226.035C84.02 224.795 85.1 222.895 85.1 220.335C85.1 217.695 84.02 215.775 81.86 214.575C79.7 213.375 76.12 212.775 71.12 212.775C66.16 212.775 62.6 213.375 60.44 214.575C58.28 215.775 57.2 217.695 57.2 220.335Z" fill="white"/>
<rect x="72" y="191" width="20" height="1" transform="rotate(-90 72 191)" fill="white"/>
</svg>
