<?xml version="1.0" ?><svg id="Layer_1" style="enable-background:new 0 0 50 50;" version="1.1" viewBox="0 0 50 50" xml:space="preserve" xmlns="http://www.w3.org/2000/svg" xmlns:xlink="http://www.w3.org/1999/xlink"><style type="text/css">
	.st0{fill:#F0C4DB;}
	.st1{fill:#FF9D9C;}
	.st2{fill:#9BEAF9;}
	.st3{fill:#E9F4BC;}
	.st4{fill:#505050;}
	.st5{fill:#FEBECC;}
	.st6{fill:#FFFFFF;}
	.st7{fill:#FDE4A1;}
	.st8{fill:#FEE7B5;}
	.st9{fill:#CDF6FC;}
	.st10{fill:#F2C6DD;}
	.st11{opacity:0.1;}
</style><g><path class="st5" d="M1.13,21.03c2.43-0.98,5.08-1.54,7.87-1.54c11.6,0,21,9.4,21,21c0,2.62-0.5,5.13-1.38,7.44H1.13V21.03z"/><g><rect class="st3" height="35.73" transform="matrix(-1 -4.490376e-11 4.490376e-11 -1 78.4302 60.2692)" width="7.21" x="35.61" y="12.27"/><rect class="st3" height="21.8" transform="matrix(-1 -4.490376e-11 4.490376e-11 -1 50.2501 74.1987)" width="7.21" x="21.52" y="26.2"/><rect class="st3" height="14.1" transform="matrix(-1 -4.490376e-11 4.490376e-11 -1 22.0699 81.9009)" width="7.21" x="7.43" y="33.9"/><rect class="st3" height="35.73" transform="matrix(-1 -4.490376e-11 4.490376e-11 -1 78.4302 60.2692)" width="7.21" x="35.61" y="12.27"/><rect class="st1" height="21.8" transform="matrix(-1 -4.490376e-11 4.490376e-11 -1 50.2501 74.1987)" width="7.21" x="21.52" y="26.2"/><rect class="st7" height="14.1" transform="matrix(-1 -4.490376e-11 4.490376e-11 -1 22.0699 81.9009)" width="7.21" x="7.43" y="33.9"/><g><path class="st4" d="M48.13,47.25h-4.55V12.27c0-0.41-0.34-0.75-0.75-0.75h-7.21c-0.41,0-0.75,0.34-0.75,0.75v34.98h-5.38V26.2     c0-0.41-0.34-0.75-0.75-0.75h-7.21c-0.41,0-0.75,0.34-0.75,0.75v21.05h-5.38V33.9c0-0.41-0.34-0.75-0.75-0.75H7.43     c-0.41,0-0.75,0.34-0.75,0.75v13.35h-3.8V2c0-0.41-0.34-0.75-0.75-0.75S1.38,1.59,1.38,2v46c0,0.41,0.34,0.75,0.75,0.75h46     c0.41,0,0.75-0.34,0.75-0.75S48.54,47.25,48.13,47.25z M8.18,47.25v-12.6h5.71v12.6H8.18z M22.27,47.25v-20.3h5.71v20.3H22.27z      M36.36,47.25V13.02h5.71v34.23H36.36z"/><path class="st4" d="M9.7,30.88c0.19,0,0.38-0.07,0.53-0.22l19.58-19.58v3.29c0,0.41,0.34,0.75,0.75,0.75s0.75-0.34,0.75-0.75     v-5.1c0-0.41-0.34-0.75-0.75-0.75h-5.1c-0.41,0-0.75,0.34-0.75,0.75s0.34,0.75,0.75,0.75h3.29L9.17,29.6     c-0.29,0.29-0.29,0.77,0,1.06C9.32,30.81,9.51,30.88,9.7,30.88z"/></g></g></g></svg>