<?xml version="1.0" ?><svg id="Layer_1" style="enable-background:new 0 0 50 50;" version="1.1" viewBox="0 0 50 50" xml:space="preserve" xmlns="http://www.w3.org/2000/svg" xmlns:xlink="http://www.w3.org/1999/xlink"><style type="text/css">
	.st0{fill:#F0C4DB;}
	.st1{fill:#FF9D9C;}
	.st2{fill:#9BEAF9;}
	.st3{fill:#E9F4BC;}
	.st4{fill:#505050;}
	.st5{fill:#FEBECC;}
	.st6{fill:#FFFFFF;}
	.st7{fill:#FDE4A1;}
	.st8{fill:#FEE7B5;}
	.st9{fill:#CDF6FC;}
	.st10{fill:#F2C6DD;}
	.st11{opacity:0.1;}
</style><g><path class="st0" d="M22.17,24.82V4.1c-11.5,0-20.83,9.25-20.99,20.71H22.17z"/><g><g><circle class="st2" cx="41.28" cy="38.12" r="3.42"/><path class="st1" d="M48.06,48c-0.23-3.55-3.17-6.37-6.79-6.37c-3.61,0-6.56,2.81-6.79,6.37H48.06z"/><circle class="st2" cx="25.17" cy="38.12" r="3.42"/><path class="st1" d="M31.96,48c-0.23-3.55-3.17-6.37-6.79-6.37c-3.61,0-6.56,2.81-6.79,6.37H31.96z"/><circle class="st2" cx="9.06" cy="38.12" r="3.42"/><path class="st1" d="M15.85,48c-0.23-3.55-3.17-6.37-6.79-6.37c-3.61,0-6.56,2.81-6.79,6.37H15.85z"/><g><circle class="st3" cx="25.17" cy="11.31" r="9.31"/></g></g><g><path class="st4" d="M43.88,41.35c0.95-0.76,1.56-1.92,1.56-3.23c0-2.3-1.87-4.17-4.17-4.17c-2.3,0-4.17,1.87-4.17,4.17     c0,1.31,0.62,2.46,1.56,3.23c-2.72,1.01-4.73,3.55-4.93,6.6c-0.01,0.21,0.06,0.41,0.2,0.56c0.14,0.15,0.34,0.24,0.55,0.24h13.57     c0.21,0,0.41-0.09,0.55-0.24c0.14-0.15,0.21-0.35,0.2-0.56C48.62,44.9,46.61,42.36,43.88,41.35z M41.28,35.45     c1.47,0,2.67,1.2,2.67,2.67c0,1.47-1.2,2.67-2.67,2.67c-1.47,0-2.67-1.2-2.67-2.67C38.61,36.65,39.81,35.45,41.28,35.45z      M35.35,47.25c0.56-2.79,3.02-4.87,5.93-4.87s5.38,2.08,5.93,4.87H35.35z"/><path class="st4" d="M27.78,41.35c0.95-0.76,1.56-1.92,1.56-3.23c0-2.3-1.87-4.17-4.17-4.17c-2.3,0-4.17,1.87-4.17,4.17     c0,1.31,0.62,2.46,1.56,3.23c-2.73,1.01-4.73,3.55-4.93,6.6c-0.01,0.21,0.06,0.41,0.2,0.56c0.14,0.15,0.34,0.24,0.55,0.24h13.57     c0.21,0,0.41-0.09,0.55-0.24c0.14-0.15,0.21-0.35,0.2-0.56C32.51,44.9,30.5,42.36,27.78,41.35z M25.17,35.45     c1.47,0,2.67,1.2,2.67,2.67c0,1.47-1.2,2.67-2.67,2.67c-1.47,0-2.67-1.2-2.67-2.67C22.5,36.65,23.7,35.45,25.17,35.45z      M19.24,47.25c0.56-2.79,3.02-4.87,5.93-4.87c2.91,0,5.38,2.08,5.93,4.87H19.24z"/><path class="st4" d="M11.67,41.35c0.95-0.76,1.56-1.92,1.56-3.23c0-2.3-1.87-4.17-4.17-4.17c-2.3,0-4.17,1.87-4.17,4.17     c0,1.31,0.62,2.46,1.56,3.23c-2.73,1.01-4.73,3.55-4.93,6.6c-0.01,0.21,0.06,0.41,0.2,0.56c0.14,0.15,0.34,0.24,0.55,0.24h13.57     c0.21,0,0.41-0.09,0.55-0.24c0.14-0.15,0.21-0.35,0.2-0.56C16.4,44.9,14.39,42.36,11.67,41.35z M9.06,35.45     c1.47,0,2.67,1.2,2.67,2.67c0,1.47-1.2,2.67-2.67,2.67c-1.47,0-2.67-1.2-2.67-2.67C6.4,36.65,7.59,35.45,9.06,35.45z M3.13,47.25     c0.56-2.79,3.02-4.87,5.93-4.87c2.91,0,5.38,2.08,5.93,4.87H3.13z"/><path class="st4" d="M9.06,31.35c0.41,0,0.75-0.34,0.75-0.75v-5.28h14.61v5.28c0,0.41,0.34,0.75,0.75,0.75s0.75-0.34,0.75-0.75     v-5.28h14.61v5.28c0,0.41,0.34,0.75,0.75,0.75s0.75-0.34,0.75-0.75v-6.03c0-0.41-0.34-0.75-0.75-0.75H25.92v-2.49     c5.19-0.39,9.31-4.73,9.31-10.02c0-5.55-4.52-10.06-10.06-10.06c-5.55,0-10.06,4.51-10.06,10.06c0,5.29,4.11,9.63,9.31,10.02     v2.49H9.06c-0.41,0-0.75,0.34-0.75,0.75v6.03C8.31,31.02,8.65,31.35,9.06,31.35z M16.6,11.31c0.01-4.71,3.85-8.56,8.57-8.57     c4.71,0.01,8.55,3.86,8.56,8.57c-0.01,4.71-3.85,8.55-8.56,8.56c0,0,0,0,0,0c0,0,0,0,0,0C20.45,19.86,16.61,16.02,16.6,11.31z"/><path class="st4" d="M25.17,18.25c0.41,0,0.75-0.34,0.75-0.75v-0.62c1.41-0.34,2.46-1.6,2.46-3.11c0-1.77-1.44-3.21-3.21-3.21     c-0.94,0-1.71-0.77-1.71-1.71s0.77-1.71,1.71-1.71s1.71,0.77,1.71,1.71c0,0.41,0.34,0.75,0.75,0.75s0.75-0.34,0.75-0.75     c0-1.51-1.05-2.77-2.46-3.11V5.12c0-0.41-0.34-0.75-0.75-0.75s-0.75,0.34-0.75,0.75v0.62c-1.41,0.34-2.46,1.6-2.46,3.11     c0,1.77,1.44,3.21,3.21,3.21c0.94,0,1.71,0.77,1.71,1.71s-0.77,1.71-1.71,1.71s-1.71-0.77-1.71-1.71c0-0.41-0.34-0.75-0.75-0.75     s-0.75,0.34-0.75,0.75c0,1.51,1.05,2.77,2.46,3.11v0.62C24.42,17.91,24.76,18.25,25.17,18.25z"/></g></g></g></svg>