<?xml version="1.0" ?><svg id="Layer_1" style="enable-background:new 0 0 50 50;" version="1.1" viewBox="0 0 50 50" xml:space="preserve" xmlns="http://www.w3.org/2000/svg" xmlns:xlink="http://www.w3.org/1999/xlink"><style type="text/css">
	.st0{fill:#F0C4DB;}
	.st1{fill:#FF9D9C;}
	.st2{fill:#9BEAF9;}
	.st3{fill:#E9F4BC;}
	.st4{fill:#505050;}
	.st5{fill:#FEBECC;}
	.st6{fill:#FFFFFF;}
	.st7{fill:#FDE4A1;}
	.st8{fill:#FEE7B5;}
	.st9{fill:#CDF6FC;}
	.st10{fill:#F2C6DD;}
	.st11{opacity:0.1;}
</style><g><path class="st5" d="M48.88,28.36c-2.9-2.26-6.54-3.62-10.5-3.62c-9.44,0-17.1,7.66-17.1,17.1c0,1.26,0.15,2.49,0.41,3.68h27.19   V28.36z"/><g><polyline class="st1" points="14.68,17.97 1.87,17.97 1.87,5.24 47.87,5.24 47.87,17.97 35.05,17.97   "/><polyline class="st6" points="35.05,13.86 44.53,13.86 44.53,9.35 35.05,9.35 30.09,9.35 19.63,9.35 14.68,9.35 5.19,9.35     5.19,13.86 14.68,13.86   "/><path class="st3" d="M35.05,9.35v26.06c0,1.31-1.06,2.36-2.37,2.36H17.04c-1.31,0-2.37-1.06-2.37-2.36V9.35H35.05z"/><path class="st7" d="M17.83,9.35v22.91c1.31,0,2.37,1.07,2.37,2.36h9.33c0-1.3,1.06-2.36,2.37-2.36V9.35H17.83z"/><g><circle class="st4" cx="14.32" cy="5.24" r="0.75"/><path class="st4" d="M48.4,4.71c-0.15-0.14-0.33-0.22-0.53-0.22H16.32c-0.41,0-0.75,0.34-0.75,0.75s0.34,0.75,0.75,0.75h30.8     v11.23H35.81v-2.61h8.73c0.41,0,0.75-0.34,0.75-0.75v-4.5c0-0.41-0.34-0.75-0.75-0.75H5.2c-0.41,0-0.75,0.34-0.75,0.75v4.5     c0,0.41,0.34,0.75,0.75,0.75h8.73v2.61H2.63V5.99h9.7c0.42,0,0.75-0.34,0.75-0.75s-0.33-0.75-0.75-0.75H1.88     c-0.2,0-0.39,0.08-0.53,0.22C1.2,4.85,1.13,5.04,1.13,5.24v12.73c0,0.2,0.08,0.39,0.22,0.53c0.14,0.14,0.33,0.22,0.53,0.22h12.06     v16.7c0,1.72,1.4,3.11,3.12,3.11h15.64c1.72,0,3.12-1.4,3.12-3.11v-16.7h12.07c0.2,0,0.38-0.07,0.53-0.22     c0.14-0.14,0.22-0.33,0.22-0.53V5.24C48.63,5.04,48.54,4.85,48.4,4.71z M43.79,13.11h-7.98v-3h7.98V13.11z M31.15,10.1v21.5     c-1.12,0.28-2,1.16-2.27,2.27h-8.01c-0.28-1.12-1.16-2-2.28-2.27V10.1H31.15z M5.95,13.11v-3h7.98v3H5.95z M32.69,37.03H17.05     c-0.89,0-1.62-0.72-1.62-1.61V10.1h1.65v22.16c0,0.41,0.34,0.75,0.75,0.75c0.9,0,1.62,0.72,1.62,1.62c0,0.41,0.34,0.75,0.75,0.75     h9.33c0.41,0,0.75-0.34,0.75-0.75c0-0.89,0.72-1.62,1.62-1.62c0.41,0,0.75-0.34,0.75-0.75V10.1h1.66v25.31     C34.31,36.31,33.58,37.03,32.69,37.03z"/><path class="st4" d="M20.33,21.97h0.31c0.32,1.04,1.28,1.8,2.43,1.8c1.41,0,2.55-1.15,2.55-2.55c0-0.58,0.47-1.05,1.05-1.05     c0.58,0,1.05,0.47,1.05,1.05s-0.47,1.05-1.05,1.05c-0.41,0-0.75,0.34-0.75,0.75s0.34,0.75,0.75,0.75c1.15,0,2.11-0.76,2.43-1.8     h0.3c0.41,0,0.75-0.34,0.75-0.75s-0.34-0.75-0.75-0.75h-0.3c-0.32-1.04-1.28-1.8-2.43-1.8c-1.41,0-2.55,1.15-2.55,2.55     c0,0.58-0.47,1.05-1.05,1.05c-0.58,0-1.05-0.47-1.05-1.05s0.47-1.05,1.05-1.05c0.41,0,0.75-0.34,0.75-0.75s-0.34-0.75-0.75-0.75     c-1.15,0-2.11,0.76-2.43,1.8h-0.31c-0.41,0-0.75,0.34-0.75,0.75S19.92,21.97,20.33,21.97z"/></g></g></g></svg>