<?xml version="1.0" ?><svg id="Layer_1" style="enable-background:new 0 0 50 50;" version="1.1" viewBox="0 0 50 50" xml:space="preserve" xmlns="http://www.w3.org/2000/svg" xmlns:xlink="http://www.w3.org/1999/xlink"><style type="text/css">
	.st0{fill:#F0C4DB;}
	.st1{fill:#FF9D9C;}
	.st2{fill:#9BEAF9;}
	.st3{fill:#E9F4BC;}
	.st4{fill:#505050;}
	.st5{fill:#FEBECC;}
	.st6{fill:#FFFFFF;}
	.st7{fill:#FDE4A1;}
	.st8{fill:#FEE7B5;}
	.st9{fill:#CDF6FC;}
	.st10{fill:#F2C6DD;}
	.st11{opacity:0.1;}
</style><g><path class="st5" d="M12.7,20.65c-4.46,0-8.5,1.76-11.49,4.61v23.62h23.52c2.88-3,4.66-7.06,4.66-11.55   C29.38,28.11,21.91,20.65,12.7,20.65z"/><g><g><path class="st3" d="M30.81,16.94c-1.07,0.92-1.72,2.22-1.72,3.63v0.06h-7.77v-0.05c0-1.37-0.57-2.69-1.62-3.56     c-1.88-1.57-3.08-3.94-3.08-6.58c0-4.91,4.14-8.86,9.12-8.55c4.38,0.27,7.9,3.91,8.03,8.29C33.85,12.88,32.69,15.31,30.81,16.94z     "/><rect class="st2" height="7.75" width="12.38" x="19.02" y="37.47"/><rect class="st1" height="7.75" width="12.38" x="2.37" y="37.47"/><rect class="st1" height="7.75" width="12.38" x="35.67" y="37.47"/></g><g><path class="st4" d="M19.22,17.6c0.85,0.7,1.35,1.82,1.35,2.98v0.05c0,0.2,0.08,0.39,0.22,0.53s0.33,0.22,0.53,0.22h7.77     c0.2,0,0.39-0.08,0.53-0.22s0.22-0.33,0.22-0.53v-0.06c0-1.15,0.53-2.27,1.45-3.07c2.06-1.78,3.23-4.35,3.23-7.06     c0-0.09,0-0.19,0-0.28c-0.02-0.81-0.15-1.61-0.39-2.39c-0.12-0.38-0.54-0.61-0.93-0.5c-0.4,0.12-0.62,0.54-0.5,0.94     c0.19,0.64,0.3,1.32,0.32,1.99c0,0.08,0,0.16,0,0.24c0,2.27-0.99,4.43-2.71,5.93c-1.07,0.92-1.75,2.16-1.93,3.51h-2.43V12     l2.07-2.07c0.29-0.29,0.29-0.77,0-1.06s-0.77-0.29-1.06,0l-1.76,1.76l-1.77-1.76c-0.29-0.29-0.77-0.29-1.06,0     c-0.29,0.29-0.29,0.77,0,1.06L24.45,12v7.88h-2.42c-0.18-1.36-0.83-2.58-1.84-3.43c-1.79-1.5-2.81-3.69-2.81-6.01     c0.01-4.3,3.52-7.81,7.83-7.82c0.17,0,0.33,0.01,0.48,0.02c1.97,0.12,3.81,0.99,5.19,2.44c0.27,0.29,0.77,0.31,1.06,0.03     c0.3-0.28,0.31-0.76,0.03-1.06c-1.64-1.73-3.84-2.77-6.18-2.91c-0.2-0.01-0.39-0.02-0.58-0.02c-5.15,0-9.33,4.18-9.33,9.32     C15.88,13.21,17.1,15.82,19.22,17.6z"/><path class="st4" d="M31.97,6.54c0.13,0.23,0.38,0.37,0.65,0.37c0.13,0,0.26-0.03,0.37-0.1c0.18-0.1,0.3-0.26,0.35-0.45     c0.05-0.2,0.03-0.4-0.08-0.57c-0.2-0.35-0.68-0.48-1.02-0.27C31.88,5.72,31.76,6.18,31.97,6.54z"/><path class="st4" d="M29.09,22.1h-7.76c-0.41,0-0.75,0.34-0.75,0.75s0.34,0.75,0.75,0.75h7.76c0.41,0,0.75-0.34,0.75-0.75     S29.5,22.1,29.09,22.1z"/><path class="st4" d="M48.04,36.72h-5.48c-0.38-4.45-4.12-7.96-8.67-7.96h-7.94v-1.04c0.95-0.25,1.72-0.97,2.04-1.89h1.09     c0.41,0,0.75-0.34,0.75-0.75s-0.34-0.75-0.75-0.75h-7.76c-0.41,0-0.75,0.34-0.75,0.75s0.34,0.75,0.75,0.75h1.09     c0.32,0.93,1.09,1.64,2.04,1.89v1.04h-7.94c-4.55,0-8.29,3.51-8.67,7.96H2.37c-0.41,0-0.75,0.34-0.75,0.75v7.75     c0,0.41,0.34,0.75,0.75,0.75h5.31v1.16H6.57c-0.41,0-0.75,0.34-0.75,0.75s0.34,0.75,0.75,0.75h3.71c0.41,0,0.75-0.34,0.75-0.75     s-0.34-0.75-0.75-0.75H9.18v-1.16h5.56c0.41,0,0.75-0.34,0.75-0.75v-7.75c0-0.41-0.34-0.75-0.75-0.75h-5.4     c0.38-3.62,3.45-6.46,7.17-6.46h7.94v6.46h-5.44c-0.41,0-0.75,0.34-0.75,0.75v7.75c0,0.41,0.34,0.75,0.75,0.75h5.31v1.16h-1.11     c-0.41,0-0.75,0.34-0.75,0.75s0.34,0.75,0.75,0.75h3.72c0.41,0,0.75-0.34,0.75-0.75s-0.34-0.75-0.75-0.75h-1.11v-1.16h5.56     c0.41,0,0.75-0.34,0.75-0.75v-7.75c0-0.41-0.34-0.75-0.75-0.75h-5.44v-6.46h7.94c3.72,0,6.79,2.84,7.17,6.46h-5.4     c-0.41,0-0.75,0.34-0.75,0.75v7.75c0,0.41,0.34,0.75,0.75,0.75h5.31v1.16h-1.11c-0.41,0-0.75,0.34-0.75,0.75s0.34,0.75,0.75,0.75     h3.71c0.41,0,0.75-0.34,0.75-0.75s-0.34-0.75-0.75-0.75h-1.11v-1.16h5.56c0.41,0,0.75-0.34,0.75-0.75v-7.75     C48.79,37.06,48.46,36.72,48.04,36.72z M24.13,25.82h2.15c-0.27,0.3-0.64,0.5-1.07,0.5C24.78,26.33,24.4,26.12,24.13,25.82z      M13.99,44.47H3.12v-6.25h10.88V44.47z M30.64,44.47H19.77v-6.25h10.88V44.47z M47.29,44.47H36.42v-6.25h10.88V44.47z"/></g></g></g></svg>