<svg version="1.1" xmlns="http://www.w3.org/2000/svg" xmlns:xlink="http://www.w3.org/1999/xlink" width="25" height="22" viewBox="0 0 25 22"><path id="Like" d="M9.239,21.015 C9.061,21.692 8.677,21.999 8.024,21.999 C5.899,22.002 3.775,21.999 1.650,22.000 C1.207,22.000 0.818,21.851 0.468,21.590 C0.179,21.376 0.060,21.078 0.057,20.720 C0.039,18.755 0.005,16.790 -0.000,14.825 C-0.003,13.672 0.033,12.518 0.061,11.364 C0.083,10.443 0.858,9.694 1.771,9.695 C4.037,9.697 6.304,9.696 8.570,9.706 C8.766,9.706 8.900,9.651 9.007,9.492 C9.571,8.654 10.137,7.819 10.701,6.982 C10.911,6.670 11.093,6.335 11.332,6.049 C11.995,5.256 12.072,4.355 11.923,3.380 C11.827,2.755 11.782,2.121 11.746,1.489 C11.724,1.119 11.902,0.822 12.191,0.580 C13.103,-0.186 14.393,-0.197 15.449,0.580 C16.642,1.458 17.240,2.685 17.443,4.122 C17.620,5.376 17.441,6.605 17.120,7.818 C17.099,7.899 17.078,7.980 17.058,8.061 C17.055,8.077 17.058,8.094 17.058,8.143 C17.146,8.143 17.233,8.143 17.320,8.143 C19.120,8.142 20.920,8.142 22.719,8.141 C23.862,8.140 24.787,8.861 24.969,9.921 C25.099,10.671 24.812,11.300 24.321,11.844 C24.202,11.976 24.177,12.078 24.220,12.257 C24.449,13.208 24.189,14.060 23.632,14.831 C23.508,15.002 23.454,15.142 23.481,15.368 C23.597,16.337 23.357,17.221 22.769,18.009 C22.695,18.108 22.643,18.268 22.662,18.388 C22.936,20.101 21.735,21.160 20.342,21.281 C19.440,21.360 18.528,21.327 17.620,21.329 C15.254,21.334 12.888,21.327 10.522,21.333 C10.072,21.334 9.645,21.277 9.239,21.015 zM22.677,15.362 C22.562,15.362 22.464,15.362 22.366,15.362 C21.116,15.363 19.866,15.364 18.616,15.363 C18.466,15.363 18.313,15.374 18.167,15.347 C17.956,15.307 17.828,15.169 17.840,14.941 C17.852,14.717 17.980,14.590 18.201,14.565 C18.292,14.554 18.384,14.557 18.476,14.557 C19.859,14.558 21.242,14.560 22.626,14.555 C22.716,14.555 22.841,14.530 22.891,14.469 C23.358,13.894 23.601,13.250 23.458,12.493 C23.420,12.292 23.327,12.228 23.121,12.230 C21.804,12.239 20.487,12.235 19.170,12.234 C18.750,12.234 18.545,12.097 18.553,11.822 C18.561,11.557 18.755,11.432 19.167,11.432 C20.567,11.430 21.967,11.431 23.367,11.427 C23.464,11.427 23.580,11.426 23.654,11.377 C24.227,10.991 24.365,10.032 23.929,9.494 C23.605,9.095 23.175,8.943 22.671,8.944 C20.746,8.949 18.821,8.947 16.896,8.948 C16.124,8.948 16.037,8.840 16.227,8.097 C16.516,6.970 16.778,5.839 16.696,4.661 C16.619,3.563 16.289,2.562 15.542,1.735 C15.027,1.165 14.417,0.762 13.604,0.813 C12.859,0.861 12.480,1.272 12.542,2.003 C12.594,2.610 12.685,3.214 12.765,3.818 C12.881,4.703 12.691,5.509 12.170,6.238 C11.923,6.584 11.685,6.938 11.454,7.296 C10.777,8.349 10.146,9.434 9.307,10.373 C9.248,10.438 9.221,10.553 9.221,10.645 C9.216,13.698 9.216,16.751 9.219,19.804 C9.219,19.882 9.230,19.987 9.279,20.035 C9.553,20.299 9.859,20.523 10.261,20.523 C13.478,20.526 16.694,20.527 19.911,20.523 C20.395,20.522 20.852,20.403 21.257,20.125 C21.815,19.741 22.060,18.968 21.801,18.393 C20.750,18.393 19.692,18.394 18.634,18.393 C18.218,18.393 17.801,18.399 17.384,18.388 C17.157,18.381 16.996,18.215 16.999,18.007 C17.001,17.786 17.121,17.648 17.338,17.606 C17.418,17.590 17.503,17.590 17.586,17.590 C19.003,17.589 20.419,17.591 21.836,17.585 C21.941,17.584 22.089,17.556 22.144,17.484 C22.617,16.866 22.782,16.163 22.677,15.362 zM8.400,10.504 C8.277,10.504 8.171,10.504 8.065,10.504 C5.982,10.502 3.900,10.500 1.817,10.498 C1.286,10.498 0.861,10.899 0.860,11.431 C0.854,14.465 0.853,17.500 0.854,20.534 C0.855,20.919 0.921,21.006 1.289,21.129 C1.412,21.171 1.549,21.189 1.680,21.192 C2.088,21.200 2.496,21.195 2.904,21.196 C4.612,21.196 6.319,21.197 8.027,21.196 C8.334,21.196 8.413,21.115 8.414,20.811 C8.415,20.485 8.414,20.159 8.414,19.833 C8.414,16.824 8.414,13.814 8.414,10.804 C8.414,10.714 8.406,10.624 8.400,10.504 z" fill="#757575" /></svg>