<svg xmlns="http://www.w3.org/2000/svg" width="135" height="40" viewBox="0 0 135 40">
  <metadata><?xpacket begin="﻿" id="W5M0MpCehiHzreSzNTczkc9d"?>
<x:xmpmeta xmlns:x="adobe:ns:meta/" x:xmptk="Adobe XMP Core 5.6-c148 79.164036, 2019/08/13-01:06:57        ">
   <rdf:RDF xmlns:rdf="http://www.w3.org/1999/02/22-rdf-syntax-ns#">
      <rdf:Description rdf:about=""
            xmlns:xmp="http://ns.adobe.com/xap/1.0/">
         <xmp:CreatorTool>Adobe Photoshop CC 2019 (Windows)</xmp:CreatorTool>
      </rdf:Description>
   </rdf:RDF>
</x:xmpmeta>
                                                                                                    
                                                                                                    
                                                                                                    
                                                                                                    
                                                                                                    
                                                                                                    
                                                                                                    
                                                                                                    
                                                                                                    
                                                                                                    
                                                                                                    
                                                                                                    
                                                                                                    
                                                                                                    
                                                                                                    
                                                                                                    
                                                                                                    
                                                                                                    
                                                                                                    
                                                                                                    
                           
<?xpacket end="w"?></metadata>
<defs>
    <style>
      .cls-1 {
        fill: #a6a6a6;
      }

      .cls-1, .cls-2, .cls-3 {
        fill-rule: evenodd;
      }

      .cls-3, .cls-4 {
        fill: #fff;
      }

      .cls-4 {
        font-size: 12px;
        font-family: SFUIDisplay;
      }
    </style>
  </defs>
  <g id="Download_on_the_App_Store_Badge_VN_RGB_blk_100217">
    <g id="Group">
      <g id="Group-2" data-name="Group">
        <path id="Shape" class="cls-1" d="M1682.34,2278H1572.15c-0.34,0-.67.01-1,0.01a15.747,15.747,0,0,0-2.17.18,7.345,7.345,0,0,0-2.06.63,6.786,6.786,0,0,0-1.76,1.18,6.408,6.408,0,0,0-1.27,1.62,6.269,6.269,0,0,0-.68,1.9,11.2,11.2,0,0,0-.19,2c-0.01.31-.01,0.62-0.02,0.92v23.12c0.01,0.31.01,0.61,0.02,0.92a11.2,11.2,0,0,0,.19,2,6.327,6.327,0,0,0,.68,1.91,6.54,6.54,0,0,0,1.27,1.61,6.786,6.786,0,0,0,1.76,1.18,7.689,7.689,0,0,0,2.06.63,15.747,15.747,0,0,0,2.17.18c0.33,0,.66.01,1,0.01h111.36c0.33,0,.67-0.01,1-0.01a15.747,15.747,0,0,0,2.17-.18,7.758,7.758,0,0,0,2.07-.63,6.84,6.84,0,0,0,3.03-2.79,6.3,6.3,0,0,0,.67-1.91,12.213,12.213,0,0,0,.2-2c0.01-.31.01-0.61,0.01-0.92v-23.12c0-.3,0-0.61-0.01-0.92a12.213,12.213,0,0,0-.2-2,6.247,6.247,0,0,0-.67-1.9,6.751,6.751,0,0,0-3.03-2.8,7.758,7.758,0,0,0-2.07-.63,15.747,15.747,0,0,0-2.17-.18c-0.33,0-.67-0.01-1-0.01h-1.17Z" transform="translate(-1563 -2278)"/>
        <path id="Shape-2" data-name="Shape" class="cls-2" d="M1572.09,2317.12c-0.33,0-.66,0-0.98-0.01a13.775,13.775,0,0,1-2.03-.16,6.59,6.59,0,0,1-1.8-.55,5.783,5.783,0,0,1-1.51-1.01,5.317,5.317,0,0,1-1.11-1.4,5.233,5.233,0,0,1-.59-1.66,11.725,11.725,0,0,1-.18-1.87c-0.01-.21-0.02-0.92-0.02-0.92v-23.1s0.01-.69.02-0.89a11.725,11.725,0,0,1,.18-1.87,5.482,5.482,0,0,1,1.69-3.06,6.361,6.361,0,0,1,1.52-1.03,6.983,6.983,0,0,1,1.79-.54,14.019,14.019,0,0,1,2.04-.16l0.98-.02h111.48l0.99,0.02a13.64,13.64,0,0,1,2.02.16,6.657,6.657,0,0,1,1.81.55,5.81,5.81,0,0,1,2.62,2.42,5.41,5.41,0,0,1,.58,1.65,11.861,11.861,0,0,1,.19,1.88v0.89c0.01,0.38.01,0.74,0.01,1.1v20.92c0,0.37,0,.72-0.01,1.08v0.93a11.49,11.49,0,0,1-.19,1.85,5.527,5.527,0,0,1-.58,1.67,5.669,5.669,0,0,1-1.1,1.39,6.045,6.045,0,0,1-1.52,1.02,6.657,6.657,0,0,1-1.81.55,13.775,13.775,0,0,1-2.03.16c-0.32.01-.65,0.01-0.97,0.01l-1.18.01Z" transform="translate(-1563 -2278)"/>
      </g>
      <g id="_Group_">
        <g id="_Group_2">
          <g id="_Group_3">
            <path id="_Path_" class="cls-3" d="M1587.77,2298.3a4.931,4.931,0,0,1,2.36-4.15,5.08,5.08,0,0,0-4-2.16c-1.68-.18-3.3,1.01-4.16,1.01s-2.19-.99-3.61-0.96a5.306,5.306,0,0,0-4.47,2.73c-1.93,3.34-.49,8.26,1.36,10.97,0.93,1.33,2.01,2.81,3.43,2.75,1.39-.05,1.9-0.88,3.58-0.88,1.66,0,2.14.88,3.59,0.85,1.49-.02,2.43-1.33,3.32-2.67a10.847,10.847,0,0,0,1.52-3.09,4.779,4.779,0,0,1-2.92-4.4h0Z" transform="translate(-1563 -2278)"/>
            <path id="_Path_2" class="cls-3" d="M1585.04,2290.21a4.86,4.86,0,0,0,1.11-3.49,4.965,4.965,0,0,0-3.21,1.66,4.63,4.63,0,0,0-1.14,3.36,4.11,4.11,0,0,0,3.24-1.53h0Z" transform="translate(-1563 -2278)"/>
          </g>
        </g>
        <g id="Group-3" data-name="Group">
          <path id="Shape-3" data-name="Shape" class="cls-3" d="M1605.3,2305.14h-4.73l-1.14,3.36h-2l4.48-12.42h2.08l4.49,12.42h-2.04Zm-4.24-1.55h3.75l-1.85-5.45h-0.05Z" transform="translate(-1563 -2278)"/>
          <path id="Shape-4" data-name="Shape" class="cls-3" d="M1618.16,2303.97c0,2.81-1.51,4.62-3.78,4.62a3.078,3.078,0,0,1-2.85-1.58h-0.04v4.48h-1.86v-12.05h1.8v1.51h0.03a3.206,3.206,0,0,1,2.89-1.6C1616.64,2299.35,1618.16,2301.16,1618.16,2303.97Zm-1.91,0c0-1.83-.95-3.04-2.39-3.04-1.42,0-2.38,1.23-2.38,3.04s0.96,3.05,2.38,3.05C1615.3,2307.02,1616.25,2305.82,1616.25,2303.97Z" transform="translate(-1563 -2278)"/>
          <path id="Shape-5" data-name="Shape" class="cls-3" d="M1628.12,2303.97c0,2.81-1.5,4.62-3.77,4.62a3.068,3.068,0,0,1-2.85-1.58h-0.05v4.48h-1.85v-12.05h1.79v1.51h0.04a3.19,3.19,0,0,1,2.88-1.6C1626.61,2299.35,1628.12,2301.16,1628.12,2303.97Zm-1.91,0c0-1.83-.94-3.04-2.39-3.04-1.42,0-2.37,1.23-2.37,3.04s0.95,3.05,2.37,3.05c1.45,0,2.39-1.2,2.39-3.05h0Z" transform="translate(-1563 -2278)"/>
          <path id="Shape-6" data-name="Shape" class="cls-3" d="M1634.71,2305.04c0.14,1.23,1.33,2.04,2.97,2.04,1.57,0,2.69-.81,2.69-1.92,0-.97-0.68-1.54-2.29-1.94l-1.61-.39c-2.28-.55-3.33-1.61-3.33-3.34,0-2.15,1.86-3.62,4.51-3.62,2.63,0,4.43,1.47,4.49,3.62h-1.88c-0.11-1.24-1.14-1.99-2.63-1.99s-2.52.75-2.52,1.86c0,0.87.65,1.39,2.25,1.79l1.37,0.33c2.55,0.6,3.61,1.63,3.61,3.44,0,2.33-1.86,3.78-4.8,3.78-2.75,0-4.61-1.42-4.73-3.66h1.9Z" transform="translate(-1563 -2278)"/>
          <path id="Shape-7" data-name="Shape" class="cls-3" d="M1646.35,2297.3v2.14h1.72v1.47h-1.72v4.99a0.972,0.972,0,0,0,1.1,1.14c0.2,0,.41-0.02.61-0.04v1.46a5.123,5.123,0,0,1-1.03.09c-1.84,0-2.55-.69-2.55-2.45v-5.19h-1.32v-1.47h1.32v-2.14h1.87Z" transform="translate(-1563 -2278)"/>
          <path id="Shape-8" data-name="Shape" class="cls-3" d="M1649.06,2303.97c0-2.85,1.68-4.64,4.3-4.64s4.29,1.79,4.29,4.64-1.66,4.64-4.29,4.64S1649.06,2306.83,1649.06,2303.97Zm6.7,0c0-1.95-.9-3.11-2.4-3.11s-2.4,1.16-2.4,3.11,0.89,3.11,2.4,3.11,2.4-1.15,2.4-3.11h0Z" transform="translate(-1563 -2278)"/>
          <path id="Shape-9" data-name="Shape" class="cls-3" d="M1659.19,2299.44h1.77v1.54H1661a2.162,2.162,0,0,1,2.18-1.63,2.789,2.789,0,0,1,.64.07v1.74a2.409,2.409,0,0,0-.84-0.12,1.88,1.88,0,0,0-1.94,2.09v5.37h-1.85v-9.06Z" transform="translate(-1563 -2278)"/>
          <path id="Shape-10" data-name="Shape" class="cls-3" d="M1672.38,2305.84c-0.25,1.64-1.85,2.77-3.89,2.77-2.64,0-4.27-1.77-4.27-4.6s1.64-4.68,4.19-4.68c2.5,0,4.08,1.72,4.08,4.47v0.63h-6.4v0.12a2.356,2.356,0,0,0,2.44,2.56,2.053,2.053,0,0,0,2.09-1.27h1.76Zm-6.28-2.71h4.53a2.2,2.2,0,0,0-.61-1.63,2.136,2.136,0,0,0-1.61-.66,2.227,2.227,0,0,0-1.63.67,2.254,2.254,0,0,0-.68,1.62h0Z" transform="translate(-1563 -2278)"/>
        </g>
      </g>
    </g>
  </g>
  <text id="Завантажити_з" data-name="Завантажити з" class="cls-4" x="40" y="14.002">Завантажити з</text>
</svg>
