<?xml version="1.0" ?><!DOCTYPE svg  PUBLIC '-//W3C//DTD SVG 1.1//EN'  'http://www.w3.org/Graphics/SVG/1.1/DTD/svg11.dtd'><svg enable-background="new 0 0 100 100" height="100px" id="Layer_1" version="1.1" viewBox="0 0 100 100" width="100px" xml:space="preserve" xmlns="http://www.w3.org/2000/svg" xmlns:xlink="http://www.w3.org/1999/xlink"><path d="M50,3.84C24.506,3.84,3.84,24.506,3.84,50S24.506,96.16,50,96.16S96.16,75.494,96.16,50S75.494,3.84,50,3.84  z M56.736,54.993c-0.354,2.204-1.637,4.269-2.623,6.239c-0.965,1.933-2.35,3.639-4.268,4.695c-1.566,0.86-3.129,1.829-4.861,2.315  c-1.803,0.507-3.734,0.412-5.59,0.471c-1.975,0.062-3.912-0.153-5.785-0.802c-3.344-1.156-7.39-3.308-9.575-6.158  C22.048,59.162,20,55.003,20,51.7v-1.363c1-3.191,1.386-6.974,3.05-9.955c0.971-1.733,1.823-3.375,3.534-4.58  c0.822-0.579,1.754-1.2,2.564-1.724c0.764-0.493,1.316-0.815,2.217-1.189c6.361-2.648,14.611-2.218,19.861,2.671  c0.152,0.144,0.344,0.382,0.516,0.563l-1.068,0.974c-1.102,1.422-2.775,2.879-3.697,4.187l-0.923-0.828  c-1.023-1.266-3.657-1.935-4.575-2.131c-2.289-0.487-5.143,0.024-7.289,1.088c-3.832,1.896-6.488,6.056-6.68,10.24  c-0.143,3.125,1.387,6.703,3.498,9.077c1.418,1.595,4.559,3.229,6.711,3.336c1.469,0.073,3.033-0.104,4.488-0.306  c3.598-0.5,7.26-4.253,7.932-7.82l-1.748-0.049c-1.217-0.098-3.174,0.002-4.715-0.049c-1.176-0.038-3.605,0.147-4.291-0.098  c0,0,0.115-4.936,0.039-6.396c0,0,4.992,0.094,7.271,0.166c1.645,0.052,3.281,0.284,4.93,0.225c1.832-0.064,3.695,0.067,5.492-0.257  C57.004,49.979,57.133,52.511,56.736,54.993z M74.273,52.479c-0.082,1.559-0.084,4.136-0.146,5.632  c-1.359-0.26-2.99,0.128-4.27-0.082l-0.875,0.098c0-1.848,0.025-3.728-0.113-5.534c-1.383-0.068-5.34,0.082-5.34,0.082  c-0.082-1.461,0.014-3.583-0.082-5.145c1.512,0.186,3.865,0.022,5.402-0.024l0.133-0.478c0-1.409,0.062-3.271,0.111-4.855  c1.578-0.034,3.576,0.132,5.131-0.174c0.092,1.88-0.031,3.805,0.012,5.564c0,0,3.643-0.003,5.211,0.041  c0.072,1.796,0.021,3.089,0.055,4.924C78.064,52.416,74.273,52.479,74.273,52.479z" fill="#D36259"/></svg>