<svg id="logo1x" xmlns="http://www.w3.org/2000/svg" width="52.781" height="11.56" viewBox="0 0 52.781 11.56">
  <metadata><?xpacket begin="﻿" id="W5M0MpCehiHzreSzNTczkc9d"?>
<x:xmpmeta xmlns:x="adobe:ns:meta/" x:xmptk="Adobe XMP Core 5.6-c148 79.164036, 2019/08/13-01:06:57        ">
   <rdf:RDF xmlns:rdf="http://www.w3.org/1999/02/22-rdf-syntax-ns#">
      <rdf:Description rdf:about=""
            xmlns:xmp="http://ns.adobe.com/xap/1.0/">
         <xmp:CreatorTool>Adobe Photoshop CC 2019 (Windows)</xmp:CreatorTool>
      </rdf:Description>
   </rdf:RDF>
</x:xmpmeta>
                                                                                                    
                                                                                                    
                                                                                                    
                                                                                                    
                                                                                                    
                                                                                                    
                                                                                                    
                                                                                                    
                                                                                                    
                                                                                                    
                                                                                                    
                                                                                                    
                                                                                                    
                                                                                                    
                                                                                                    
                                                                                                    
                                                                                                    
                                                                                                    
                                                                                                    
                                                                                                    
                           
<?xpacket end="w"?></metadata>
<defs>
    <style>
      .cls-1 {
        fill: #14a0ff;
      }

      .cls-1, .cls-2 {
        fill-rule: evenodd;
      }

      .cls-2 {
        fill: #0d5a8e;
      }
    </style>
  </defs>
  <g id="logo1x-2" data-name="logo1x">
    <path id="Shape" class="cls-1" d="M254.538,5367.88c0.472-1.9-.679-3.47-3.5-3.47h-6.107l-2.289,9.27,1.329,2.28h4.345c2.846,0,5.052-1.33,5.619-3.63a1.992,1.992,0,0,0-.79-2.43v-0.03A3.22,3.22,0,0,0,254.538,5367.88Zm-3.724,4.37c-0.116.48-.443,0.98-1.8,0.98h-2.773l0.485-1.98h2.76c1.336-.01,1.435.5,1.307,1h0.017Zm0.554-4.31c-0.1.37-.385,0.83-1.552,0.83h-2.482l0.413-1.62h2.483C251.41,5367.14,251.468,5367.52,251.368,5367.94Z" transform="translate(-224 -5364.41)"/>
    <path id="Shape-2" data-name="Shape" class="cls-1" d="M258.382,5371.49h5.561l0.633-2.73h-5.524l0.431-1.62h5.47l0.633-2.73h-8.979l-2.847,11.55h10.171l0.666-2.73h-6.625l0.41-1.74h0Z" transform="translate(-224 -5364.41)"/>
    <path id="Shape-3" data-name="Shape" class="cls-1" d="M266.364,5364.41l-0.637,2.73h3.323l-2.181,8.82h3.488l2.185-8.82H276.1l0.682-2.73H266.364Z" transform="translate(-224 -5364.41)"/>
    <path id="Shape-4" data-name="Shape" class="cls-2" d="M227.65,5375.96h-3.518l1.523-6.17,0.352-.93-0.931.93-1.035,1.05L224,5367.76l3.65-3.35h2.842Z" transform="translate(-224 -5364.41)"/>
    <path id="Shape-5" data-name="Shape" class="cls-2" d="M240.349,5371.17l-1.121-1.89,5.441-4.87H239.6l-2.069,1.99h0l-7.018,6.43-3.368,3.13h4.8l3.6-3.22,1.212,2.07c0.414,0.52,1,1.16,3.472,1.16h2.9l-2.772-4.8h0Z" transform="translate(-224 -5364.41)"/>
    <path id="Shape-6" data-name="Shape" class="cls-2" d="M237.142,5365.76v-0.02a3.2,3.2,0,0,0-2.748-1.33H230.65l2.793,4.75Z" transform="translate(-224 -5364.41)"/>
  </g>
</svg>
