<svg width="25" height="30" viewBox="0 0 25 30" fill="none" xmlns="http://www.w3.org/2000/svg">
<path d="M6.32325 13.3652C7.69706 16.397 10.6383 17.7167 12.0982 17.7167C13.0581 17.7167 14.6584 17.1457 16.0325 15.8931C15.5301 15.9282 14.9931 15.9459 14.4192 15.9459C14.2846 15.9459 14.1433 15.9447 13.9924 15.9424C13.7031 16.1651 13.3447 16.2907 12.9729 16.2907H11.7502C10.8288 16.2907 10.0792 15.5411 10.0792 14.6197C10.0792 13.6983 10.8288 12.9487 11.7502 12.9487H12.9729C13.4146 12.9487 13.8277 13.1209 14.1341 13.4178C14.2359 13.419 14.3363 13.4195 14.4347 13.4195C16.0131 13.4195 17.0533 13.2747 17.7338 13.1001C17.6455 12.8853 17.5974 12.6503 17.5974 12.4049V8.16816C17.5974 7.72742 17.761 7.30494 18.0439 6.97856C17.8929 5.80355 17.6189 4.90651 17.2101 4.24479C16.3676 2.88116 14.7432 2.24609 12.0982 2.24609C9.90393 2.24609 8.3887 2.70159 7.46598 3.63858C6.7507 4.36494 6.33621 5.40137 6.14246 6.96666C6.43166 7.29426 6.59893 7.72106 6.59893 8.16816V12.4049C6.59901 12.7575 6.49769 13.0865 6.32325 13.3652Z" fill="#2A2A2A"/>
<path d="M3.31673 13.4053H4.78347C5.33564 13.4053 5.78363 12.9575 5.78363 12.4051V8.1683C5.78363 7.79921 5.58319 7.47765 5.28583 7.30435C5.61335 3.83509 6.95211 1.43104 12.098 1.43104C15.0531 1.43104 16.8978 2.1891 17.9033 3.8165C18.4884 4.76352 18.7699 5.9867 18.9014 7.30957C18.6087 7.48409 18.4123 7.8028 18.4123 8.16822V12.405C18.4123 12.8813 18.7455 13.279 19.1913 13.3798C18.5448 13.8027 17.2062 14.2346 14.4345 14.2346C14.21 14.2346 13.976 14.2318 13.7323 14.2259C13.5896 13.9516 13.3033 13.7639 12.9727 13.7639H11.7501C11.2775 13.7639 10.8942 14.1471 10.8942 14.6198C10.8942 15.0925 11.2775 15.4757 11.7501 15.4757H12.9727C13.2583 15.4757 13.5107 15.3352 13.6661 15.1203C13.9235 15.1268 14.1755 15.1309 14.4191 15.1309C17.5433 15.1308 19.5294 14.5975 20.3337 13.5395C20.368 13.4945 20.3992 13.4497 20.4276 13.4053H20.8794C21.4317 13.4053 21.8796 12.9575 21.8796 12.4051V8.1683C21.8796 7.61597 21.4318 7.16814 20.8794 7.16814H20.3278C20.1726 5.56984 19.8285 4.20923 19.1208 3.06414C17.8469 1.00228 15.5496 0 12.0979 0C8.64603 0 6.34892 1.00228 5.07496 3.06422C4.36735 4.20931 4.02344 5.56976 3.86816 7.16822H3.31665C2.76424 7.16822 2.31641 7.61597 2.31641 8.16838V12.4052C2.31641 12.9575 2.76432 13.4053 3.31673 13.4053Z" fill="#2A2A2A"/>
<path d="M24.1903 25.8635C23.8577 23.7957 23.1731 21.1322 21.8 20.1859C20.8637 19.5402 17.5951 17.7938 16.1993 17.0481L16.17 17.0325C16.0102 16.9471 15.8153 16.9642 15.6729 17.076C14.9407 17.6507 14.1391 18.0379 13.2905 18.2268C13.1405 18.2601 13.0173 18.3668 12.9628 18.5105L12.098 20.7896L11.2333 18.5105C11.1787 18.3668 11.0556 18.2601 10.9056 18.2268C10.057 18.0379 9.2552 17.6507 8.52289 17.076C8.38057 16.9642 8.18559 16.947 8.02591 17.0325C6.64574 17.7698 3.33477 19.5529 2.39999 20.1831C0.818722 21.2484 0.128147 25.1019 0.00579647 25.8636C-0.00634892 25.9391 0.000661169 26.0164 0.0261746 26.0885C0.0827444 26.2482 1.53318 29.9997 12.098 29.9997C22.6626 29.9997 24.1132 26.2482 24.1698 26.0885C24.1954 26.0163 24.2024 25.939 24.1903 25.8635ZM19.2711 23.489H15.0868V22.6078H19.2711V23.489Z" fill="#2A2A2A"/>
</svg>
