<svg width="45" height="45" viewBox="0 0 45 45" fill="none" xmlns="http://www.w3.org/2000/svg">
<path d="M23.2759 29.7869V19.4679L24.6623 19.319C26.838 19.086 28.9775 18.591 31.0345 17.8448V0H0V45H31.0345V43.9138C28.6729 42.3853 26.7278 40.2945 25.3736 37.8288C24.0194 35.3631 23.2986 32.5998 23.2759 29.7869ZM28.7069 17.069H18.6207V15.5172H28.7069V17.069ZM28.7069 13.1897H18.6207V11.6379H28.7069V13.1897ZM6.98276 2.32759H24.0517V6.98276H6.98276V2.32759ZM9.08302 16.8416C8.93752 16.9871 8.74021 17.0688 8.53448 17.0688C8.32875 17.0688 8.13144 16.9871 7.98595 16.8416L5.65836 14.5141L6.75543 13.417L8.53448 15.196L14.1928 9.53767L15.2899 10.6347L9.08302 16.8416ZM15.2899 25.3761L9.08302 31.583C8.93752 31.7285 8.74021 31.8102 8.53448 31.8102C8.32875 31.8102 8.13144 31.7285 7.98595 31.583L5.65836 29.2554L6.75543 28.1584L8.53448 29.9374L14.1928 24.2791L15.2899 25.3761ZM2.32759 10.0862C2.32759 9.88044 2.40933 9.68309 2.55483 9.53759C2.70033 9.39209 2.89768 9.31034 3.10345 9.31034H12.226L10.6743 10.8621H3.87931V18.6207H11.6379V16.4809L13.1897 14.9291V19.3966C13.1897 19.6023 13.1079 19.7997 12.9624 19.9452C12.8169 20.0907 12.6196 20.1724 12.4138 20.1724H3.10345C2.89768 20.1724 2.70033 20.0907 2.55483 19.9452C2.40933 19.7997 2.32759 19.6023 2.32759 19.3966V10.0862ZM12.4138 34.9138H3.10345C2.89768 34.9138 2.70033 34.8321 2.55483 34.6866C2.40933 34.541 2.32759 34.3437 2.32759 34.1379V24.8276C2.32759 24.6218 2.40933 24.4245 2.55483 24.279C2.70033 24.1335 2.89768 24.0517 3.10345 24.0517H12.226L10.6743 25.6034H3.87931V33.3621H11.6379V31.2222L13.1897 29.6705V34.1379C13.1897 34.3437 13.1079 34.541 12.9624 34.6866C12.8169 34.8321 12.6196 34.9138 12.4138 34.9138ZM21.7241 41.8966H16.2931V40.3448H21.7241V41.8966ZM21.7241 38.7931H13.1897V37.2414H21.7241V38.7931ZM21.7241 31.8103H17.069V30.2586H21.7241V31.8103ZM21.7241 27.931H17.069V26.3793H21.7241V27.931Z" fill="#2B5FAE"/>
<path d="M34.9138 17.8447C31.7672 19.465 28.3473 20.4873 24.8276 20.8597V29.7868C24.8788 32.9244 25.8663 35.9751 27.6635 38.5475C29.4606 41.1199 31.9854 43.0966 34.9138 44.224C37.8423 43.0966 40.3671 41.1199 42.1642 38.5475C43.9614 35.9751 44.9489 32.9244 45.0001 29.7868V20.8597C41.4804 20.4874 38.0604 19.4651 34.9138 17.8447ZM33.1348 35.4622C32.9893 35.6077 32.792 35.6894 32.5863 35.6894C32.3805 35.6894 32.1832 35.6077 32.0377 35.4622L28.1584 31.5829L29.2555 30.4858L32.5863 33.8166L40.5722 25.8307L41.6693 26.9277L33.1348 35.4622Z" fill="#2B5FAE"/>
<path d="M22.4999 3.87939H8.53442V5.43112H22.4999V3.87939Z" fill="#2B5FAE"/>
</svg>
