<svg width="47" height="42" viewBox="0 0 47 42" fill="none" xmlns="http://www.w3.org/2000/svg">
<path d="M46.2079 16.3333H30.5053C30.5288 16.0767 30.5444 15.82 30.5444 15.5556C30.5594 13.5374 29.7974 11.5898 28.4142 10.1111H34.4603C34.668 10.1111 34.8672 10.0292 35.0141 9.88331C35.161 9.73744 35.2435 9.53961 35.2435 9.33333C35.2435 9.12705 35.161 8.92922 35.0141 8.78336C34.8672 8.6375 34.668 8.55556 34.4603 8.55556H26.2722C25.6436 8.25779 24.9705 8.06341 24.2791 7.98V0.777778C24.2791 0.571498 24.1966 0.373668 24.0497 0.227806C23.9028 0.0819444 23.7036 0 23.4959 0C23.2882 0 23.089 0.0819444 22.9421 0.227806C22.7952 0.373668 22.7127 0.571498 22.7127 0.777778V7.98C22.0213 8.06341 21.3482 8.25779 20.7196 8.55556H12.5315C12.3238 8.55556 12.1246 8.6375 11.9777 8.78336C11.8309 8.92922 11.7483 9.12705 11.7483 9.33333C11.7483 9.53961 11.8309 9.73744 11.9777 9.88331C12.1246 10.0292 12.3238 10.1111 12.5315 10.1111H18.5776C17.1945 11.5898 16.4324 13.5374 16.4474 15.5556C16.4474 15.82 16.463 16.0767 16.4865 16.3333H0.783959C0.589741 16.3331 0.402378 16.4046 0.258243 16.5339C0.114108 16.6632 0.0234856 16.841 0.00396682 17.0329C-0.0155519 17.2248 0.0374261 17.4171 0.152616 17.5724C0.267807 17.7277 0.436991 17.835 0.627325 17.8733L8.40421 19.4833H8.41047C8.03947 19.9028 7.83413 20.4417 7.83249 21C7.83249 21.6188 8.08003 22.2123 8.52065 22.6499C8.96127 23.0875 9.55888 23.3333 10.182 23.3333C10.8051 23.3333 11.4027 23.0875 11.8434 22.6499C12.284 22.2123 12.5315 21.6188 12.5315 21C12.5283 20.7669 12.4895 20.5356 12.4164 20.314H12.4219L19.4156 21.7607H19.4234C20.5815 22.675 22.0164 23.1744 23.4959 23.1778C24.9794 23.1715 26.4182 22.6733 27.5841 21.7622L34.5699 20.3156H34.5754C34.5025 20.5366 34.4637 20.7674 34.4603 21C34.4603 21.6188 34.7078 22.2123 35.1485 22.6499C35.5891 23.0875 36.1867 23.3333 36.8098 23.3333C37.4329 23.3333 38.0305 23.0875 38.4712 22.6499C38.9118 22.2123 39.1593 21.6188 39.1593 21C39.1573 20.4422 38.952 19.904 38.5813 19.4849H38.5876L46.3645 17.8749C46.5566 17.8383 46.728 17.7315 46.8449 17.5757C46.9618 17.4199 47.0157 17.2263 46.996 17.033C46.9764 16.8397 46.8846 16.6606 46.7387 16.5312C46.5929 16.4017 46.4035 16.3311 46.2079 16.3333ZM10.182 21.7778C10.0271 21.7778 9.87569 21.7322 9.7469 21.6467C9.61811 21.5612 9.51773 21.4398 9.45845 21.2976C9.39917 21.1555 9.38367 20.9991 9.41388 20.8483C9.4441 20.6974 9.51869 20.5588 9.62822 20.45C9.73775 20.3413 9.8773 20.2672 10.0292 20.2372C10.1811 20.2072 10.3386 20.2226 10.4817 20.2814C10.6248 20.3403 10.7471 20.44 10.8332 20.5679C10.9192 20.6958 10.9652 20.8462 10.9652 21C10.9652 21.2063 10.8827 21.4041 10.7358 21.55C10.5889 21.6958 10.3897 21.7778 10.182 21.7778ZM26.6286 15.5556H20.3632C20.1555 15.5556 19.9563 15.4736 19.8094 15.3278C19.6626 15.1819 19.5801 14.9841 19.5801 14.7778C19.5801 13.7464 19.9926 12.7572 20.727 12.0279C21.4613 11.2986 22.4574 10.8889 23.4959 10.8889C24.5345 10.8889 25.5305 11.2986 26.2648 12.0279C26.9992 12.7572 27.4118 13.7464 27.4118 14.7778C27.4118 14.9841 27.3292 15.1819 27.1824 15.3278C27.0355 15.4736 26.8363 15.5556 26.6286 15.5556ZM36.8098 21.7778C36.6549 21.7778 36.5035 21.7322 36.3747 21.6467C36.2459 21.5612 36.1455 21.4398 36.0863 21.2976C36.027 21.1555 36.0115 20.9991 36.0417 20.8483C36.0719 20.6974 36.1465 20.5588 36.256 20.45C36.3655 20.3413 36.5051 20.2672 36.657 20.2372C36.8089 20.2072 36.9664 20.2226 37.1095 20.2814C37.2526 20.3403 37.3749 20.44 37.461 20.5679C37.547 20.6958 37.593 20.8462 37.593 21C37.593 21.2063 37.5105 21.4041 37.3636 21.55C37.2167 21.6958 37.0175 21.7778 36.8098 21.7778Z" fill="#2B5FAE"/>
<path d="M45.9479 25.0225C45.5539 24.4228 44.9505 23.989 44.2538 23.8045C43.5571 23.62 42.8163 23.6979 42.1739 24.0231L37.8915 26.2009C38.1837 26.892 38.2154 27.6646 37.9808 28.377C37.7462 29.0895 37.261 29.6942 36.6141 30.0804L27.8982 35.2137C25.8543 36.4232 23.4197 36.8042 21.1003 36.2777L13.2247 34.4056L13.5889 32.8929L21.4488 34.7595C23.3766 35.195 25.3991 34.8784 27.0986 33.8752L35.8137 28.7419C36.1697 28.5307 36.4275 28.1888 36.5313 27.7901C36.6351 27.3915 36.5765 26.9683 36.3682 26.6123C35.9128 25.8292 35.1716 25.25 34.2981 24.9945C33.4246 24.7389 32.4856 24.8267 31.6755 25.2395L25.3545 28.4611C24.9123 28.6868 24.4216 28.803 23.9245 28.7997C23.4273 28.7965 22.9382 28.6739 22.499 28.4424L18.1916 26.1705C16.7637 25.4204 15.1626 25.0555 13.5483 25.1121C11.9339 25.1688 10.3628 25.645 8.9917 26.4933L11.4477 38.1203L12.7556 37.8403C13.4424 37.6937 14.1495 37.6658 14.8459 37.7579L24.6285 38.8234C26.4686 39.0671 28.335 38.6339 29.8757 37.6054L45.518 27.1832C45.8609 26.9514 46.0984 26.5951 46.1793 26.1911C46.2601 25.7871 46.1779 25.3677 45.9503 25.0233L45.9479 25.0225Z" fill="#2B5FAE"/>
<path d="M0.783936 25.2676L4.31917 42L10.3958 40.7011L6.85977 23.9688L0.783936 25.2676ZM3.85945 28.581L3.53756 27.0596L5.07023 26.74L5.39211 28.2605L3.85945 28.581Z" fill="#2B5FAE"/>
</svg>
