<svg width="47" height="45" viewBox="0 0 47 45" fill="none" xmlns="http://www.w3.org/2000/svg">
<path d="M10.8132 28.5626C10.9519 28.4749 11.1039 28.3872 11.2731 28.2996C10.5538 26.1939 10.185 23.9865 10.181 21.7637V9.46552C10.1811 9.27728 10.2503 9.09551 10.3757 8.95405C10.5011 8.81259 10.6741 8.72111 10.8626 8.69664C15.1616 8.13804 19.3192 6.79649 23.1253 4.73974C23.2402 4.67781 23.3689 4.64537 23.4998 4.64537C23.6306 4.64537 23.7594 4.67781 23.8743 4.73974C27.6807 6.79639 31.8385 8.13792 36.1378 8.69664C36.3261 8.72128 36.499 8.81284 36.6242 8.95428C36.7494 9.09572 36.8185 9.2774 36.8186 9.46552V21.7637C36.8133 25.4906 35.787 29.1462 33.8493 32.341L34.4619 32.6723L37.8755 33.1937C39.7554 29.6715 40.7374 25.7476 40.7359 21.7637V5.11371C34.7603 5.10933 28.9101 3.41602 23.8727 0.232759L23.4998 0L23.1269 0.232759C18.0895 3.4161 12.2393 5.10941 6.26367 5.11371V21.7637C6.26317 24.6648 6.78393 27.5429 7.8016 30.2633L10.8132 28.5626Z" fill="#2B5FAE"/>
<path d="M23.4997 6.29932C19.83 8.22823 15.8562 9.52607 11.7478 10.1375V21.7638C11.7515 23.7979 12.0853 25.8181 12.7365 27.7472C14.7303 27.2874 16.7764 27.0884 18.8224 27.1553C21.7506 27.0843 24.6585 27.6541 27.3386 28.8241L32.4711 31.5978C34.284 28.6313 35.2453 25.2313 35.2516 21.7638V10.1375C31.1432 9.52583 27.1695 8.228 23.4997 6.29932ZM23.4997 22.3666L21.4737 24.373C21.1798 24.6639 20.7813 24.8273 20.3659 24.8273C19.9504 24.8273 19.5519 24.6639 19.258 24.373L14.8816 20.0391L17.232 17.7115L20.3659 20.8149L23.4997 17.7115L29.7674 11.5046L32.1178 13.8322L23.4997 22.3666Z" fill="#2B5FAE"/>
<path d="M9.39751 44.9999C11.1283 44.9999 12.5313 43.6104 12.5313 41.8964C12.5313 40.1824 11.1283 38.793 9.39751 38.793C7.66674 38.793 6.26367 40.1824 6.26367 41.8964C6.26367 43.6104 7.66674 44.9999 9.39751 44.9999Z" fill="#2B5FAE"/>
<path d="M46.8155 39.0027L46.1965 37.0087C46.1815 36.9685 46.1632 36.9296 46.1417 36.8923C45.9074 36.5368 45.5899 36.2425 45.2161 36.0345C44.8424 35.8265 44.4235 35.7109 43.995 35.6975L34.0294 34.1768C33.9797 34.1708 33.9318 34.155 33.8884 34.1303L26.5944 30.1889C24.1428 29.1431 21.4909 28.6374 18.8225 28.707C13.5263 28.707 12.1709 29.5449 11.5911 29.9096L7.2351 32.3768C6.99214 32.5155 6.71637 32.5878 6.43597 32.5863H3.94457C2.33847 32.5863 1.20246 33.6648 0.834232 35.5035L0.0429376 38.638C-0.0263844 38.9995 -0.0116124 39.3718 0.0861312 39.7267C0.183875 40.0816 0.362019 40.4098 0.607028 40.6863C0.919836 41.0581 1.30993 41.3586 1.7507 41.5675C2.19146 41.7764 2.67254 41.8886 3.16111 41.8967H4.69669C4.69669 40.662 5.19194 39.478 6.07351 38.6049C6.95507 37.7319 8.15073 37.2415 9.39744 37.2415C10.6442 37.2415 11.8398 37.7319 12.7214 38.6049C13.6029 39.478 14.0982 40.662 14.0982 41.8967H32.1178C32.1178 40.662 32.613 39.478 33.4946 38.6049C34.3762 37.7319 35.5718 37.2415 36.8185 37.2415C38.0652 37.2415 39.2609 37.7319 40.1425 38.6049C41.024 39.478 41.5193 40.662 41.5193 41.8967H44.9352C45.2808 41.8961 45.6207 41.8097 45.924 41.6455C46.2272 41.4813 46.484 41.2445 46.671 40.9567C46.8581 40.6689 46.9692 40.3392 46.9945 39.9979C47.0197 39.6566 46.9582 39.3144 46.8155 39.0027ZM18.039 33.6648C15.0384 33.5018 12.0142 33.2768 9.3426 32.9665L12.4216 31.2208C12.8212 30.9725 13.8553 30.3363 18.039 30.2665V33.6648ZM19.6059 33.7501V30.2742C21.75 30.2857 23.8702 30.7209 25.8423 31.5544L30.5509 34.0992C27.7617 34.0527 23.7739 33.9596 19.6059 33.7501Z" fill="#2B5FAE"/>
<path d="M36.8184 44.9999C38.5492 44.9999 39.9522 43.6104 39.9522 41.8964C39.9522 40.1824 38.5492 38.793 36.8184 38.793C35.0876 38.793 33.6846 40.1824 33.6846 41.8964C33.6846 43.6104 35.0876 44.9999 36.8184 44.9999Z" fill="#2B5FAE"/>
</svg>
