<svg width="47" height="45" viewBox="0 0 47 45" fill="none" xmlns="http://www.w3.org/2000/svg">
<path d="M10.8358 13.2592L23.4999 3.21466L36.1631 13.2592C36.8344 13.7917 37.6915 14.0379 38.5458 13.9437C39.4002 13.8495 40.1818 13.4226 40.7188 12.757L25.5257 0.705128C24.9508 0.248693 24.2363 0 23.4999 0C22.7634 0 22.0489 0.248693 21.474 0.705128L6.2793 12.7586C6.54531 13.0882 6.87419 13.3626 7.24716 13.5661C7.62013 13.7697 8.02987 13.8983 8.453 13.9448C8.87613 13.9913 9.30434 13.9547 9.7132 13.8371C10.122 13.7194 10.5035 13.5231 10.8358 13.2592Z" fill="#2B5FAE"/>
<path d="M31.2234 26.2535C31.9702 25.8734 32.7972 25.6746 33.6366 25.6734C34.0437 25.675 34.4492 25.7238 34.8448 25.8188V14.2724L23.5 5.27246L12.1553 14.2724V26.0301C14.4336 25.7343 16.7482 26.1524 18.775 27.2258L19.4483 27.5802V16.8751H27.5518V28.125L31.2234 26.2535Z" fill="#2B5FAE"/>
<path d="M46.7316 27.4614C46.3239 26.8418 45.6995 26.3936 44.9787 26.203C44.2578 26.0124 43.4913 26.0928 42.8266 26.4288L38.3956 28.6788C38.698 29.3929 38.7308 30.1911 38.4881 30.9272C38.2453 31.6633 37.7433 32.288 37.074 32.687L28.0557 37.9905C25.9408 39.2401 23.4218 39.6337 21.0219 39.0898L12.8723 37.154L13.2491 35.5911L21.3817 37.5196C23.3764 37.9695 25.4691 37.6425 27.2275 36.606L36.245 31.3025C36.6133 31.0843 36.88 30.731 36.9874 30.3192C37.0948 29.9073 37.0342 29.4701 36.8187 29.1023C36.3475 28.2933 35.5806 27.6948 34.6768 27.4308C33.773 27.1668 32.8014 27.2575 31.9632 27.684L25.4229 31.0124C24.9653 31.2456 24.4577 31.3656 23.9433 31.3622C23.4288 31.3589 22.9228 31.2322 22.4684 30.9931L18.0115 28.6459C16.5341 27.8709 14.8774 27.4939 13.2071 27.5524C11.5367 27.6109 9.91105 28.1029 8.49243 28.9794L11.0337 40.9918L12.3869 40.7026C13.0976 40.5511 13.8292 40.5222 14.5497 40.6174L24.6717 41.7183C26.5757 41.97 28.5068 41.5224 30.101 40.4599L46.2859 29.6921C46.6403 29.4524 46.8855 29.0844 46.9689 28.6672C47.0522 28.2499 46.967 27.817 46.7316 27.4614Z" fill="#2B5FAE"/>
<path d="M0 27.713L3.65788 45.0001L9.94532 43.6582L6.28663 26.3711L0 27.713ZM3.18221 31.1362L2.84916 29.5645L4.435 29.2342L4.76805 30.8052L3.18221 31.1362Z" fill="#2B5FAE"/>
</svg>
