<svg width="42" height="42" viewBox="0 0 42 42" fill="none" xmlns="http://www.w3.org/2000/svg">
<path d="M10.1389 9.46174V13.2273C10.1997 13.1947 10.2562 13.1672 10.3062 13.1462C10.4836 13.0752 14.2821 11.5864 21 11.5864C27.7179 11.5864 31.5164 13.0752 31.675 13.1382C31.73 13.1614 31.7937 13.1932 31.8611 13.2302V9.46463C28.0641 8.89385 24.3915 7.68254 21 5.88232C17.6083 7.68163 13.9357 8.89197 10.1389 9.46174Z" fill="#2B5FAE"/>
<path d="M8.69067 14.5356V8.83448C8.69076 8.6588 8.75471 8.48914 8.8706 8.35711C8.9865 8.22509 9.14643 8.1397 9.32061 8.11686C13.2938 7.5955 17.1362 6.34339 20.6538 4.42376C20.76 4.36596 20.879 4.33567 20.9999 4.33567C21.1208 4.33567 21.2398 4.36596 21.346 4.42376C24.8637 6.34318 28.706 7.59528 32.6792 8.11686C32.8533 8.1397 33.0133 8.22509 33.1292 8.35711C33.2451 8.48914 33.309 8.6588 33.3091 8.83448V14.5407C34.7832 16.4749 35.9963 18.5948 36.9171 20.8458C36.9215 20.6683 36.9295 20.4924 36.9295 20.3142V4.77279C31.4068 4.76871 26.0001 3.18829 21.3445 0.217241L20.9999 0L20.6552 0.217241C15.9997 3.18829 10.5929 4.76871 5.07031 4.77279V20.3128C5.07031 20.4909 5.07828 20.6669 5.08262 20.8443C6.00393 18.5925 7.21699 16.4715 8.69067 14.5356Z" fill="#2B5FAE"/>
<path d="M36.9296 24.6206C36.9296 24.6206 33.3092 15.3879 31.137 14.4827C31.137 14.4827 27.5166 13.0344 21 13.0344C14.4834 13.0344 10.863 14.4827 10.863 14.4827C8.69079 15.3879 5.07043 24.6206 5.07043 24.6206C2.48188 24.6206 0.0685482 26.9973 0.00193366 30.2327C-0.0668531 33.5529 1.70567 38.3792 4.34636 38.3792H5.7945V41.2758C5.7945 41.4679 5.87079 41.652 6.00658 41.7878C6.14237 41.9236 6.32654 41.9999 6.51857 41.9999H13.0352C13.2273 41.9999 13.4114 41.9236 13.5472 41.7878C13.683 41.652 13.7593 41.4679 13.7593 41.2758V38.3792H28.2407V41.2758C28.2407 41.4679 28.317 41.652 28.4528 41.7878C28.5886 41.9236 28.7727 41.9999 28.9648 41.9999H35.4814C35.6735 41.9999 35.8576 41.9236 35.9934 41.7878C36.1292 41.652 36.2055 41.4679 36.2055 41.2758V38.3792H37.6536C40.2943 38.3792 42.0669 33.5529 41.9981 30.2327C41.9315 26.9973 39.5181 24.6206 36.9296 24.6206ZM11.5871 18.1034C12.0889 16.8492 15.2074 15.931 21 15.931C27.5166 15.931 29.9111 16.8492 30.4129 18.1034L33.3092 24.6206H8.69079L11.5871 18.1034ZM3.62229 31.1379C3.62229 30.565 3.79215 30.005 4.1104 29.5286C4.42865 29.0523 4.88099 28.681 5.41021 28.4618C5.93944 28.2426 6.52179 28.1852 7.08361 28.297C7.64544 28.4087 8.1615 28.6846 8.56656 29.0897C8.97161 29.4948 9.24745 30.0109 9.35921 30.5728C9.47096 31.1347 9.41361 31.7171 9.19439 32.2463C8.97518 32.7756 8.60396 33.228 8.12766 33.5463C7.65137 33.8645 7.09141 34.0344 6.51857 34.0344C5.75043 34.0344 5.01375 33.7292 4.47059 33.186C3.92743 32.6428 3.62229 31.9061 3.62229 31.1379ZM13.7593 28.9655H28.2407V30.4137H13.7593V28.9655ZM26.7926 33.3103H15.2074V31.862H26.7926V33.3103ZM35.4814 34.0344C34.9086 34.0344 34.3486 33.8645 33.8723 33.5463C33.396 33.228 33.0248 32.7756 32.8056 32.2463C32.5864 31.7171 32.529 31.1347 32.6408 30.5728C32.7525 30.0109 33.0284 29.4948 33.4334 29.0897C33.8385 28.6846 34.3546 28.4087 34.9164 28.297C35.4782 28.1852 36.0606 28.2426 36.5898 28.4618C37.119 28.681 37.5714 29.0523 37.8896 29.5286C38.2078 30.005 38.3777 30.565 38.3777 31.1379C38.3777 31.9061 38.0726 32.6428 37.5294 33.186C36.9862 33.7292 36.2496 34.0344 35.4814 34.0344Z" fill="#2B5FAE"/>
</svg>
