<svg width="44" height="42" viewBox="0 0 44 42" fill="none" xmlns="http://www.w3.org/2000/svg">
<path d="M27.9633 11.2241L25.7831 7.45862L21.9478 16.9282C21.8927 17.0618 21.7984 17.1762 21.677 17.2566C21.5556 17.337 21.4127 17.3797 21.2665 17.3793H21.2365C21.0854 17.3735 20.9398 17.3216 20.8196 17.2309C20.6995 17.1401 20.6107 17.0149 20.5655 16.8724L18.1132 9.00683L16.7588 11.235C16.6939 11.3417 16.6022 11.4301 16.4926 11.4916C16.3831 11.5531 16.2593 11.5857 16.1332 11.5862H10.9999V10.1379H15.7182L17.7048 6.86845C17.7777 6.74853 17.8843 6.65205 18.0116 6.59067C18.1389 6.52929 18.2815 6.50563 18.4221 6.52256C18.5627 6.53949 18.6954 6.59627 18.804 6.68606C18.9127 6.77584 18.9926 6.89477 19.0343 7.02848L21.3567 14.4828L24.9853 5.52445C25.0362 5.39738 25.1224 5.28713 25.2341 5.20643C25.3458 5.12574 25.4783 5.07789 25.6164 5.06842C25.7544 5.05896 25.8924 5.08826 26.0143 5.15293C26.1362 5.21761 26.237 5.31503 26.3052 5.43393L29.0252 10.1379H35.6251C36.7919 5.34631 34.2171 2.793 34.2171 2.793C33.5618 1.92705 32.7112 1.22378 31.7327 0.738972C30.7542 0.254164 29.6748 0.00115155 28.58 0C24.8203 0 21.9999 2.793 21.9999 2.793C21.9999 2.793 19.1795 0 15.4197 0C14.3245 0.000701573 13.2445 0.253498 12.2654 0.738324C11.2864 1.22315 10.4353 1.92666 9.77968 2.793C9.77968 2.793 1.31999 11.1727 21.9999 26.069C30.1662 20.1868 33.7867 15.3213 35.18 11.5862H28.5998C28.4709 11.5865 28.3441 11.5531 28.2323 11.4895C28.1206 11.426 28.0278 11.3344 27.9633 11.2241Z" fill="#2B5FAE"/>
<path d="M41.7997 8.6897C41.3463 8.69156 40.9046 8.83169 40.5349 9.09094C40.1653 9.35018 39.8858 9.71587 39.7346 10.138H35.628C35.5072 10.6289 35.3576 11.1125 35.1799 11.5863H39.7346C39.8697 11.9608 40.1065 12.2914 40.419 12.542C40.7315 12.7926 41.1078 12.9536 41.5067 13.0074C41.9056 13.0611 42.3118 13.0056 42.6809 12.8468C43.05 12.688 43.3678 12.432 43.5995 12.107C43.8313 11.7819 43.9681 11.4002 43.995 11.0035C44.0219 10.6068 43.9379 10.2105 43.7522 9.85778C43.5664 9.50507 43.286 9.20957 42.9417 9.00357C42.5974 8.79757 42.2023 8.68899 41.7997 8.6897ZM41.7997 11.5863C41.6547 11.5863 41.5129 11.5438 41.3923 11.4642C41.2717 11.3846 41.1777 11.2715 41.1222 11.1392C41.0667 11.0069 41.0522 10.8613 41.0805 10.7208C41.1088 10.5804 41.1786 10.4513 41.2812 10.3501C41.3837 10.2488 41.5144 10.1798 41.6566 10.1519C41.7989 10.1239 41.9463 10.1383 42.0803 10.1931C42.2143 10.2479 42.3289 10.3407 42.4094 10.4598C42.49 10.5789 42.533 10.7189 42.533 10.8621C42.533 11.0542 42.4558 11.2384 42.3182 11.3742C42.1807 11.51 41.9942 11.5863 41.7997 11.5863Z" fill="#2B5FAE"/>
<path d="M5.86663 10.1379H0V11.5862H5.86663V10.1379Z" fill="#2B5FAE"/>
<path d="M43.0228 26.1935C42.6538 25.6352 42.0888 25.2313 41.4364 25.0595C40.7841 24.8877 40.0904 24.9602 39.4889 25.263L35.479 27.2906C35.7526 27.934 35.7823 28.6533 35.5627 29.3167C35.343 29.98 34.8887 30.543 34.283 30.9026L26.1218 35.6819C24.2079 36.8079 21.9283 37.1627 19.7565 36.6725L12.3821 34.9295L12.7231 33.521L20.0828 35.259C21.8879 35.6644 23.7817 35.3697 25.373 34.4356L33.5335 29.6563C33.8668 29.4597 34.1082 29.1414 34.2054 28.7702C34.3026 28.3991 34.2477 28.0051 34.0527 27.6736C33.6262 26.9445 32.9322 26.4053 32.1143 26.1674C31.2964 25.9295 30.4172 26.0111 29.6586 26.3955L23.7399 29.3949C23.3258 29.605 22.8664 29.7132 22.4009 29.7102C21.9353 29.7072 21.4774 29.593 21.0662 29.3775L17.0329 27.2623C15.6958 26.564 14.1967 26.2242 12.685 26.2769C11.1734 26.3296 9.70226 26.773 8.41846 27.5628L10.7182 38.388L11.9428 38.1273C12.5859 37.9908 13.2481 37.9648 13.9001 38.0505L23.0601 39.0426C24.7831 39.2695 26.5307 38.8661 27.9734 37.9086L42.6202 28.2051C42.9413 27.9894 43.1637 27.6576 43.2394 27.2815C43.3151 26.9053 43.2381 26.5148 43.025 26.1942L43.0228 26.1935Z" fill="#2B5FAE"/>
<path d="M0.733398 26.4217L4.04365 42.0001L9.73354 40.7908L6.42256 25.2124L0.733398 26.4217ZM3.61318 29.5065L3.31178 28.0901L4.74691 27.7925L5.04831 29.2082L3.61318 29.5065Z" fill="#2B5FAE"/>
</svg>
