<svg width="30" height="30" viewBox="0 0 30 30" fill="none" xmlns="http://www.w3.org/2000/svg">
<path d="M29.7 3.49708L21.7 0.0410826C21.5736 -0.0134171 21.4304 -0.0134171 21.304 0.0410826L16.566 2.08708C14.055 -0.0993188 10.4978 -0.616278 7.46829 0.764934C4.4388 2.14615 2.4962 5.17059 2.5 8.50008V11.0001C1.11997 11.0017 0.00165306 12.1201 0 13.5001V27.5001C0.00165306 28.8801 1.11997 29.9984 2.5 30.0001H19.5C20.88 29.9984 21.9983 28.8801 22 27.5001V20.8501C22.016 20.8401 22.0345 20.8361 22.05 20.8251L27.5785 16.8891C29.092 15.8146 29.9938 14.0757 30 12.2196V3.95608C30.0003 3.757 29.8825 3.57671 29.7 3.49708ZM3.5 8.50008C3.49911 5.65045 5.11374 3.04665 7.66674 1.7807C10.2197 0.514748 13.2697 0.805527 15.5375 2.53108L13.3 3.49708C13.294 3.50029 13.2882 3.50379 13.2825 3.50758C11.5821 2.72729 9.60135 2.86633 8.02659 3.87655C6.45183 4.88676 5.49968 6.62915 5.5 8.50008V11.0001H3.5L3.5 8.50008ZM13 11.0001H6.49997L6.5 8.50008C6.49412 6.94096 7.29874 5.49075 8.62472 4.67058C9.95071 3.85041 11.6076 3.77808 13 4.47958V11.0001ZM19.5 29.0001H2.5C1.67157 29.0001 1 28.3285 1 27.5001V27.0001H4C4.27614 27.0001 4.5 26.7762 4.5 26.5001C4.5 26.2239 4.27614 26.0001 4 26.0001H1V25.0001H4C4.27614 25.0001 4.5 24.7762 4.5 24.5001C4.5 24.2239 4.27614 24.0001 4 24.0001H1V23.0001H4C4.27614 23.0001 4.5 22.7762 4.5 22.5001C4.5 22.2239 4.27614 22.0001 4 22.0001H1V21.0001H4C4.27614 21.0001 4.5 20.7762 4.5 20.5001C4.5 20.2239 4.27614 20.0001 4 20.0001H1V19.0001H4C4.27614 19.0001 4.5 18.7762 4.5 18.5001C4.5 18.2239 4.27614 18.0001 4 18.0001H1V17.0001H4C4.27614 17.0001 4.5 16.7762 4.5 16.5001C4.5 16.2239 4.27614 16.0001 4 16.0001H1V15.0001H4C4.27614 15.0001 4.5 14.7762 4.5 14.5001C4.5 14.2239 4.27614 14.0001 4 14.0001H1V13.5001C1 12.6717 1.67157 12.0001 2.5 12.0001H13V12.2196C13.0058 14.0753 13.9073 15.814 15.4205 16.8881L19.792 20.0001H18C17.7239 20.0001 17.5 20.2239 17.5 20.5001C17.5 20.7762 17.7239 21.0001 18 21.0001H21V22.0001H18C17.7239 22.0001 17.5 22.2239 17.5 22.5001C17.5 22.7762 17.7239 23.0001 18 23.0001H21V24.0001H18C17.7239 24.0001 17.5 24.2239 17.5 24.5001C17.5 24.7762 17.7239 25.0001 18 25.0001H21V26.0001H18C17.7239 26.0001 17.5 26.2239 17.5 26.5001C17.5 26.7762 17.7239 27.0001 18 27.0001H21V27.5001C21 28.3285 20.3284 29.0001 19.5 29.0001ZM29 12.2196C28.9945 13.7518 28.2497 15.1871 27 16.0736L21.5 19.9886L16 16.0736C14.7503 15.1871 14.0055 13.7518 14 12.2196V4.28458L16.675 3.12908L16.689 3.12308L21.5 1.04458L29 4.28458V12.2196Z" fill="#2A2A2A"/>
</svg>
