<svg width="30" height="30" viewBox="0 0 30 30" fill="none" xmlns="http://www.w3.org/2000/svg">
<path d="M29.9158 24.7244L26.2619 19.2414L26.9024 19.0414C27.166 18.9591 27.3129 18.6788 27.2306 18.4151C27.2273 18.4043 27.2235 18.3935 27.2194 18.383L26.0959 15.4935L28.3839 13.366C28.586 13.1779 28.5974 12.8615 28.4092 12.6594C28.4011 12.6507 28.3926 12.6422 28.3839 12.634L26.0959 10.5071L27.2199 7.61759C27.3199 7.36022 27.1924 7.07047 26.9351 6.97035C26.9244 6.96622 26.9137 6.96247 26.9029 6.9591L23.8949 6.02111L23.6319 2.93615C23.6203 2.79884 23.5529 2.67234 23.4454 2.58615C23.3385 2.50022 23.2007 2.46234 23.0649 2.48165L19.9345 2.91515L18.3316 0.243181C18.1896 0.0063089 17.8825 -0.0706276 17.6457 0.0713081C17.6396 0.0749955 17.6336 0.0787455 17.6276 0.0826829L15.0001 1.81216L12.3731 0.0826829C12.1426 -0.0692527 11.8324 -0.00550345 11.6805 0.225056C11.6766 0.230994 11.6728 0.237056 11.6691 0.243181L10.0662 2.91615L6.93619 2.48265C6.6627 2.44465 6.41014 2.63559 6.37214 2.90909C6.37089 2.9179 6.36995 2.92677 6.3692 2.93565L6.1057 6.02061L3.10024 6.9586C2.83662 7.04091 2.68968 7.32128 2.772 7.5849C2.77537 7.59578 2.77912 7.60653 2.78325 7.61709L3.90673 10.5066L1.61626 12.634C1.41414 12.8221 1.40276 13.1385 1.59088 13.3406C1.59901 13.3494 1.60751 13.3578 1.61626 13.366L3.90423 15.493L2.78025 18.3825C2.68018 18.6398 2.80768 18.9296 3.06505 19.0297C3.07568 19.0338 3.08643 19.0376 3.09724 19.0409L3.76073 19.2474L0.0742789 25.2379C-0.0704693 25.4731 0.00277979 25.781 0.237964 25.9257C0.343088 25.9904 0.468399 26.014 0.589772 25.9919L5.60615 25.0799L6.51014 29.5998C6.54976 29.7981 6.70482 29.9529 6.90313 29.9923C6.93513 29.998 6.96763 30.0005 7.00013 29.9998C7.16725 29.9998 7.32338 29.9164 7.41612 29.7773L10.9241 24.5154L11.6686 25.7569C11.7387 25.8739 11.8536 25.9571 11.9866 25.9874C12.0238 25.9959 12.0619 26.0001 12.1001 25.9999C12.1978 25.9999 12.2934 25.9712 12.3751 25.9174L15 24.1879L17.627 25.9174C17.8576 26.0693 18.1677 26.0055 18.3196 25.775C18.3236 25.769 18.3273 25.763 18.331 25.7569L19.076 24.5149L22.5839 29.7773C22.6767 29.9164 22.8328 29.9998 22.9999 29.9998C23.0325 29.9999 23.065 29.9967 23.0969 29.9903C23.2952 29.9509 23.4503 29.7961 23.4899 29.5978L24.3999 25.0384L29.4548 25.4999C29.7298 25.5247 29.973 25.322 29.9979 25.047C30.0082 24.9332 29.9793 24.8194 29.9158 24.7244ZM7.25519 28.2178L6.4902 24.3999C6.43676 24.1325 6.17901 23.9573 5.91071 24.0059L1.51326 24.8059L4.74572 19.5549L6.1052 19.9789L6.3682 23.0639C6.37982 23.2012 6.4472 23.3277 6.5547 23.4139C6.66182 23.4994 6.79938 23.5372 6.93519 23.5184L10.0657 23.0849L10.3552 23.5679L7.25519 28.2178ZM19.2465 22.2884L17.7416 24.7974L15.2751 23.1714C15.1082 23.0615 14.892 23.0615 14.7251 23.1714L12.2581 24.7954L10.7531 22.2859C10.6629 22.1353 10.5002 22.043 10.3247 22.0429C10.3015 22.0428 10.2785 22.0445 10.2557 22.0479L7.32019 22.4539L7.07319 19.5594C7.05588 19.3568 6.91751 19.1848 6.7232 19.1244L3.90673 18.2455L4.95672 15.5395C5.03103 15.3485 4.98128 15.1316 4.83122 14.992L2.69125 13L4.83372 11.008C4.98378 10.8685 5.03353 10.6516 4.95922 10.4606L3.90923 7.75359L6.7267 6.8751C6.92101 6.81479 7.05938 6.64279 7.07669 6.4401L7.32369 3.54564L10.2592 3.95213C10.4586 3.98063 10.6558 3.88664 10.7591 3.71364L12.2641 1.20467L14.7251 2.82865C14.892 2.93852 15.1082 2.93852 15.2751 2.82865L17.7421 1.20467L19.247 3.71414C19.3508 3.88532 19.5462 3.97876 19.7445 3.95213L22.68 3.54614L22.927 6.4406C22.9443 6.64329 23.0827 6.81529 23.277 6.8756L26.0945 7.75459L25.0415 10.4606C24.9672 10.6516 25.0169 10.8685 25.167 11.008L27.3089 13L25.1665 14.992C25.0164 15.1316 24.9667 15.3485 25.041 15.5395L26.091 18.2465L23.276 19.1249C23.0817 19.1853 22.9433 19.3573 22.926 19.5599L22.679 22.4544L19.744 22.0499C19.5455 22.0233 19.3502 22.117 19.2465 22.2884ZM24.045 23.9999C23.7916 23.9803 23.5629 24.1513 23.51 24.3999L22.7465 28.2163L19.6465 23.5664L19.9355 23.0844L23.0655 23.5179C23.339 23.5559 23.5915 23.365 23.6295 23.0915C23.6308 23.0826 23.6317 23.0738 23.6325 23.0649L23.896 19.9799L25.2685 19.5519L28.5039 24.4074L24.045 23.9999Z" fill="#2A2A2A"/>
</svg>
