<svg width="30" height="30" viewBox="0 0 30 30" fill="none" xmlns="http://www.w3.org/2000/svg">
<path d="M28.8541 15.9275L27.6253 15.5339C27.4679 15.4834 27.3439 15.3578 27.2936 15.1978C27.0346 14.3744 26.6437 13.6013 26.1319 12.9001C25.8987 12.5805 25.6393 12.2752 25.3559 11.9847C25.5372 11.1894 25.6358 10.2893 25.623 9.51173C25.6047 8.39933 25.3824 7.74689 24.9434 7.51697C24.707 7.39298 23.9875 7.01634 20.0929 8.79912C20.0007 8.8413 19.9146 8.89328 19.8348 8.95281C19.5722 8.88226 19.3039 8.81699 19.0339 8.75839C19.0014 8.7513 18.9679 8.74503 18.9351 8.73812C19.2507 8.04871 19.435 7.29994 19.4696 6.52697C19.4804 6.28603 19.2939 6.08201 19.0529 6.07128C18.8126 6.05933 18.608 6.24695 18.5972 6.48789C18.5404 7.75884 18.0131 8.95468 17.1128 9.85509C16.5748 10.393 15.9449 10.7838 15.2736 11.0299C14.1094 10.8665 12.9236 10.8665 11.7594 11.0299C11.088 10.7838 10.4582 10.393 9.92027 9.85509C8.95969 8.89451 8.43064 7.61734 8.43064 6.25884C8.43064 4.90029 8.95969 3.62318 9.92027 2.66259C10.8809 1.70195 12.1581 1.17291 13.5165 1.17291C14.875 1.17291 16.1522 1.70195 17.1128 2.66259C17.4988 3.04861 17.8178 3.48912 18.0609 3.97175C18.1693 4.18714 18.4319 4.27386 18.6472 4.16535C18.8626 4.05695 18.9493 3.79439 18.8408 3.57906C18.5559 3.0131 18.1822 2.49707 17.7303 2.04507C16.6048 0.919546 15.1083 0.299683 13.5166 0.299683C11.9249 0.299683 10.4284 0.919546 9.30287 2.04507C8.17734 3.17066 7.55748 4.66709 7.55748 6.25878C7.55748 7.85048 8.17734 9.34697 9.30287 10.4725C9.62754 10.7972 9.98074 11.0764 10.3543 11.3103C10.3545 11.3103 10.3546 11.3102 10.3547 11.3102C10.0832 11.3808 9.81381 11.46 9.54738 11.549C9.31869 11.6255 9.19529 11.8728 9.27176 12.1016C9.34816 12.3303 9.59561 12.4537 9.82424 12.3773C12.2053 11.5813 14.8279 11.5813 17.2089 12.3773C17.2549 12.3926 17.3015 12.3999 17.3474 12.3999C17.53 12.3999 17.7003 12.2843 17.7614 12.1016C17.8379 11.8729 17.7145 11.6255 17.4858 11.549C17.2194 11.46 16.9499 11.3807 16.6785 11.3102C16.6786 11.3102 16.6787 11.3103 16.6788 11.3103C17.0525 11.0764 17.4056 10.7972 17.7303 10.4725C18.0175 10.1853 18.2711 9.87162 18.4912 9.53828C18.6115 9.56166 18.731 9.58615 18.8487 9.61169C19.0055 9.64574 19.1616 9.6823 19.3163 9.72068C19.3114 9.73966 19.3065 9.75859 19.3024 9.77787C19.0895 10.7883 19.1033 11.682 19.3435 12.4339C19.5594 13.1098 19.9489 13.6574 20.5013 14.0615C21.1523 14.5377 21.9383 14.7435 22.6503 14.7435C23.1861 14.7435 23.6801 14.6269 24.0429 14.4214C24.4533 14.1889 24.7972 13.6991 25.0693 12.9638C25.1951 13.1106 25.3144 13.261 25.4268 13.415C25.8824 14.0393 26.2303 14.7273 26.4607 15.4598C26.596 15.8901 26.9319 16.2286 27.3591 16.3656L28.5879 16.7592C28.9103 16.8625 29.127 17.1593 29.127 17.4978V19.5354C29.127 19.874 28.9103 20.1708 28.5879 20.2741L26.6081 20.9082C26.2913 21.0098 26.0232 21.2274 25.8533 21.5212C25.0754 22.8655 23.8525 23.9779 22.2183 24.8276C22.0295 24.9258 21.8987 25.1015 21.8593 25.3098L21.2252 28.6674C21.2077 28.7599 21.1267 28.827 21.0325 28.827H18.9708C18.8766 28.827 18.7956 28.7598 18.7781 28.6674L18.4269 26.8118C18.3577 26.4467 18.0153 26.2042 17.6467 26.26C16.7586 26.3943 15.8435 26.4623 14.9269 26.4623C14.245 26.4623 13.5718 26.4243 12.926 26.3492C12.5688 26.3082 12.2361 26.5516 12.1694 26.9042L11.8356 28.6674C11.8181 28.7599 11.7371 28.827 11.6429 28.827H9.58119C9.48703 28.827 9.406 28.7598 9.38824 28.666L8.7777 25.4948C8.73838 25.2904 8.61006 25.1167 8.42543 25.0181C5.63965 23.5309 4.16719 21.0463 4.16719 17.833C4.16719 16.2095 4.52238 14.7739 5.22287 13.566C5.87654 12.4387 6.83127 11.5066 8.06051 10.7956C8.26922 10.6748 8.34053 10.4077 8.21982 10.199C8.09912 9.99027 7.83205 9.91908 7.62328 10.0397C5.23975 11.4185 3.80215 13.5457 3.40635 16.2474V16.2474C3.36434 16.2436 3.32227 16.2399 3.28037 16.2356C3.28799 15.9441 3.23525 15.65 3.12041 15.3645C2.86711 14.7348 2.3468 14.2804 1.79479 14.2067C1.35979 14.1485 0.94582 14.3332 0.658535 14.7127C0.241992 15.2632 0.309902 15.6988 0.440156 15.9672C0.660059 16.4203 1.22531 16.7409 2.16334 16.9424C2.13756 16.981 2.1092 17.0198 2.07814 17.0587C1.52391 17.7538 0.870937 17.9075 0.446953 17.922C0.19875 17.9304 0 18.1296 0 18.378V18.3801C0 18.6251 0.193301 18.8249 0.438047 18.8361C0.469395 18.8376 0.502148 18.8383 0.53625 18.8383C1.07273 18.8383 1.93377 18.6405 2.761 17.6032C2.8916 17.4395 2.99801 17.2667 3.0798 17.0883C3.16219 17.0976 3.24135 17.1055 3.31717 17.1126C3.31717 17.1124 3.31717 17.1123 3.31723 17.1121C3.30234 17.3487 3.29408 17.5888 3.29408 17.833C3.29408 19.6511 3.7275 21.2721 4.58221 22.6512C5.37029 23.9227 6.49863 24.9638 7.93699 25.7467L8.53055 28.8297C8.626 29.3341 9.06785 29.7002 9.58119 29.7002H11.6429C12.1563 29.7002 12.5981 29.3341 12.6936 28.8297L12.9953 27.2355C13.6221 27.3019 14.2709 27.3355 14.9269 27.3355C15.8269 27.3355 16.7258 27.2728 17.6019 27.149L17.92 28.8298C18.0155 29.3342 18.4574 29.7002 18.9707 29.7002H21.0324C21.5457 29.7002 21.9876 29.3341 22.0831 28.8296L22.7005 25.5606C24.4447 24.6382 25.7595 23.4266 26.6089 21.9585C26.6702 21.8527 26.7645 21.7751 26.8744 21.7398L28.8541 21.1057C29.5395 20.886 30 20.255 30 19.5353V17.4977C30 16.7781 29.5395 16.1471 28.8541 15.9275ZM24.6843 10.7386C24.5162 12.1757 24.0654 13.405 23.6125 13.6615C23.0977 13.9531 21.9091 14.0094 21.0168 13.3567C20.1233 12.7031 19.826 11.5278 20.1567 9.95787C20.1567 9.95781 20.1567 9.95781 20.1567 9.95781C20.1899 9.80013 20.302 9.66372 20.4564 9.59306C22.6421 8.59251 23.9023 8.26527 24.3705 8.26527C24.4412 8.26527 24.4938 8.27271 24.5288 8.28642C24.6694 8.4363 24.8539 9.28831 24.6843 10.7386ZM1.22584 15.586C1.18066 15.4928 1.2873 15.329 1.35492 15.2396C1.46209 15.0981 1.56082 15.0691 1.63541 15.0691C1.65117 15.0691 1.66588 15.0704 1.67936 15.0722C1.8801 15.099 2.16135 15.3199 2.31035 15.6903C2.34545 15.7775 2.39104 15.9219 2.4017 16.102C1.7973 15.9768 1.32773 15.7963 1.22584 15.586Z" fill="#2A2A2A"/>
</svg>
