<svg width="224" height="52" viewBox="0 0 224 52" fill="none" xmlns="http://www.w3.org/2000/svg">
<path opacity="0.4" d="M198.948 18.4288C198.82 18.4288 198.693 18.3798 198.595 18.2828C197.855 17.5518 196.574 17.2228 194.447 17.2198C192.32 17.2238 191.04 17.5508 190.3 18.2828C190.104 18.4768 189.787 18.4748 189.593 18.2778C189.399 18.0828 189.401 17.7638 189.598 17.5708C190.805 16.3788 192.825 16.2228 194.448 16.2188C196.073 16.2228 198.094 16.3768 199.302 17.5708C199.498 17.7638 199.5 18.0828 199.306 18.2778C199.206 18.3778 199.077 18.4288 198.948 18.4288ZM187.543 18.1788C187.689 17.9448 187.622 17.6358 187.389 17.4878C186.647 17.0148 185.83 16.6648 184.969 16.4448C183.963 16.1888 182.936 16.1268 181.912 16.2528C181.639 16.2868 181.443 16.5368 181.478 16.8108C181.51 17.0848 181.763 17.2858 182.036 17.2468C182.933 17.1358 183.838 17.1918 184.723 17.4158C185.483 17.6078 186.2 17.9188 186.852 18.3348C186.936 18.3878 187.03 18.4128 187.122 18.4128C187.286 18.4088 187.448 18.3268 187.543 18.1788ZM212.318 18.2778C212.511 18.0828 212.509 17.7638 212.314 17.5708C211.105 16.3788 209.085 16.2228 207.46 16.2188C205.835 16.2228 203.815 16.3768 202.608 17.5708C202.412 17.7638 202.41 18.0828 202.604 18.2778C202.798 18.4748 203.115 18.4768 203.311 18.2828C204.053 17.5518 205.332 17.2228 207.458 17.2198C209.587 17.2238 210.866 17.5508 211.605 18.2828C211.704 18.3798 211.831 18.4288 211.958 18.4288C212.09 18.4288 212.219 18.3778 212.318 18.2778ZM215.055 18.3308C215.711 17.9148 216.428 17.6038 217.186 17.4118C218.071 17.1878 218.975 17.1308 219.874 17.2428C220.149 17.2818 220.397 17.0818 220.433 16.8068C220.467 16.5348 220.273 16.2848 219.998 16.2488C218.977 16.1228 217.948 16.1858 216.94 16.4408C216.08 16.6608 215.264 17.0108 214.52 17.4838C214.288 17.6318 214.217 17.9408 214.367 18.1738C214.463 18.3228 214.624 18.4048 214.789 18.4048C214.879 18.4088 214.973 18.3838 215.055 18.3308ZM201.448 29.7978V18.7988C201.448 18.5228 201.222 18.2988 200.948 18.2988C200.673 18.2988 200.448 18.5228 200.448 18.7988V29.7978C200.448 31.1768 199.326 32.2988 197.948 32.2988C196.57 32.2988 195.448 31.1768 195.448 29.7978C195.448 29.5228 195.222 29.2978 194.948 29.2978C194.673 29.2978 194.448 29.5228 194.448 29.7978C194.448 31.7298 196.017 33.2988 197.948 33.2988C199.878 33.2988 201.448 31.7298 201.448 29.7978ZM222.678 16.0148C222.907 15.8588 222.963 15.5458 222.807 15.3198C217.858 8.10683 209.684 3.79883 200.949 3.79883C192.213 3.79883 184.04 8.10683 179.09 15.3198C178.935 15.5478 178.989 15.8588 179.219 16.0148C179.448 16.1708 179.758 16.1128 179.913 15.8848C184.678 8.94283 192.542 4.79883 200.949 4.79883C209.356 4.79883 217.22 8.94483 221.985 15.8848C222.082 16.0268 222.237 16.1028 222.397 16.1028C222.494 16.1028 222.592 16.0728 222.678 16.0148ZM200.948 0.298828C200.396 0.298828 199.948 0.745828 199.948 1.29883C199.948 1.85283 200.396 2.29883 200.948 2.29883C201.5 2.29883 201.948 1.85283 201.948 1.29883C201.948 0.745828 201.5 0.298828 200.948 0.298828ZM47.751 47.9328C47.902 47.9328 48.028 47.9838 48.129 48.0808C48.228 48.1828 48.278 48.3078 48.278 48.4588C48.278 48.6058 48.222 48.7368 48.11 48.8508C47.587 49.3118 46.969 49.5388 46.259 49.5388C45.475 49.5388 44.805 49.2618 44.251 48.7078C43.695 48.1508 43.419 47.4808 43.419 46.6988C43.419 45.9158 43.695 45.2458 44.251 44.6898C44.805 44.1328 45.475 43.8578 46.259 43.8578C46.973 43.8578 47.589 44.0868 48.11 44.5458C48.232 44.6538 48.293 44.7868 48.293 44.9448C48.293 45.0968 48.243 45.2258 48.144 45.3268C48.044 45.4298 47.918 45.4778 47.766 45.4778C47.638 45.4778 47.523 45.4368 47.421 45.3568C47.248 45.2108 47.067 45.1008 46.878 45.0268C46.69 44.9528 46.483 44.9158 46.26 44.9158C46.013 44.9158 45.781 44.9628 45.565 45.0548C45.349 45.1508 45.16 45.2758 44.998 45.4378C44.836 45.5978 44.708 45.7878 44.614 46.0018C44.521 46.2188 44.475 46.4498 44.475 46.6948C44.475 46.9428 44.521 47.1738 44.614 47.3898C44.708 47.6068 44.836 47.7928 44.998 47.9538C45.16 48.1148 45.35 48.2408 45.565 48.3338C45.782 48.4288 46.013 48.4758 46.26 48.4758C46.484 48.4758 46.69 48.4388 46.878 48.3668C47.067 48.2958 47.246 48.1848 47.416 48.0398C47.511 47.9738 47.622 47.9368 47.751 47.9328ZM57.478 46.1208C57.478 45.8108 57.417 45.5198 57.297 45.2458C57.177 44.9718 57.015 44.7288 56.81 44.5238C56.605 44.3188 56.365 44.1598 56.09 44.0398C55.815 43.9188 55.523 43.8578 55.216 43.8578C54.532 43.8578 53.956 44.1278 53.486 44.6658C53.262 44.3948 53.004 44.1898 52.706 44.0618C52.408 43.9258 52.09 43.8608 51.752 43.8608C51.292 43.8608 50.882 43.9818 50.52 44.2218C50.486 44.1128 50.424 44.0248 50.332 43.9578C50.241 43.8938 50.136 43.8578 50.018 43.8578C49.872 43.8578 49.748 43.9108 49.645 44.0118C49.542 44.1158 49.491 44.2408 49.491 44.3838V49.0038C49.491 49.1518 49.543 49.2768 49.645 49.3818C49.749 49.4848 49.874 49.5358 50.023 49.5358C50.169 49.5358 50.293 49.4838 50.395 49.3818C50.499 49.2778 50.551 49.1528 50.551 49.0038V46.1178C50.551 45.9518 50.581 45.7978 50.645 45.6498C50.707 45.5038 50.793 45.3788 50.903 45.2668C51.013 45.1588 51.14 45.0728 51.286 45.0068C51.432 44.9438 51.588 44.9128 51.753 44.9128C51.918 44.9128 52.073 44.9438 52.219 45.0098C52.365 45.0748 52.491 45.1598 52.601 45.2708C52.708 45.3768 52.795 45.5028 52.86 45.6498C52.923 45.7958 52.956 45.9518 52.956 46.1178V49.0038C52.956 49.1518 53.008 49.2768 53.111 49.3818C53.214 49.4848 53.34 49.5358 53.488 49.5358C53.634 49.5358 53.758 49.4838 53.861 49.3818C53.965 49.2778 54.016 49.1528 54.016 49.0038V46.1178C54.016 45.9518 54.047 45.7978 54.109 45.6498C54.172 45.5038 54.258 45.3788 54.368 45.2708C54.478 45.1628 54.605 45.0768 54.751 45.0098C54.897 44.9468 55.052 44.9128 55.219 44.9128C55.386 44.9128 55.546 44.9438 55.693 45.0098C55.84 45.0758 55.967 45.1608 56.076 45.2728C56.183 45.3808 56.269 45.5078 56.332 45.6558C56.395 45.8018 56.425 45.9548 56.425 46.1178V49.0038C56.425 49.1518 56.477 49.2768 56.577 49.3818C56.68 49.4848 56.805 49.5358 56.953 49.5358C57.099 49.5358 57.224 49.4838 57.326 49.3818C57.43 49.2778 57.481 49.1528 57.481 49.0038V46.1208H57.478ZM61.652 49.5388C62.041 49.5388 62.403 49.4718 62.736 49.3338C63.069 49.1938 63.377 48.9868 63.661 48.7078C64.216 48.1588 64.493 47.4898 64.493 46.6988C64.493 46.3048 64.424 45.9398 64.286 45.6038C64.146 45.2678 63.939 44.9618 63.661 44.6878C63.1 44.1338 62.43 43.8558 61.652 43.8558C60.869 43.8558 60.199 44.1338 59.645 44.6878C59.089 45.2458 58.813 45.9148 58.813 46.6988V51.4438C58.813 51.5958 58.863 51.7228 58.962 51.8238C59.061 51.9238 59.189 51.9708 59.34 51.9708C59.488 51.9708 59.614 51.9208 59.718 51.8238C59.821 51.7228 59.872 51.5958 59.872 51.4438V48.9158C60.381 49.3318 60.974 49.5388 61.652 49.5388ZM59.873 46.6988C59.873 46.4558 59.919 46.2248 60.013 46.0098C60.107 45.7938 60.232 45.6068 60.391 45.4468C60.549 45.2858 60.738 45.1588 60.954 45.0638C61.17 44.9668 61.403 44.9198 61.652 44.9198C61.9 44.9198 62.131 44.9668 62.348 45.0638C62.564 45.1588 62.751 45.2868 62.913 45.4498C63.073 45.6108 63.199 45.7998 63.292 46.0148C63.386 46.2278 63.433 46.4558 63.433 46.7018C63.433 46.9448 63.386 47.1748 63.292 47.3898C63.199 47.6048 63.073 47.7898 62.913 47.9528C62.751 48.1148 62.563 48.2428 62.348 48.3378C62.13 48.4348 61.9 48.4818 61.652 48.4818C61.403 48.4818 61.17 48.4348 60.954 48.3378C60.737 48.2428 60.549 48.1158 60.391 47.9558C60.232 47.7948 60.107 47.6038 60.013 47.3918C59.919 47.1728 59.873 46.9398 59.873 46.6988ZM70.118 49.0118C70.118 49.1578 70.171 49.2828 70.274 49.3848C70.377 49.4888 70.502 49.5388 70.651 49.5388C70.797 49.5388 70.921 49.4848 71.024 49.3848C71.127 49.2818 71.179 49.1568 71.179 49.0118V46.6988C71.179 45.9158 70.902 45.2458 70.347 44.6898C69.785 44.1328 69.117 43.8578 68.338 43.8578C67.553 43.8578 66.884 44.1328 66.329 44.6898C65.775 45.2458 65.497 45.9158 65.497 46.6988C65.497 47.4808 65.775 48.1508 66.329 48.7078C66.884 49.2618 67.553 49.5388 68.338 49.5388C68.677 49.5388 68.994 49.4828 69.292 49.3778C69.589 49.2708 69.864 49.1118 70.117 48.9098L70.118 49.0118ZM68.339 44.9188C68.587 44.9188 68.818 44.9668 69.034 45.0618C69.25 45.1588 69.439 45.2868 69.599 45.4488C69.759 45.6108 69.887 45.8008 69.98 46.0118C70.073 46.2278 70.118 46.4548 70.118 46.6998C70.118 46.9418 70.073 47.1728 69.98 47.3868C69.887 47.6048 69.759 47.7908 69.599 47.9528C69.439 48.1138 69.249 48.2438 69.034 48.3378C68.817 48.4348 68.587 48.4838 68.339 48.4838C68.088 48.4838 67.857 48.4348 67.639 48.3378C67.424 48.2438 67.236 48.1158 67.076 47.9558C66.917 47.7948 66.792 47.6038 66.698 47.3918C66.605 47.1728 66.559 46.9448 66.559 46.7028C66.559 46.4588 66.605 46.2298 66.698 46.0138C66.792 45.7968 66.917 45.6098 67.076 45.4478C67.235 45.2898 67.424 45.1628 67.639 45.0648C67.856 44.9668 68.088 44.9188 68.339 44.9188ZM72.286 48.6828C72.215 48.7728 72.181 48.8808 72.181 49.0118C72.181 49.0828 72.194 49.1538 72.221 49.2148C72.247 49.2778 72.285 49.3358 72.332 49.3848C72.379 49.4348 72.436 49.4738 72.499 49.4988C72.563 49.5238 72.633 49.5398 72.707 49.5398C72.856 49.5398 72.98 49.4828 73.083 49.3768L74.635 47.5228L76.176 49.3768C76.284 49.4828 76.41 49.5398 76.556 49.5398C76.631 49.5398 76.701 49.5238 76.764 49.4988C76.828 49.4738 76.884 49.4348 76.932 49.3848C76.979 49.3358 77.017 49.2808 77.047 49.2148C77.075 49.1518 77.089 49.0828 77.089 49.0118C77.089 48.8768 77.052 48.7688 76.978 48.6828L75.32 46.6968L76.964 44.7398C77.048 44.6348 77.09 44.5168 77.09 44.3868C77.09 44.3178 77.076 44.2478 77.048 44.1848C77.018 44.1218 76.98 44.0638 76.933 44.0148C76.885 43.9648 76.829 43.9268 76.765 43.9018C76.702 43.8758 76.632 43.8608 76.557 43.8608C76.399 43.8608 76.269 43.9198 76.167 44.0338L74.636 45.8658L73.104 44.0338C73 43.9198 72.868 43.8608 72.708 43.8608C72.634 43.8608 72.564 43.8758 72.5 43.9018C72.437 43.9268 72.38 43.9648 72.333 44.0148C72.286 44.0638 72.248 44.1188 72.222 44.1848C72.195 44.2478 72.182 44.3178 72.182 44.3868C72.182 44.5308 72.222 44.6478 72.303 44.7398L73.947 46.6968L72.286 48.6828ZM83.545 46.6988C83.542 46.3048 83.472 45.9418 83.335 45.6078C83.197 45.2718 82.989 44.9648 82.714 44.6898C82.151 44.1328 81.483 43.8578 80.705 43.8578C79.92 43.8578 79.251 44.1328 78.696 44.6898C78.142 45.2458 77.864 45.9158 77.864 46.6988C77.864 47.4808 78.142 48.1508 78.696 48.7078C79.251 49.2618 79.92 49.5388 80.705 49.5388C81.482 49.5388 82.151 49.2618 82.714 48.7078C83.268 48.1588 83.545 47.4908 83.545 46.6988ZM80.705 44.9188C80.952 44.9188 81.184 44.9668 81.4 45.0618C81.615 45.1588 81.804 45.2868 81.965 45.4488C82.124 45.6108 82.252 45.8008 82.345 46.0118C82.438 46.2278 82.484 46.4548 82.484 46.6998C82.484 46.9418 82.438 47.1728 82.345 47.3868C82.252 47.6048 82.124 47.7908 81.965 47.9528C81.804 48.1138 81.614 48.2438 81.4 48.3378C81.183 48.4348 80.952 48.4838 80.705 48.4838C80.454 48.4838 80.221 48.4348 80.004 48.3378C79.789 48.2438 79.602 48.1158 79.441 47.9558C79.283 47.7948 79.157 47.6038 79.064 47.3918C78.971 47.1728 78.924 46.9448 78.924 46.7028C78.924 46.4588 78.971 46.2298 79.064 46.0138C79.157 45.7978 79.283 45.6098 79.441 45.4478C79.601 45.2898 79.789 45.1628 80.004 45.0648C80.221 44.9668 80.454 44.9188 80.705 44.9188ZM95.638 46.6988C95.635 46.3048 95.565 45.9418 95.428 45.6078C95.29 45.2718 95.082 44.9648 94.807 44.6898C94.244 44.1328 93.576 43.8578 92.798 43.8578C92.013 43.8578 91.344 44.1328 90.789 44.6898C90.235 45.2458 89.957 45.9158 89.957 46.6988C89.957 47.4808 90.235 48.1508 90.789 48.7078C91.344 49.2618 92.013 49.5388 92.798 49.5388C93.575 49.5388 94.244 49.2618 94.807 48.7078C95.361 48.1588 95.638 47.4908 95.638 46.6988ZM92.798 44.9188C93.045 44.9188 93.277 44.9668 93.493 45.0618C93.708 45.1588 93.897 45.2868 94.058 45.4488C94.217 45.6108 94.345 45.8008 94.438 46.0118C94.531 46.2278 94.577 46.4548 94.577 46.6998C94.577 46.9418 94.531 47.1728 94.438 47.3868C94.345 47.6048 94.217 47.7908 94.058 47.9528C93.897 48.1138 93.707 48.2438 93.493 48.3378C93.276 48.4348 93.045 48.4838 92.798 48.4838C92.547 48.4838 92.314 48.4348 92.097 48.3378C91.882 48.2438 91.695 48.1158 91.534 47.9558C91.376 47.7948 91.25 47.6038 91.157 47.3918C91.064 47.1728 91.017 46.9448 91.017 46.7028C91.017 46.4588 91.064 46.2298 91.157 46.0138C91.25 45.7978 91.376 45.6098 91.534 45.4478C91.694 45.2898 91.882 45.1628 92.097 45.0648C92.314 44.9668 92.547 44.9188 92.798 44.9188ZM85.237 43.8578C85.163 43.8578 85.092 43.8728 85.03 43.8988C84.966 43.9238 84.91 43.9618 84.862 44.0118C84.814 44.0608 84.777 44.1168 84.75 44.1818C84.724 44.2448 84.709 44.3148 84.709 44.3838V49.0088C84.709 49.0798 84.724 49.1488 84.75 49.2118C84.777 49.2748 84.814 49.3328 84.862 49.3818C84.91 49.4318 84.966 49.4688 85.03 49.4958C85.093 49.5228 85.163 49.5358 85.237 49.5358H87.55C87.782 49.5358 88.002 49.4918 88.206 49.4018C88.41 49.3118 88.589 49.1908 88.741 49.0388C88.892 48.8868 89.012 48.7088 89.1 48.5038C89.189 48.2998 89.233 48.0818 89.233 47.8538C89.233 47.7078 89.218 47.5768 89.189 47.4568C89.161 47.3368 89.118 47.2258 89.063 47.1158C89.007 47.0068 88.936 46.9008 88.851 46.8008C88.767 46.6998 88.668 46.6008 88.558 46.4958C88.75 46.2248 88.846 45.9028 88.846 45.5418C88.846 45.3128 88.802 45.0968 88.712 44.8918C88.623 44.6888 88.502 44.5078 88.35 44.3588C88.197 44.2068 88.019 44.0858 87.815 43.9958C87.611 43.9058 87.392 43.8608 87.163 43.8608H85.237V43.8578ZM85.766 46.1718V44.9188H87.164C87.249 44.9188 87.329 44.9368 87.405 44.9718C87.481 45.0038 87.548 45.0488 87.603 45.1068C87.658 45.1628 87.704 45.2278 87.737 45.3028C87.771 45.3788 87.789 45.4588 87.789 45.5418C87.789 45.6338 87.771 45.7188 87.737 45.7938C87.704 45.8698 87.657 45.9368 87.599 45.9918C87.542 46.0478 87.475 46.0918 87.4 46.1238C87.324 46.1528 87.246 46.1718 87.164 46.1718H85.766ZM85.766 48.4798V47.2278H87.551C87.631 47.2278 87.71 47.2438 87.786 47.2748C87.862 47.3078 87.928 47.3508 87.985 47.4088C88.043 47.4648 88.089 47.5308 88.123 47.6088C88.157 47.6868 88.174 47.7688 88.174 47.8568C88.174 47.9448 88.157 48.0248 88.123 48.0988C88.089 48.1718 88.044 48.2408 87.988 48.2958C87.933 48.3548 87.866 48.3998 87.791 48.4328C87.715 48.4628 87.635 48.4798 87.551 48.4798H85.766ZM135.982 49.5388C136.13 49.5388 136.256 49.4868 136.359 49.3848C136.463 49.2818 136.515 49.1568 136.515 49.0118V44.3868C136.515 44.2408 136.462 44.1168 136.359 44.0148C136.256 43.9108 136.132 43.8608 135.988 43.8608C135.84 43.8608 135.714 43.9138 135.609 44.0148C135.506 44.1188 135.456 44.2438 135.456 44.3868V46.8938C135.456 47.1128 135.414 47.3198 135.331 47.5078C135.249 47.6988 135.134 47.8668 134.988 48.0148C134.842 48.1608 134.675 48.2728 134.48 48.3568C134.289 48.4388 134.084 48.4818 133.868 48.4818C133.646 48.4818 133.441 48.4388 133.25 48.3568C133.057 48.2728 132.889 48.1608 132.745 48.0168C132.599 47.8718 132.488 47.7038 132.404 47.5108C132.322 47.3198 132.281 47.1128 132.281 46.8938V44.3868C132.281 44.2408 132.228 44.1168 132.126 44.0148C132.023 43.9108 131.898 43.8608 131.753 43.8608C131.606 43.8608 131.479 43.9138 131.376 44.0148C131.272 44.1188 131.221 44.2438 131.221 44.3868V46.8938C131.221 47.2538 131.291 47.5968 131.432 47.9158C131.573 48.2368 131.762 48.5198 132.002 48.7588C132.241 48.9978 132.523 49.1908 132.843 49.3288C133.164 49.4688 133.506 49.5388 133.868 49.5388C134.173 49.5388 134.454 49.4978 134.716 49.4148C134.977 49.3318 135.223 49.1988 135.456 49.0188C135.459 49.1648 135.51 49.2888 135.607 49.3868C135.705 49.4868 135.831 49.5388 135.982 49.5388ZM101.633 49.5388C101.781 49.5388 101.907 49.4848 102.01 49.3848C102.114 49.2808 102.166 49.1568 102.166 49.0118V44.3868C102.166 44.2408 102.114 44.1168 102.01 44.0168C101.907 43.9128 101.783 43.8608 101.638 43.8608C101.49 43.8608 101.364 43.9138 101.26 44.0168C101.157 44.1198 101.106 44.2438 101.106 44.3868V46.8938C101.106 47.1148 101.065 47.3198 100.981 47.5078C100.899 47.6988 100.785 47.8668 100.639 48.0148C100.493 48.1608 100.325 48.2748 100.131 48.3568C99.939 48.4388 99.735 48.4818 99.518 48.4818C99.297 48.4818 99.092 48.4388 98.9 48.3568C98.707 48.2748 98.539 48.1618 98.395 48.0168C98.25 47.8718 98.137 47.7038 98.055 47.5108C97.972 47.3198 97.93 47.1148 97.93 46.8938V44.3868C97.93 44.2408 97.879 44.1168 97.776 44.0168C97.673 43.9128 97.548 43.8608 97.404 43.8608C97.255 43.8608 97.129 43.9138 97.026 44.0168C96.922 44.1198 96.871 44.2438 96.871 44.3868V46.8938C96.871 47.2538 96.941 47.5968 97.082 47.9168C97.222 48.2368 97.412 48.5208 97.652 48.7578C97.892 48.9978 98.173 49.1908 98.493 49.3288C98.815 49.4718 99.157 49.5388 99.518 49.5388C99.823 49.5388 100.104 49.4978 100.366 49.4148C100.626 49.3318 100.873 49.1998 101.106 49.0188C101.109 49.1648 101.16 49.2888 101.258 49.3868C101.354 49.4868 101.48 49.5388 101.633 49.5388ZM99.518 43.2558C99.751 43.2558 99.97 43.2238 100.175 43.1568C100.379 43.0908 100.558 42.9998 100.71 42.8828C100.862 42.7688 100.982 42.6288 101.072 42.4688C101.162 42.3138 101.206 42.1418 101.206 41.9578C101.206 41.8118 101.157 41.6848 101.057 41.5798C100.957 41.4748 100.831 41.4248 100.68 41.4248C100.528 41.4248 100.401 41.4778 100.299 41.5758C100.224 41.6528 100.177 41.7458 100.156 41.8478C100.149 41.9438 100.088 42.0218 99.969 42.0858C99.844 42.1578 99.693 42.1928 99.517 42.1928C99.341 42.1928 99.191 42.1578 99.066 42.0858C98.948 42.0218 98.882 41.9428 98.874 41.8478C98.856 41.7438 98.811 41.6528 98.737 41.5758C98.634 41.4728 98.508 41.4248 98.356 41.4248C98.204 41.4248 98.077 41.4798 97.978 41.5798C97.878 41.6838 97.829 41.8088 97.829 41.9578C97.829 42.1418 97.874 42.3118 97.964 42.4688C98.053 42.6288 98.174 42.7688 98.326 42.8828C98.478 42.9998 98.657 43.0908 98.861 43.1568C99.065 43.2238 99.284 43.2558 99.518 43.2558ZM110.538 47.9328C110.409 47.9368 110.298 47.9738 110.203 48.0428C110.034 48.1888 109.855 48.2988 109.665 48.3698C109.477 48.4418 109.27 48.4788 109.047 48.4788C108.8 48.4788 108.568 48.4298 108.352 48.3368C108.136 48.2438 107.947 48.1178 107.785 47.9568C107.623 47.7958 107.495 47.6068 107.401 47.3928C107.308 47.1738 107.262 46.9438 107.262 46.6988C107.262 46.4528 107.308 46.2198 107.401 46.0048C107.495 45.7878 107.623 45.6008 107.785 45.4408C107.947 45.2808 108.137 45.1538 108.352 45.0598C108.569 44.9658 108.8 44.9188 109.047 44.9188C109.271 44.9188 109.477 44.9558 109.665 45.0278C109.855 45.1038 110.036 45.2148 110.208 45.3578C110.31 45.4398 110.425 45.4788 110.553 45.4788C110.705 45.4788 110.831 45.4298 110.932 45.3298C111.031 45.2268 111.081 45.1008 111.081 44.9488C111.081 44.7898 111.019 44.6568 110.898 44.5488C110.377 44.0888 109.76 43.8608 109.046 43.8608C108.261 43.8608 107.592 44.1358 107.037 44.6928C106.483 45.2488 106.205 45.9188 106.205 46.7018C106.205 47.4858 106.483 48.1558 107.037 48.7108C107.592 49.2658 108.261 49.5418 109.046 49.5418C109.755 49.5418 110.373 49.3128 110.898 48.8538C111.008 48.7438 111.064 48.6118 111.064 48.4618C111.064 48.3108 111.015 48.1858 110.915 48.0838C110.815 47.9818 110.69 47.9328 110.538 47.9328ZM116.296 47.9398C116.164 47.9438 116.048 47.9888 115.945 48.0728C115.787 48.2098 115.613 48.3088 115.426 48.3778C115.239 48.4438 115.035 48.4818 114.811 48.4818C114.617 48.4818 114.427 48.4518 114.246 48.3898C114.066 48.3278 113.901 48.2438 113.75 48.1318C113.6 48.0228 113.469 47.8918 113.357 47.7358C113.245 47.5838 113.161 47.4128 113.103 47.2258H117.12C117.268 47.2258 117.393 47.1748 117.497 47.0778C117.601 46.9758 117.651 46.8488 117.651 46.6998C117.651 46.3058 117.583 45.9428 117.444 45.6048C117.305 45.2688 117.096 44.9618 116.821 44.6908C116.258 44.1338 115.59 43.8588 114.811 43.8588C114.028 43.8588 113.358 44.1338 112.804 44.6908C112.249 45.2468 111.972 45.9168 111.972 46.6998C111.972 47.4818 112.249 48.1518 112.804 48.7088C113.358 49.2628 114.028 49.5398 114.811 49.5398C115.524 49.5398 116.144 49.3108 116.668 48.8518C116.771 48.7478 116.819 48.6218 116.819 48.4728C116.819 48.3188 116.768 48.1938 116.671 48.0928C116.573 47.9918 116.448 47.9398 116.296 47.9398ZM113.105 46.1718C113.16 45.9838 113.242 45.8178 113.353 45.6618C113.465 45.5078 113.597 45.3768 113.749 45.2658C113.9 45.1578 114.067 45.0708 114.25 45.0088C114.434 44.9468 114.621 44.9168 114.813 44.9168C115.007 44.9168 115.193 44.9468 115.375 45.0088C115.557 45.0708 115.723 45.1548 115.872 45.2658C116.021 45.3748 116.152 45.5058 116.268 45.6618C116.381 45.8148 116.466 45.9828 116.526 46.1718H113.105ZM121.525 49.5388C121.916 49.5388 122.277 49.4718 122.609 49.3338C122.943 49.1938 123.252 48.9868 123.536 48.7078C124.09 48.1588 124.368 47.4898 124.368 46.6988C124.368 46.3048 124.298 45.9398 124.159 45.6038C124.021 45.2678 123.812 44.9618 123.536 44.6878C122.974 44.1338 122.305 43.8558 121.525 43.8558C120.743 43.8558 120.073 44.1338 119.519 44.6878C118.961 45.2458 118.687 45.9148 118.687 46.6988V51.4438C118.687 51.5958 118.738 51.7228 118.834 51.8238C118.935 51.9238 119.062 51.9708 119.212 51.9708C119.36 51.9708 119.485 51.9208 119.589 51.8238C119.693 51.7228 119.745 51.5958 119.745 51.4438V48.9158C120.255 49.3318 120.848 49.5388 121.525 49.5388ZM119.748 46.6988C119.748 46.4558 119.793 46.2248 119.887 46.0098C119.981 45.7948 120.106 45.6068 120.266 45.4468C120.423 45.2858 120.612 45.1588 120.829 45.0638C121.045 44.9668 121.277 44.9198 121.525 44.9198C121.773 44.9198 122.004 44.9668 122.222 45.0638C122.437 45.1588 122.625 45.2868 122.786 45.4498C122.946 45.6108 123.073 45.7998 123.166 46.0148C123.261 46.2278 123.306 46.4558 123.306 46.7018C123.306 46.9448 123.261 47.1748 123.166 47.3898C123.073 47.6048 122.946 47.7898 122.786 47.9528C122.625 48.1148 122.436 48.2428 122.222 48.3378C122.004 48.4348 121.773 48.4818 121.525 48.4818C121.277 48.4818 121.045 48.4348 120.829 48.3378C120.611 48.2428 120.424 48.1158 120.266 47.9558C120.106 47.7948 119.981 47.6038 119.887 47.3918C119.793 47.1728 119.748 46.9398 119.748 46.6988ZM126.061 43.8578C125.987 43.8578 125.915 43.8728 125.854 43.8988C125.791 43.9238 125.733 43.9618 125.686 44.0118C125.639 44.0608 125.602 44.1168 125.576 44.1818C125.55 44.2448 125.534 44.3148 125.534 44.3838V49.0088C125.534 49.0798 125.55 49.1488 125.576 49.2118C125.602 49.2748 125.639 49.3328 125.686 49.3818C125.733 49.4318 125.79 49.4688 125.854 49.4958C125.918 49.5228 125.987 49.5358 126.061 49.5358H128.374C128.605 49.5358 128.826 49.4918 129.029 49.4018C129.234 49.3118 129.413 49.1908 129.564 49.0388C129.715 48.8868 129.835 48.7088 129.923 48.5038C130.013 48.2998 130.056 48.0818 130.056 47.8538C130.056 47.7078 130.04 47.5768 130.013 47.4568C129.984 47.3368 129.941 47.2258 129.886 47.1158C129.829 47.0068 129.758 46.9008 129.673 46.8008C129.589 46.6998 129.491 46.6008 129.38 46.4958C129.572 46.2248 129.668 45.9028 129.668 45.5418C129.668 45.3128 129.624 45.0968 129.535 44.8918C129.444 44.6888 129.324 44.5078 129.172 44.3588C129.021 44.2068 128.841 44.0858 128.64 43.9958C128.435 43.9058 128.215 43.8608 127.988 43.8608H126.06V43.8578H126.061ZM126.588 46.1718V44.9188H127.986C128.07 44.9188 128.15 44.9368 128.228 44.9718C128.301 45.0038 128.37 45.0488 128.423 45.1068C128.48 45.1628 128.525 45.2278 128.56 45.3028C128.591 45.3788 128.611 45.4588 128.611 45.5418C128.611 45.6338 128.591 45.7188 128.56 45.7938C128.525 45.8698 128.478 45.9368 128.42 45.9918C128.36 46.0478 128.295 46.0918 128.222 46.1238C128.146 46.1528 128.066 46.1718 127.986 46.1718H126.588ZM126.588 48.4798V47.2278H128.373C128.453 47.2278 128.532 47.2438 128.607 47.2748C128.683 47.3078 128.75 47.3508 128.808 47.4088C128.865 47.4648 128.912 47.5308 128.945 47.6088C128.978 47.6868 128.996 47.7688 128.996 47.8568C128.996 47.9448 128.978 48.0248 128.945 48.0988C128.912 48.1718 128.866 48.2408 128.81 48.2958C128.753 48.3548 128.687 48.3998 128.613 48.4328C128.537 48.4628 128.458 48.4798 128.373 48.4798H126.588ZM142.038 47.9328C141.909 47.9368 141.798 47.9738 141.703 48.0428C141.534 48.1888 141.355 48.2988 141.165 48.3698C140.977 48.4418 140.769 48.4788 140.547 48.4788C140.299 48.4788 140.068 48.4298 139.852 48.3368C139.636 48.2438 139.448 48.1178 139.286 47.9568C139.125 47.7958 138.997 47.6068 138.901 47.3928C138.809 47.1738 138.762 46.9438 138.762 46.6988C138.762 46.4528 138.809 46.2198 138.901 46.0048C138.997 45.7878 139.125 45.6008 139.286 45.4408C139.448 45.2808 139.64 45.1538 139.852 45.0598C140.069 44.9658 140.299 44.9188 140.547 44.9188C140.772 44.9188 140.977 44.9558 141.165 45.0278C141.355 45.1038 141.535 45.2148 141.708 45.3578C141.811 45.4398 141.925 45.4788 142.053 45.4788C142.204 45.4788 142.331 45.4298 142.432 45.3298C142.533 45.2268 142.58 45.1008 142.58 44.9488C142.58 44.7898 142.519 44.6568 142.398 44.5488C141.877 44.0888 141.257 43.8608 140.544 43.8608C139.759 43.8608 139.09 44.1358 138.535 44.6928C137.979 45.2488 137.703 45.9188 137.703 46.7018C137.703 47.4858 137.979 48.1558 138.535 48.7108C139.09 49.2658 139.759 49.5418 140.544 49.5418C141.253 49.5418 141.871 49.3128 142.398 48.8538C142.506 48.7438 142.564 48.6118 142.564 48.4618C142.564 48.3108 142.515 48.1858 142.415 48.0838C142.315 47.9818 142.189 47.9328 142.038 47.9328ZM97 28.9988C97 29.5648 96.884 30.1028 96.692 30.6028C96.044 32.2918 94.418 33.4988 92.5 33.4988L83.502 33.5008C82.673 33.5008 82.001 32.8278 82.001 31.9988C82.001 31.1708 82.673 30.4988 83.502 30.4988H92.499C93.328 30.4988 94 29.8238 94 28.9958C94 28.1768 93.338 27.5098 92.519 27.4988C92.519 27.4988 84.709 27.4978 86.5 27.4978C84.709 27.4978 83.176 26.4438 82.451 24.9308C82.17 24.3428 82 23.6918 82 22.9978C82 22.4768 82.105 21.9868 82.267 21.5238C82.879 19.7698 84.528 18.5028 86.49 18.4988C86.493 18.4988 86.496 18.4978 86.5 18.4978C86.504 18.4978 86.506 18.4988 86.51 18.4988H94.499C95.328 18.4988 96 19.1708 96 19.9988C96 20.8208 95.338 21.4868 94.519 21.4988C94.512 21.4988 94.506 21.5008 94.499 21.5008H86.482C85.662 21.5128 85.001 22.1788 85.001 22.9988C85.001 23.8208 85.663 24.4868 86.482 24.4988H92.5C92.507 24.4988 92.513 24.5008 92.52 24.5008C94.383 24.5088 95.978 25.6488 96.654 27.2708C96.875 27.8038 97 28.3858 97 28.9988ZM132 31.9988C132 31.1708 131.328 30.4988 130.5 30.4988C129.671 30.4988 129 31.1708 129 31.9988C129 32.8268 129.671 33.4988 130.5 33.4988C131.328 33.4988 132 32.8268 132 31.9988ZM147.499 18.5008C146.67 18.5008 145.998 19.1728 145.998 20.0018V20.0128V25.9858V26.0008C145.998 26.0048 145.997 26.0078 145.997 26.0118C145.994 27.1638 145.545 28.2048 144.828 28.9998C144.004 29.9138 142.825 30.4998 141.5 30.4998C140.175 30.4998 138.996 29.9138 138.172 28.9998C137.455 28.2048 137.006 27.1638 137.003 26.0118C137.003 26.0078 137.002 26.0048 137.002 26.0008V25.9858V20.0108V20.0008C137.002 19.1718 136.329 18.4998 135.501 18.4998C134.672 18.4998 134 19.1718 134 20.0008V25.9998C134 27.0338 134.21 28.0208 134.59 28.9168C134.602 28.9438 134.618 28.9738 134.63 28.9998C134.76 29.2978 134.91 29.5848 135.077 29.8578C135.577 30.6838 136.232 31.4078 137.002 31.9848C137.002 31.9868 137.002 31.9868 137.002 31.9868C138.257 32.9318 139.813 33.4998 141.5 33.4998C143.188 33.4998 144.743 32.9348 145.997 31.9868C145.997 31.9868 145.997 31.9868 145.997 31.9848C147.023 31.2138 147.848 30.1878 148.369 28.9998C148.381 28.9738 148.396 28.9438 148.408 28.9168C148.789 28.0208 148.999 27.0338 148.999 25.9998V20.0018C149 19.1728 148.328 18.5008 147.499 18.5008ZM115 25.9998C115 30.1358 111.636 33.5008 107.5 33.5008C107.487 33.5008 107.475 33.4968 107.462 33.4968C105.788 33.4888 104.248 32.9248 103.002 31.9848C101.183 30.6168 100 28.4458 100 25.9998C100 25.9988 100 25.9988 100 25.9988C100 21.8618 103.364 18.4978 107.5 18.4978C107.513 18.4978 107.525 18.5018 107.538 18.5018C109.212 18.5098 110.752 19.0738 111.998 20.0128C113.816 21.3818 115 23.5538 115 25.9998ZM107.5 30.4988C109.982 30.4988 112 28.4778 112 25.9988V25.9848C111.992 23.5098 109.977 21.4988 107.5 21.4988C105.018 21.4988 103 23.5198 103 25.9998V26.0148C103.008 28.4848 105.023 30.4988 107.5 30.4988ZM125.5 30.4998C123.02 30.4998 121.001 28.4788 121.001 26.0008C121.001 25.9958 121.002 25.9908 121.002 25.9848V14.0018C121.002 13.1728 120.329 12.5008 119.501 12.5008C118.672 12.5008 118 13.1728 118 14.0018V25.9998C118 26.0008 118 26.0008 118 26.0008C118 30.1368 121.363 33.5018 125.5 33.5018C125.514 33.5018 125.525 33.4978 125.538 33.4978C126.35 33.4768 127.001 32.8148 127.001 31.9998C127.001 31.1728 126.329 30.4998 125.5 30.4998ZM48.499 33.4968C49.328 33.4968 50 32.8248 50 31.9958V25.9978C50 21.8618 46.636 18.4978 42.5 18.4978C38.364 18.4978 35 21.8618 35 25.9978C35 30.1338 38.364 33.4988 42.5 33.4988C43.329 33.4988 44.001 32.8268 44.001 31.9968C44.001 31.1698 43.329 30.4968 42.5 30.4968C40.02 30.4968 38.001 28.4768 38.001 25.9978C38.001 23.5188 40.02 21.4988 42.5 21.4988C44.981 21.4988 46.998 23.5188 46.998 25.9978V31.9958C46.998 32.8248 47.67 33.4968 48.499 33.4968ZM77.499 33.4968C78.328 33.4968 79 32.8248 79 31.9958V25.9978C79 21.8618 75.636 18.4978 71.5 18.4978C67.364 18.4978 64 21.8618 64 25.9978C64 30.1338 67.364 33.4988 71.5 33.4988C72.329 33.4988 73.001 32.8268 73.001 31.9968C73.001 31.1698 72.329 30.4968 71.5 30.4968C69.02 30.4968 67.001 28.4768 67.001 25.9978C67.001 23.5188 69.02 21.4988 71.5 21.4988C73.981 21.4988 75.998 23.5188 75.998 25.9978V31.9958C75.998 32.8248 76.67 33.4968 77.499 33.4968ZM165.499 33.4968C166.328 33.4968 167 32.8248 167 31.9958V25.9978C167 21.8618 163.637 18.4978 159.5 18.4978C155.363 18.4978 152 21.8618 152 25.9978C152 30.1338 155.363 33.4988 159.5 33.4988C160.329 33.4988 161.001 32.8268 161.001 31.9968C161.001 31.1698 160.329 30.4968 159.5 30.4968C157.02 30.4968 155.001 28.4768 155.001 25.9978C155.001 23.5188 157.02 21.4988 159.5 21.4988C161.98 21.4988 163.998 23.5188 163.998 25.9978V31.9958C163.998 32.8248 164.67 33.4968 165.499 33.4968ZM60.5 18.4978C59.547 18.4978 58.64 18.6848 57.801 19.0088C57.729 19.0358 57.654 19.0598 57.583 19.0888C57.526 19.1118 57.473 19.1438 57.416 19.1688C54.816 20.3488 53 22.9618 53 25.9978V25.9988V31.9958C53 32.8248 53.672 33.4968 54.501 33.4968C55.33 33.4968 56.002 32.8248 56.002 31.9958V25.9978C56.002 24.7578 56.506 23.6338 57.32 22.8188C58.135 22.0048 59.26 21.4998 60.5 21.4998C60.502 21.4998 60.503 21.4988 60.505 21.4988C61.332 21.4958 62.001 20.8248 62.001 19.9998C62.001 19.1698 61.329 18.4978 60.5 18.4978ZM18.501 39.4988C19.33 39.4988 20.002 38.8268 20.002 37.9978V25.9998C20.002 23.5208 22.019 21.5008 24.5 21.5008C26.98 21.5008 28.999 23.5208 28.999 25.9998C28.999 28.4788 26.98 30.4988 24.5 30.4988C23.671 30.4988 22.999 31.1718 22.999 31.9988C22.999 32.8288 23.671 33.5008 24.5 33.5008C28.636 33.5008 32 30.1358 32 25.9998C32 21.8638 28.636 18.4998 24.5 18.4998C20.363 18.4998 17 21.8638 17 25.9998V37.9978C17 38.8268 17.672 39.4988 18.501 39.4988ZM216 49.4988H148.469C147.917 49.4988 147.469 49.0518 147.469 48.4988C147.469 47.9438 147.917 47.4988 148.469 47.4988H216C219.309 47.4988 222 44.8098 222 41.4988V24.0638C222 23.5098 222.448 23.0638 223 23.0638C223.552 23.0638 224 23.5098 224 24.0638V41.5008C224 45.9098 220.411 49.4988 216 49.4988ZM40.641 48.4988C40.641 47.9438 40.193 47.4988 39.641 47.4988H9C5.691 47.4988 3 44.8098 3 41.4988V9.49883C3 6.18983 5.691 3.49883 9 3.49883H182.547C183.1 3.49883 183.547 3.05183 183.547 2.49883C183.547 1.94583 183.1 1.49883 182.547 1.49883H9C4.589 1.49883 1 5.08783 1 9.49883V41.4988C1 45.9098 4.589 49.4988 9 49.4988H39.641C40.193 49.4988 40.641 49.0518 40.641 48.4988Z" fill="black"/>
<path d="M198.5 18.129C198.373 18.129 198.246 18.081 198.148 17.984C197.407 17.253 196.127 16.924 193.999 16.921C191.872 16.924 190.592 17.252 189.852 17.984C189.655 18.178 189.339 18.176 189.145 17.98C188.951 17.784 188.953 17.466 189.149 17.273C190.356 16.08 192.376 15.924 194 15.921C195.625 15.924 197.646 16.079 198.853 17.273C199.049 17.466 199.051 17.784 198.857 17.98C198.758 18.079 198.629 18.129 198.5 18.129ZM187.096 17.879C187.243 17.646 187.175 17.337 186.942 17.189C186.199 16.715 185.383 16.365 184.522 16.145C183.516 15.889 182.489 15.827 181.465 15.953C181.192 15.987 180.997 16.237 181.031 16.511C181.064 16.784 181.314 16.985 181.589 16.946C182.486 16.835 183.391 16.891 184.276 17.115C185.035 17.308 185.752 17.618 186.405 18.034C186.489 18.087 186.582 18.112 186.674 18.112C186.838 18.11 187 18.028 187.096 17.879ZM211.87 17.98C212.064 17.784 212.062 17.466 211.866 17.273C210.658 16.08 208.638 15.924 207.013 15.921C205.388 15.924 203.369 16.079 202.161 17.273C201.965 17.466 201.963 17.784 202.157 17.98C202.352 18.176 202.668 18.178 202.865 17.984C203.606 17.253 204.886 16.924 207.012 16.921C209.141 16.924 210.42 17.252 211.16 17.984C211.258 18.081 211.385 18.129 211.512 18.129C211.643 18.129 211.771 18.079 211.87 17.98ZM214.607 18.032C215.263 17.616 215.98 17.306 216.738 17.113C217.623 16.889 218.527 16.832 219.425 16.944C219.698 16.983 219.949 16.783 219.983 16.509C220.018 16.235 219.824 15.986 219.549 15.951C218.528 15.825 217.499 15.888 216.492 16.143C215.631 16.363 214.816 16.713 214.072 17.187C213.839 17.335 213.769 17.644 213.918 17.877C214.014 18.026 214.175 18.108 214.34 18.108C214.432 18.11 214.525 18.085 214.607 18.032ZM201 29.499V18.5C201 18.224 200.775 18 200.5 18C200.225 18 200 18.224 200 18.5V29.499C200 30.878 198.878 32 197.5 32C196.122 32 195 30.878 195 29.499C195 29.224 194.775 28.999 194.5 28.999C194.225 28.999 194 29.224 194 29.499C194 31.431 195.57 33 197.5 33C199.43 33 201 31.431 201 29.499ZM222.23 15.715C222.459 15.559 222.515 15.247 222.359 15.02C217.409 7.807 209.236 3.5 200.5 3.5C191.764 3.5 183.591 7.807 178.641 15.02C178.485 15.248 178.541 15.559 178.77 15.715C178.999 15.872 179.309 15.814 179.464 15.586C184.229 8.645 192.093 4.5 200.5 4.5C208.907 4.5 216.771 8.645 221.536 15.586C221.633 15.727 221.789 15.803 221.949 15.803C222.046 15.803 222.145 15.774 222.23 15.715ZM200.5 0C199.948 0 199.5 0.447 199.5 1C199.5 1.553 199.948 2 200.5 2C201.052 2 201.5 1.553 201.5 1C201.5 0.447 201.052 0 200.5 0ZM47.494 47.459C47.365 47.463 47.254 47.5 47.159 47.569C46.99 47.715 46.811 47.826 46.621 47.897C46.432 47.969 46.226 48.006 46.002 48.006C45.755 48.006 45.523 47.958 45.307 47.865C45.091 47.771 44.901 47.646 44.739 47.484C44.577 47.324 44.449 47.134 44.356 46.92C44.263 46.702 44.217 46.473 44.217 46.225C44.217 45.979 44.263 45.746 44.356 45.532C44.449 45.315 44.577 45.127 44.739 44.967C44.901 44.806 45.091 44.681 45.307 44.585C45.523 44.493 45.755 44.446 46.002 44.446C46.226 44.446 46.432 44.483 46.621 44.557C46.81 44.631 46.991 44.742 47.164 44.887C47.265 44.967 47.38 45.007 47.508 45.007C47.661 45.007 47.787 44.957 47.886 44.856C47.985 44.755 48.035 44.627 48.035 44.475C48.035 44.317 47.974 44.184 47.852 44.076C47.331 43.616 46.715 43.387 46.001 43.387C45.217 43.387 44.547 43.663 43.993 44.219C43.438 44.775 43.161 45.445 43.161 46.228C43.161 47.011 43.438 47.681 43.993 48.236C44.547 48.791 45.217 49.068 46.001 49.068C46.711 49.068 47.328 48.839 47.852 48.379C47.964 48.268 48.019 48.137 48.019 47.988C48.019 47.836 47.969 47.711 47.87 47.609C47.771 47.509 47.645 47.459 47.494 47.459ZM57.22 45.647C57.22 45.339 57.16 45.047 57.04 44.772C56.919 44.498 56.757 44.256 56.553 44.052C56.348 43.848 56.108 43.686 55.833 43.567C55.558 43.446 55.266 43.385 54.959 43.385C54.275 43.385 53.699 43.655 53.229 44.192C53.005 43.921 52.746 43.718 52.448 43.587C52.15 43.453 51.832 43.387 51.494 43.387C51.034 43.387 50.624 43.507 50.262 43.747C50.228 43.64 50.166 43.551 50.074 43.485C49.983 43.42 49.878 43.385 49.76 43.385C49.614 43.385 49.49 43.438 49.387 43.539C49.284 43.643 49.233 43.768 49.233 43.912V48.532C49.233 48.679 49.284 48.806 49.387 48.91C49.491 49.014 49.616 49.064 49.765 49.064C49.911 49.064 50.035 49.011 50.137 48.91C50.241 48.806 50.293 48.681 50.293 48.532V45.646C50.293 45.48 50.324 45.326 50.387 45.179C50.449 45.033 50.536 44.907 50.645 44.795C50.755 44.687 50.882 44.601 51.028 44.536C51.174 44.473 51.329 44.442 51.495 44.442C51.66 44.442 51.815 44.473 51.961 44.539C52.106 44.602 52.233 44.688 52.342 44.798C52.45 44.906 52.536 45.032 52.601 45.179C52.664 45.325 52.697 45.48 52.697 45.646V48.532C52.697 48.679 52.749 48.806 52.852 48.91C52.955 49.014 53.081 49.064 53.229 49.064C53.375 49.064 53.499 49.011 53.602 48.91C53.706 48.806 53.757 48.681 53.757 48.532V45.646C53.757 45.48 53.788 45.326 53.85 45.179C53.913 45.033 53.999 44.908 54.108 44.798C54.218 44.691 54.345 44.605 54.491 44.539C54.637 44.476 54.792 44.442 54.959 44.442C55.126 44.442 55.286 44.473 55.433 44.539C55.58 44.602 55.708 44.69 55.816 44.8C55.923 44.91 56.009 45.037 56.072 45.183C56.134 45.329 56.165 45.482 56.165 45.646V48.532C56.165 48.679 56.217 48.806 56.317 48.91C56.419 49.014 56.544 49.064 56.693 49.064C56.839 49.064 56.963 49.011 57.066 48.91C57.17 48.806 57.221 48.681 57.221 48.532L57.22 45.647ZM61.396 49.065C61.785 49.065 62.147 48.998 62.479 48.86C62.812 48.723 63.12 48.514 63.404 48.235C63.959 47.686 64.236 47.016 64.236 46.225C64.236 45.833 64.166 45.468 64.028 45.132C63.889 44.796 63.681 44.49 63.403 44.216C62.842 43.662 62.172 43.384 61.394 43.384C60.611 43.384 59.941 43.662 59.387 44.216C58.831 44.772 58.555 45.442 58.555 46.225V50.973C58.555 51.124 58.605 51.25 58.704 51.35C58.805 51.451 58.932 51.501 59.083 51.501C59.232 51.501 59.358 51.451 59.461 51.353C59.564 51.252 59.615 51.126 59.615 50.974V48.445C60.124 48.858 60.717 49.065 61.396 49.065ZM59.616 46.228C59.616 45.984 59.662 45.754 59.755 45.539C59.849 45.322 59.974 45.135 60.133 44.975C60.292 44.813 60.48 44.686 60.696 44.591C60.912 44.496 61.145 44.449 61.395 44.449C61.643 44.449 61.874 44.496 62.091 44.591C62.307 44.686 62.495 44.815 62.656 44.977C62.817 45.139 62.943 45.328 63.035 45.542C63.129 45.756 63.176 45.984 63.176 46.229C63.176 46.474 63.129 46.703 63.035 46.917C62.942 47.132 62.816 47.318 62.656 47.482C62.494 47.644 62.307 47.771 62.091 47.867C61.874 47.963 61.643 48.01 61.395 48.01C61.145 48.01 60.912 47.963 60.696 47.867C60.479 47.771 60.291 47.644 60.133 47.484C59.974 47.324 59.849 47.134 59.755 46.92C59.662 46.7 59.616 46.47 59.616 46.228ZM69.861 48.539C69.861 48.685 69.914 48.81 70.017 48.912C70.12 49.014 70.245 49.065 70.393 49.065C70.539 49.065 70.663 49.014 70.767 48.912C70.87 48.809 70.922 48.684 70.922 48.539V46.226C70.922 45.443 70.645 44.773 70.09 44.218C69.528 43.662 68.859 43.386 68.081 43.386C67.296 43.386 66.627 43.662 66.072 44.218C65.518 44.773 65.24 45.443 65.24 46.226C65.24 47.01 65.518 47.681 66.072 48.236C66.627 48.79 67.296 49.066 68.081 49.066C68.419 49.066 68.737 49.012 69.035 48.906C69.332 48.797 69.607 48.64 69.86 48.437L69.861 48.539ZM68.082 44.446C68.33 44.446 68.561 44.494 68.777 44.588C68.992 44.685 69.182 44.812 69.342 44.974C69.502 45.137 69.63 45.327 69.722 45.539C69.815 45.754 69.86 45.981 69.86 46.227C69.86 46.469 69.815 46.7 69.722 46.914C69.629 47.13 69.501 47.317 69.342 47.479C69.181 47.641 68.992 47.77 68.777 47.864C68.56 47.961 68.329 48.009 68.082 48.009C67.831 48.009 67.599 47.961 67.382 47.864C67.167 47.77 66.979 47.643 66.819 47.483C66.66 47.321 66.535 47.132 66.442 46.918C66.349 46.7 66.303 46.472 66.303 46.228C66.303 45.984 66.349 45.755 66.442 45.54C66.535 45.322 66.661 45.135 66.819 44.975C66.979 44.815 67.167 44.688 67.382 44.591C67.599 44.494 67.831 44.446 68.082 44.446ZM72.029 48.209C71.958 48.298 71.924 48.408 71.924 48.539C71.924 48.61 71.937 48.679 71.964 48.742C71.99 48.805 72.028 48.862 72.075 48.912C72.122 48.961 72.179 48.999 72.242 49.026C72.306 49.052 72.376 49.067 72.45 49.067C72.599 49.067 72.723 49.011 72.826 48.903L74.378 47.048L75.919 48.903C76.027 49.011 76.153 49.067 76.299 49.067C76.374 49.067 76.444 49.052 76.507 49.026C76.571 48.999 76.627 48.961 76.675 48.912C76.722 48.862 76.76 48.808 76.79 48.742C76.818 48.679 76.832 48.61 76.832 48.539C76.832 48.403 76.795 48.294 76.721 48.209L75.063 46.222L76.707 44.265C76.791 44.161 76.833 44.043 76.833 43.914C76.833 43.844 76.819 43.774 76.791 43.711C76.761 43.648 76.723 43.59 76.676 43.541C76.628 43.492 76.572 43.454 76.508 43.428C76.445 43.402 76.375 43.387 76.3 43.387C76.142 43.387 76.012 43.445 75.91 43.56L74.379 45.392L72.847 43.56C72.743 43.445 72.611 43.387 72.451 43.387C72.377 43.387 72.307 43.402 72.243 43.428C72.18 43.454 72.123 43.492 72.076 43.541C72.029 43.59 71.991 43.645 71.965 43.711C71.938 43.774 71.925 43.844 71.925 43.914C71.925 44.058 71.965 44.173 72.046 44.265L73.69 46.222L72.029 48.209ZM83.288 46.228C83.285 45.834 83.215 45.472 83.078 45.137C82.94 44.802 82.732 44.495 82.457 44.219C81.894 43.663 81.226 43.387 80.448 43.387C79.663 43.387 78.994 43.663 78.439 44.219C77.885 44.775 77.607 45.445 77.607 46.228C77.607 47.011 77.885 47.681 78.439 48.236C78.994 48.791 79.663 49.068 80.448 49.068C81.225 49.068 81.894 48.791 82.457 48.236C83.011 47.687 83.288 47.019 83.288 46.228ZM80.448 44.446C80.695 44.446 80.927 44.494 81.143 44.588C81.358 44.685 81.547 44.812 81.708 44.974C81.867 45.137 81.995 45.327 82.088 45.539C82.181 45.754 82.227 45.981 82.227 46.227C82.227 46.469 82.181 46.7 82.088 46.914C81.995 47.13 81.867 47.317 81.708 47.479C81.547 47.641 81.357 47.77 81.143 47.864C80.926 47.961 80.695 48.009 80.448 48.009C80.197 48.009 79.964 47.961 79.747 47.864C79.532 47.77 79.345 47.643 79.184 47.483C79.026 47.321 78.9 47.132 78.807 46.918C78.714 46.7 78.667 46.472 78.667 46.228C78.667 45.984 78.714 45.755 78.807 45.54C78.9 45.324 79.026 45.135 79.184 44.975C79.344 44.815 79.532 44.688 79.747 44.591C79.964 44.494 80.197 44.446 80.448 44.446ZM95.381 46.228C95.378 45.834 95.308 45.472 95.171 45.137C95.033 44.802 94.825 44.495 94.55 44.219C93.987 43.663 93.319 43.387 92.541 43.387C91.756 43.387 91.087 43.663 90.532 44.219C89.978 44.775 89.7 45.445 89.7 46.228C89.7 47.011 89.978 47.681 90.532 48.236C91.087 48.791 91.756 49.068 92.541 49.068C93.318 49.068 93.987 48.791 94.55 48.236C95.104 47.687 95.381 47.019 95.381 46.228ZM92.541 44.446C92.788 44.446 93.02 44.494 93.236 44.588C93.451 44.685 93.64 44.812 93.801 44.974C93.96 45.137 94.088 45.327 94.181 45.539C94.274 45.754 94.32 45.981 94.32 46.227C94.32 46.469 94.274 46.7 94.181 46.914C94.088 47.13 93.96 47.317 93.801 47.479C93.64 47.641 93.45 47.77 93.236 47.864C93.019 47.961 92.788 48.009 92.541 48.009C92.29 48.009 92.057 47.961 91.84 47.864C91.625 47.77 91.438 47.643 91.277 47.483C91.119 47.321 90.993 47.132 90.9 46.918C90.807 46.7 90.76 46.472 90.76 46.228C90.76 45.984 90.807 45.755 90.9 45.54C90.993 45.324 91.119 45.135 91.277 44.975C91.437 44.815 91.625 44.688 91.84 44.591C92.057 44.494 92.29 44.446 92.541 44.446ZM84.98 43.387C84.906 43.387 84.835 43.402 84.773 43.428C84.709 43.454 84.653 43.492 84.605 43.542C84.557 43.591 84.52 43.647 84.493 43.711C84.467 43.774 84.452 43.844 84.452 43.914V48.539C84.452 48.61 84.467 48.678 84.493 48.742C84.52 48.805 84.557 48.862 84.605 48.912C84.653 48.961 84.709 48.999 84.773 49.026C84.836 49.052 84.906 49.065 84.98 49.065H87.293C87.525 49.065 87.745 49.022 87.949 48.932C88.153 48.841 88.332 48.721 88.484 48.569C88.635 48.417 88.755 48.239 88.843 48.034C88.932 47.83 88.976 47.612 88.976 47.383C88.976 47.237 88.961 47.105 88.932 46.986C88.904 46.866 88.861 46.753 88.806 46.644C88.75 46.536 88.679 46.431 88.594 46.33C88.51 46.228 88.411 46.128 88.301 46.025C88.493 45.753 88.589 45.433 88.589 45.07C88.589 44.841 88.545 44.625 88.455 44.42C88.366 44.216 88.245 44.037 88.093 43.886C87.94 43.735 87.762 43.614 87.558 43.524C87.354 43.434 87.135 43.389 86.906 43.389L84.98 43.387ZM85.509 45.699V44.446H86.907C86.992 44.446 87.072 44.463 87.148 44.498C87.224 44.53 87.291 44.576 87.346 44.632C87.401 44.689 87.447 44.754 87.48 44.83C87.514 44.905 87.532 44.985 87.532 45.069C87.532 45.161 87.514 45.246 87.48 45.321C87.447 45.397 87.4 45.463 87.342 45.518C87.285 45.575 87.218 45.619 87.143 45.651C87.067 45.682 86.989 45.699 86.907 45.699H85.509ZM85.509 48.007V46.754H87.294C87.374 46.754 87.453 46.771 87.529 46.802C87.605 46.834 87.671 46.878 87.728 46.935C87.786 46.992 87.832 47.058 87.866 47.135C87.9 47.213 87.917 47.295 87.917 47.383C87.917 47.472 87.9 47.552 87.866 47.626C87.832 47.7 87.787 47.767 87.731 47.824C87.676 47.882 87.609 47.927 87.534 47.959C87.458 47.991 87.378 48.007 87.294 48.007H85.509ZM135.779 49.065C135.926 49.065 136.052 49.014 136.156 48.912C136.26 48.81 136.31 48.684 136.31 48.539V43.914C136.31 43.768 136.258 43.643 136.156 43.541C136.052 43.438 135.929 43.386 135.784 43.386C135.637 43.386 135.51 43.439 135.406 43.541C135.302 43.645 135.252 43.769 135.252 43.914V46.419C135.252 46.64 135.21 46.845 135.127 47.035C135.045 47.225 134.93 47.393 134.785 47.54C134.639 47.686 134.471 47.799 134.277 47.883C134.085 47.965 133.88 48.008 133.664 48.008C133.443 48.008 133.238 47.965 133.046 47.883C132.854 47.799 132.686 47.687 132.541 47.543C132.396 47.399 132.284 47.23 132.201 47.038C132.118 46.845 132.077 46.64 132.077 46.419V43.914C132.077 43.768 132.025 43.643 131.922 43.541C131.819 43.439 131.693 43.386 131.549 43.386C131.401 43.386 131.276 43.439 131.172 43.541C131.068 43.645 131.018 43.769 131.018 43.914V46.419C131.018 46.78 131.087 47.123 131.229 47.442C131.369 47.764 131.559 48.046 131.798 48.286C132.037 48.524 132.319 48.716 132.639 48.856C132.96 48.996 133.303 49.065 133.664 49.065C133.969 49.065 134.25 49.024 134.512 48.942C134.772 48.858 135.02 48.725 135.252 48.545C135.255 48.691 135.307 48.814 135.404 48.914C135.501 49.017 135.627 49.065 135.779 49.065ZM101.376 49.065C101.524 49.065 101.65 49.014 101.753 48.912C101.857 48.808 101.909 48.684 101.909 48.539V43.914C101.909 43.768 101.857 43.643 101.753 43.542C101.65 43.438 101.526 43.387 101.381 43.387C101.233 43.387 101.107 43.439 101.003 43.542C100.9 43.646 100.849 43.769 100.849 43.914V46.419C100.849 46.64 100.808 46.845 100.724 47.035C100.642 47.225 100.528 47.393 100.382 47.54C100.236 47.687 100.068 47.8 99.874 47.883C99.682 47.965 99.478 48.007 99.261 48.007C99.04 48.007 98.835 47.965 98.643 47.883C98.45 47.8 98.282 47.687 98.138 47.543C97.993 47.399 97.88 47.23 97.798 47.038C97.715 46.847 97.673 46.64 97.673 46.419V43.914C97.673 43.768 97.622 43.643 97.519 43.542C97.416 43.438 97.291 43.387 97.147 43.387C96.998 43.387 96.872 43.439 96.769 43.542C96.665 43.646 96.614 43.769 96.614 43.914V46.419C96.614 46.78 96.684 47.123 96.825 47.444C96.965 47.764 97.155 48.046 97.395 48.285C97.635 48.524 97.916 48.716 98.236 48.856C98.558 48.997 98.9 49.065 99.261 49.065C99.566 49.065 99.847 49.024 100.109 48.942C100.369 48.858 100.616 48.727 100.849 48.545C100.852 48.691 100.903 48.814 101.001 48.914C101.098 49.017 101.224 49.065 101.376 49.065ZM99.261 42.783C99.494 42.783 99.713 42.75 99.918 42.684C100.122 42.618 100.301 42.526 100.453 42.41C100.605 42.294 100.725 42.155 100.815 41.996C100.905 41.839 100.949 41.667 100.949 41.485C100.949 41.337 100.9 41.211 100.8 41.106C100.7 41.003 100.574 40.952 100.423 40.952C100.271 40.952 100.144 41.003 100.042 41.102C99.967 41.182 99.92 41.272 99.899 41.376C99.892 41.473 99.831 41.55 99.712 41.614C99.587 41.685 99.436 41.72 99.26 41.72C99.084 41.72 98.934 41.685 98.809 41.614C98.691 41.55 98.625 41.47 98.617 41.376C98.599 41.272 98.554 41.182 98.48 41.102C98.377 41.001 98.251 40.952 98.099 40.952C97.947 40.952 97.82 41.005 97.721 41.106C97.621 41.21 97.572 41.335 97.572 41.485C97.572 41.667 97.617 41.839 97.707 41.996C97.796 42.155 97.917 42.294 98.069 42.41C98.221 42.526 98.4 42.618 98.604 42.684C98.809 42.75 99.027 42.783 99.261 42.783ZM110.281 47.459C110.152 47.463 110.041 47.5 109.946 47.569C109.777 47.715 109.598 47.826 109.408 47.897C109.22 47.969 109.013 48.006 108.79 48.006C108.543 48.006 108.311 47.958 108.095 47.865C107.879 47.771 107.69 47.646 107.528 47.484C107.366 47.324 107.238 47.134 107.144 46.92C107.051 46.702 107.005 46.473 107.005 46.225C107.005 45.979 107.051 45.746 107.144 45.532C107.238 45.315 107.366 45.127 107.528 44.967C107.69 44.806 107.88 44.681 108.095 44.585C108.312 44.493 108.543 44.446 108.79 44.446C109.014 44.446 109.22 44.483 109.408 44.557C109.598 44.631 109.779 44.742 109.951 44.887C110.053 44.967 110.168 45.007 110.296 45.007C110.448 45.007 110.574 44.957 110.675 44.856C110.774 44.755 110.824 44.627 110.824 44.475C110.824 44.317 110.762 44.184 110.641 44.076C110.12 43.616 109.503 43.387 108.789 43.387C108.004 43.387 107.335 43.663 106.78 44.219C106.226 44.775 105.948 45.445 105.948 46.228C105.948 47.011 106.226 47.681 106.78 48.236C107.335 48.791 108.004 49.068 108.789 49.068C109.498 49.068 110.116 48.839 110.641 48.379C110.751 48.268 110.807 48.137 110.807 47.988C110.807 47.836 110.758 47.711 110.658 47.609C110.559 47.509 110.434 47.459 110.281 47.459ZM116.039 47.47C115.907 47.474 115.791 47.517 115.687 47.601C115.529 47.738 115.357 47.838 115.17 47.906C114.983 47.974 114.779 48.01 114.555 48.01C114.361 48.01 114.171 47.979 113.99 47.918C113.81 47.857 113.645 47.772 113.494 47.661C113.344 47.551 113.213 47.42 113.101 47.265C112.989 47.11 112.905 46.941 112.847 46.754H116.864C117.012 46.754 117.139 46.704 117.241 46.605C117.345 46.505 117.397 46.378 117.397 46.228C117.397 45.834 117.327 45.472 117.188 45.134C117.049 44.797 116.841 44.491 116.565 44.219C116.002 43.663 115.334 43.388 114.555 43.388C113.772 43.388 113.102 43.663 112.548 44.219C111.993 44.775 111.716 45.445 111.716 46.228C111.716 47.011 111.993 47.681 112.548 48.236C113.102 48.791 113.772 49.068 114.555 49.068C115.268 49.068 115.888 48.839 116.412 48.379C116.515 48.275 116.563 48.149 116.563 47.999C116.563 47.846 116.514 47.72 116.415 47.621C116.316 47.521 116.191 47.47 116.039 47.47ZM112.849 45.699C112.904 45.511 112.986 45.344 113.097 45.188C113.209 45.035 113.341 44.903 113.493 44.792C113.644 44.684 113.811 44.598 113.994 44.536C114.178 44.474 114.365 44.443 114.557 44.443C114.751 44.443 114.938 44.474 115.119 44.536C115.3 44.598 115.466 44.682 115.616 44.792C115.765 44.902 115.896 45.033 116.012 45.188C116.125 45.342 116.21 45.512 116.27 45.699H112.849ZM121.27 49.065C121.661 49.065 122.022 48.998 122.354 48.86C122.688 48.723 122.997 48.514 123.28 48.235C123.835 47.686 124.112 47.016 124.112 46.225C124.112 45.833 124.043 45.468 123.903 45.132C123.766 44.796 123.557 44.49 123.28 44.216C122.718 43.662 122.05 43.384 121.27 43.384C120.487 43.384 119.817 43.662 119.264 44.216C118.707 44.772 118.432 45.442 118.432 46.225V50.973C118.432 51.124 118.483 51.25 118.58 51.35C118.68 51.451 118.807 51.499 118.958 51.499C119.107 51.499 119.232 51.449 119.335 51.35C119.439 51.25 119.491 51.124 119.491 50.973V48.442C119.998 48.858 120.591 49.065 121.27 49.065ZM119.491 46.228C119.491 45.984 119.536 45.754 119.63 45.539C119.723 45.322 119.85 45.135 120.008 44.975C120.166 44.813 120.356 44.686 120.571 44.591C120.788 44.496 121.02 44.449 121.27 44.449C121.518 44.449 121.749 44.496 121.965 44.591C122.181 44.686 122.369 44.815 122.529 44.977C122.689 45.139 122.816 45.328 122.91 45.542C123.004 45.756 123.05 45.984 123.05 46.229C123.05 46.474 123.004 46.703 122.91 46.917C122.816 47.131 122.689 47.318 122.529 47.482C122.369 47.644 122.179 47.771 121.965 47.867C121.748 47.963 121.518 48.01 121.27 48.01C121.02 48.01 120.788 47.963 120.571 47.867C120.354 47.771 120.167 47.644 120.008 47.484C119.849 47.324 119.723 47.134 119.63 46.92C119.536 46.7 119.491 46.47 119.491 46.228ZM125.805 43.387C125.731 43.387 125.659 43.402 125.596 43.428C125.533 43.454 125.477 43.492 125.428 43.542C125.381 43.591 125.344 43.647 125.317 43.711C125.292 43.774 125.276 43.844 125.276 43.914V48.539C125.276 48.61 125.292 48.678 125.317 48.742C125.344 48.805 125.381 48.862 125.428 48.912C125.477 48.961 125.532 48.999 125.596 49.026C125.659 49.052 125.731 49.065 125.805 49.065H128.118C128.35 49.065 128.569 49.022 128.774 48.932C128.979 48.841 129.157 48.721 129.309 48.569C129.46 48.417 129.58 48.239 129.668 48.034C129.756 47.83 129.8 47.612 129.8 47.383C129.8 47.237 129.785 47.105 129.757 46.986C129.729 46.866 129.686 46.753 129.629 46.644C129.574 46.536 129.503 46.431 129.418 46.33C129.334 46.228 129.236 46.128 129.125 46.025C129.316 45.753 129.413 45.433 129.413 45.07C129.413 44.841 129.369 44.625 129.279 44.42C129.189 44.216 129.068 44.037 128.917 43.886C128.764 43.735 128.586 43.614 128.383 43.524C128.178 43.434 127.96 43.389 127.731 43.389L125.805 43.387ZM126.331 45.699V44.446H127.73C127.814 44.446 127.894 44.463 127.97 44.498C128.045 44.53 128.113 44.576 128.167 44.632C128.222 44.689 128.269 44.754 128.302 44.83C128.335 44.905 128.353 44.985 128.353 45.069C128.353 45.161 128.335 45.246 128.302 45.321C128.269 45.397 128.222 45.463 128.164 45.518C128.106 45.575 128.039 45.619 127.965 45.651C127.89 45.682 127.81 45.699 127.73 45.699H126.331ZM126.331 48.007V46.754H128.116C128.195 46.754 128.275 46.771 128.351 46.802C128.426 46.834 128.493 46.878 128.55 46.935C128.607 46.992 128.654 47.058 128.689 47.135C128.722 47.213 128.738 47.295 128.738 47.383C128.738 47.472 128.722 47.552 128.689 47.626C128.654 47.7 128.609 47.767 128.552 47.824C128.497 47.882 128.431 47.927 128.355 47.959C128.279 47.991 128.201 48.007 128.116 48.007H126.331ZM141.781 47.459C141.652 47.463 141.541 47.5 141.445 47.569C141.277 47.715 141.097 47.826 140.908 47.897C140.72 47.969 140.513 48.006 140.29 48.006C140.042 48.006 139.811 47.958 139.596 47.865C139.379 47.771 139.19 47.646 139.028 47.484C138.867 47.324 138.739 47.134 138.645 46.92C138.551 46.702 138.505 46.473 138.505 46.225C138.505 45.979 138.551 45.746 138.645 45.532C138.739 45.315 138.867 45.127 139.028 44.967C139.19 44.806 139.381 44.681 139.596 44.585C139.813 44.493 140.042 44.446 140.29 44.446C140.514 44.446 140.721 44.483 140.908 44.557C141.097 44.631 141.277 44.742 141.451 44.887C141.553 44.967 141.668 45.007 141.796 45.007C141.947 45.007 142.074 44.957 142.174 44.856C142.274 44.755 142.323 44.627 142.323 44.475C142.323 44.317 142.261 44.184 142.14 44.076C141.619 43.616 141.001 43.387 140.288 43.387C139.503 43.387 138.834 43.663 138.278 44.219C137.725 44.775 137.447 45.445 137.447 46.228C137.447 47.011 137.725 47.681 138.278 48.236C138.834 48.791 139.503 49.068 140.288 49.068C140.997 49.068 141.615 48.839 142.14 48.379C142.25 48.268 142.306 48.137 142.306 47.988C142.306 47.836 142.257 47.711 142.158 47.609C142.059 47.509 141.934 47.459 141.781 47.459ZM95.653 26.271C94.977 24.651 93.382 23.51 91.519 23.502C91.512 23.502 91.506 23.5 91.499 23.5H85.481C84.661 23.489 84 22.822 84 22C84 21.179 84.662 20.513 85.481 20.502H93.498C93.505 20.502 93.511 20.5 93.518 20.5C94.338 20.489 94.999 19.822 94.999 19C94.999 18.172 94.327 17.5 93.498 17.5H85.51C85.507 17.5 85.504 17.499 85.5 17.499C85.496 17.499 85.494 17.5 85.49 17.5C83.528 17.504 81.879 18.771 81.267 20.525C81.105 20.989 81 21.48 81 21.999C81 22.693 81.17 23.344 81.451 23.931C82.176 25.446 83.709 26.499 85.5 26.499C83.709 26.499 91.519 26.5 91.519 26.5C92.338 26.511 93 27.178 93 27.997C93 28.825 92.328 29.5 91.499 29.5H82.502C81.673 29.5 81.001 30.172 81.001 31C81.001 31.829 81.673 32.502 82.502 32.502L91.5 32.5C93.418 32.5 95.044 31.295 95.692 29.604C95.883 29.104 96 28.567 96 28C96 27.387 95.875 26.804 95.653 26.271ZM131 31C131 30.172 130.328 29.5 129.5 29.5C128.671 29.5 128 30.172 128 31C128 31.828 128.671 32.5 129.5 32.5C130.328 32.5 131 31.828 131 31ZM146.499 17.502C145.67 17.502 144.998 18.174 144.998 19.003V19.013V24.987V25.001C144.998 25.005 144.997 25.008 144.997 25.012C144.994 26.164 144.545 27.205 143.828 28C143.004 28.914 141.825 29.5 140.5 29.5C139.175 29.5 137.996 28.914 137.172 28C136.455 27.205 136.006 26.164 136.003 25.012C136.003 25.008 136.002 25.005 136.002 25.001V24.986V19.012V19.002C136.002 18.173 135.329 17.501 134.501 17.501C133.672 17.501 133 18.173 133 19.002V25.001C133 26.035 133.21 27.021 133.59 27.918C133.602 27.946 133.618 27.973 133.63 28.001C133.76 28.299 133.91 28.586 134.077 28.86C134.577 29.686 135.232 30.409 136.002 30.987C136.002 30.989 136.002 30.989 136.002 30.989C137.257 31.935 138.813 32.501 140.5 32.501C142.188 32.501 143.743 31.935 144.997 30.989V30.987C146.023 30.216 146.848 29.19 147.369 28.001C147.381 27.973 147.396 27.946 147.409 27.918C147.789 27.021 147.999 26.035 147.999 25.001V19.003C148 18.174 147.328 17.502 146.499 17.502ZM114 25.001C114 29.137 110.636 32.502 106.5 32.502C106.487 32.502 106.475 32.498 106.462 32.498C104.788 32.49 103.248 31.926 102.002 30.987C100.184 29.618 99 27.448 99 25.001V25C99 20.864 102.364 17.499 106.5 17.499C106.513 17.499 106.525 17.503 106.538 17.503C108.212 17.511 109.752 18.075 110.998 19.013C112.816 20.383 114 22.554 114 25.001ZM106.5 29.5C108.982 29.5 111 27.48 111 25V24.986C110.992 22.512 108.977 20.5 106.5 20.5C104.018 20.5 102 22.521 102 25.001V25.015C102.008 27.488 104.023 29.5 106.5 29.5ZM124.5 29.501C122.02 29.501 120.001 27.482 120.001 25.002C120.001 24.997 120.002 24.992 120.002 24.987V13.003C120.002 12.174 119.329 11.502 118.501 11.502C117.672 11.502 117 12.174 117 13.003V25.001C117 25.002 117 25.002 117 25.002C117 29.138 120.363 32.503 124.5 32.503C124.514 32.503 124.525 32.499 124.538 32.499C125.35 32.478 126.001 31.817 126.001 31.001C126.001 30.174 125.329 29.501 124.5 29.501ZM47.499 32.498C48.328 32.498 49 31.826 49 30.997V24.999C49 20.863 45.636 17.499 41.5 17.499C37.364 17.499 34 20.863 34 24.999C34 29.135 37.364 32.5 41.5 32.5C42.329 32.5 43.001 31.828 43.001 30.998C43.001 30.171 42.329 29.498 41.5 29.498C39.02 29.498 37.001 27.479 37.001 24.999C37.001 22.519 39.02 20.5 41.5 20.5C43.981 20.5 45.998 22.519 45.998 24.999V30.997C45.998 31.826 46.67 32.498 47.499 32.498ZM76.499 32.498C77.328 32.498 78 31.826 78 30.997V24.999C78 20.863 74.636 17.499 70.5 17.499C66.364 17.499 63 20.863 63 24.999C63 29.135 66.364 32.5 70.5 32.5C71.329 32.5 72.001 31.828 72.001 30.998C72.001 30.171 71.329 29.498 70.5 29.498C68.02 29.498 66.001 27.479 66.001 24.999C66.001 22.519 68.02 20.5 70.5 20.5C72.981 20.5 74.998 22.519 74.998 24.999V30.997C74.998 31.826 75.67 32.498 76.499 32.498ZM164.499 32.498C165.328 32.498 166 31.826 166 30.997V24.999C166 20.863 162.637 17.499 158.5 17.499C154.363 17.499 151 20.863 151 24.999C151 29.135 154.363 32.5 158.5 32.5C159.329 32.5 160.001 31.828 160.001 30.998C160.001 30.171 159.329 29.498 158.5 29.498C156.02 29.498 154.001 27.479 154.001 24.999C154.001 22.519 156.02 20.5 158.5 20.5C160.98 20.5 162.998 22.519 162.998 24.999V30.997C162.998 31.826 163.67 32.498 164.499 32.498ZM59.5 17.499C58.547 17.499 57.64 17.685 56.801 18.01C56.729 18.037 56.654 18.06 56.583 18.09C56.526 18.113 56.473 18.145 56.416 18.17C53.816 19.349 52 21.963 52 24.999V25V30.997C52 31.826 52.672 32.498 53.501 32.498C54.33 32.498 55.002 31.826 55.002 30.997V24.999C55.002 23.759 55.506 22.635 56.32 21.82C57.135 21.006 58.26 20.501 59.5 20.501C59.502 20.501 59.503 20.5 59.505 20.5C60.332 20.497 61.001 19.826 61.001 19.001C61.001 18.171 60.329 17.499 59.5 17.499ZM17.501 38.5C18.33 38.5 19.002 37.828 19.002 36.999V25.001C19.002 22.521 21.019 20.502 23.5 20.502C25.98 20.502 27.999 22.521 27.999 25.001C27.999 27.481 25.98 29.5 23.5 29.5C22.671 29.5 21.999 30.173 21.999 31C21.999 31.83 22.671 32.502 23.5 32.502C27.636 32.502 31 29.137 31 25.001C31 20.865 27.636 17.501 23.5 17.501C19.363 17.501 16 20.865 16 25.001V36.999C16 37.828 16.672 38.5 17.501 38.5Z" fill="white"/>
<path d="M223 23.064V40.501C223 44.912 219.411 48.501 215 48.501H147.469C146.917 48.501 146.469 48.054 146.469 47.501C146.469 46.948 146.917 46.501 147.469 46.501H215C218.309 46.501 221 43.81 221 40.501V23.064C221 22.511 221.448 22.064 222 22.064C222.552 22.064 223 22.511 223 23.064ZM38.641 46.5H8C4.691 46.5 2 43.81 2 40.5V8.5C2 5.191 4.691 2.5 8 2.5H181.547C182.1 2.5 182.547 2.053 182.547 1.5C182.547 0.947 182.1 0.5 181.547 0.5H8C3.589 0.5 0 4.089 0 8.5V40.5C0 44.911 3.589 48.5 8 48.5H38.641C39.193 48.5 39.641 48.053 39.641 47.5C39.641 46.946 39.193 46.5 38.641 46.5Z" fill="#A3CC39"/>
</svg>
