<svg width="18" height="11" viewBox="0 0 18 11" fill="none" xmlns="http://www.w3.org/2000/svg">
<path d="M11.25 5.25C11.25 6.49275 10.2428 7.5 9 7.5C7.75725 7.5 6.75 6.49275 6.75 5.25C6.75 5.10075 6.765 4.95525 6.79275 4.81425C7.89825 5.22 8.988 4.15275 8.5965 3.036C8.727 3.0135 8.862 3 9 3C10.2428 3 11.25 4.008 11.25 5.25ZM9.01125 0C3.3345 0 0 4.91325 0 4.91325C0 4.91325 3.62625 10.5 9.01125 10.5C14.811 10.5 18 4.91325 18 4.91325C18 4.91325 14.7817 0 9.01125 0ZM9 9C6.92925 9 5.25 7.3215 5.25 5.25C5.25 3.17925 6.92925 1.5 9 1.5C11.0715 1.5 12.75 3.17925 12.75 5.25C12.75 7.3215 11.0715 9 9 9Z" fill="#666A6F"/>
</svg>
