<svg width="51" height="16" viewBox="0 0 51 16" fill="none" xmlns="http://www.w3.org/2000/svg">
<path d="M47.3303 0.222412H44.1403C43.1759 0.222412 42.4341 0.519154 41.989 1.48356L35.9058 15.3562H40.2085C40.2085 15.3562 40.9504 13.5016 41.0987 13.0565C41.5439 13.0565 45.7724 13.0565 46.3659 13.0565C46.5143 13.5758 46.8852 15.2821 46.8852 15.2821H50.7429L47.3303 0.222412ZM42.2857 9.94071C42.6566 9.05048 43.9178 5.71214 43.9178 5.71214C43.9178 5.78632 44.2887 4.82191 44.4371 4.30261L44.7338 5.63795C44.7338 5.63795 45.5499 9.27304 45.6982 10.0149H42.2857V9.94071Z" fill="#3362AB"/>
<path d="M36.2025 10.386C36.2025 13.5018 33.3834 15.5789 29.0065 15.5789C27.1518 15.5789 25.3714 15.208 24.407 14.7629L25.0005 11.3504L25.5198 11.5729C26.8551 12.1664 27.7453 12.389 29.3774 12.389C30.5644 12.389 31.8255 11.9439 31.8255 10.9053C31.8255 10.2376 31.3062 9.79248 29.6741 9.05063C28.1163 8.30877 26.0391 7.1218 26.0391 4.97043C26.0391 2.00301 28.9323 0 33.0125 0C34.5704 0 35.9057 0.296742 36.7218 0.667669L36.1283 3.93183L35.8315 3.63509C35.0897 3.33835 34.1253 3.0416 32.7158 3.0416C31.1579 3.11579 30.416 3.78346 30.416 4.37694C30.416 5.04461 31.3062 5.56391 32.7158 6.23158C35.0897 7.34436 36.2025 8.60551 36.2025 10.386Z" fill="#3362AB"/>
<path d="M0 0.370961L0.0741855 0.0742188H6.45414C7.34436 0.0742188 8.01203 0.370961 8.23459 1.33537L9.64411 8.01206C8.23459 4.45116 4.97043 1.55793 0 0.370961Z" fill="#F9B50B"/>
<path d="M18.6204 0.222867L12.1663 15.2825H7.78935L4.08008 2.67099C6.75075 4.37725 8.97632 7.04793 9.79236 8.90257L10.2375 10.4605L14.2435 0.148682H18.6204V0.222867Z" fill="#3362AB"/>
<path d="M20.3267 0.148682H24.4069L21.8104 15.2825H17.7302L20.3267 0.148682Z" fill="#3362AB"/>
</svg>
