<svg width="46" height="30" viewBox="0 0 46 30" fill="none" xmlns="http://www.w3.org/2000/svg">
<rect x="0.5" y="0.5" width="45" height="29" rx="2.5" stroke="#2A2A2A"/>
<path d="M12.5646 10.0754C12.9537 9.56601 13.2316 8.88676 13.1482 8.20752C12.5646 8.23582 11.8698 8.60375 11.4529 9.08488C11.0917 9.50941 10.7582 10.217 10.8415 10.8679C11.5085 10.9528 12.1477 10.5849 12.5646 10.0754ZM13.1482 11.0377C12.2033 10.9811 11.3974 11.5754 10.9527 11.5754C10.5081 11.5754 9.81328 11.066 9.06292 11.066C8.09024 11.0943 7.20093 11.632 6.70069 12.5377C5.70022 14.3207 6.42278 16.9528 7.42326 18.3962C7.8957 19.1037 8.47931 19.8962 9.22967 19.8679C9.95224 19.8396 10.2301 19.3868 11.0917 19.3868C11.9532 19.3868 12.2033 19.8679 12.9815 19.8396C13.7596 19.8113 14.2598 19.132 14.7323 18.3962C15.2881 17.5754 15.5104 16.783 15.5104 16.7547C15.4826 16.7264 13.9819 16.1603 13.9819 14.4056C13.9541 12.9339 15.1491 12.2264 15.2047 12.1981C14.5655 11.1792 13.5095 11.066 13.1482 11.0377Z" fill="#2A2A2A"/>
<path d="M21.3186 9.02832C23.3752 9.02832 24.7925 10.4717 24.7925 12.5378C24.7925 14.6321 23.3474 16.0755 21.263 16.0755H19.012V19.7264H17.3723V9.02832H21.3186ZM19.012 14.6887H20.874C22.2913 14.6887 23.0972 13.8962 23.0972 12.5661C23.0972 11.2076 22.2913 10.4434 20.874 10.4434H18.9842V14.6887H19.012ZM25.2094 17.5472C25.2094 16.1887 26.2376 15.3396 28.0718 15.2264L30.1839 15.1132V14.5189C30.1839 13.6415 29.6003 13.1321 28.6554 13.1321C27.7383 13.1321 27.1825 13.5849 27.0436 14.2642H25.5429C25.6262 12.8491 26.8212 11.8019 28.711 11.8019C30.573 11.8019 31.768 12.7925 31.768 14.3774V19.7547H30.2673V18.4812H30.2395C29.7949 19.3585 28.8222 19.8963 27.8217 19.8963C26.2654 19.8963 25.2094 18.934 25.2094 17.5472ZM30.1839 16.8396V16.217L28.2942 16.3302C27.3493 16.3868 26.8212 16.8113 26.8212 17.4906C26.8212 18.1698 27.3771 18.6227 28.2108 18.6227C29.3224 18.6227 30.1839 17.8585 30.1839 16.8396ZM33.1576 22.6415V21.3397C33.2687 21.368 33.5466 21.368 33.6578 21.368C34.3804 21.368 34.7694 21.0566 35.0196 20.2642C35.0196 20.2359 35.1585 19.783 35.1585 19.783L32.3794 11.9717H34.0747L36.02 18.3397H36.0478L37.9932 11.9717H39.6606L36.7982 20.2076C36.1312 22.1038 35.3808 22.6981 33.7968 22.6981C33.6856 22.6698 33.2965 22.6698 33.1576 22.6415Z" fill="#2A2A2A"/>
</svg>
