<svg width="45" height="18" viewBox="0 0 45 18" fill="none" xmlns="http://www.w3.org/2000/svg">
<path d="M21.2818 8.66978V13.8715H19.6201V1.02552H24.0273C24.5533 1.01461 25.0763 1.10726 25.5662 1.29814C26.056 1.48901 26.5029 1.77433 26.8811 2.13762C27.2631 2.47885 27.5671 2.89734 27.7727 3.36496C27.9783 3.83257 28.0808 4.33848 28.0732 4.84868C28.0841 5.3616 27.9832 5.87082 27.7775 6.34141C27.5717 6.812 27.2659 7.23285 26.8811 7.57511C26.1104 8.30489 25.1591 8.66944 24.0273 8.66876H21.2818V8.66978ZM21.2818 2.60706V7.09132H24.0685C24.3741 7.10032 24.6781 7.04589 24.9612 6.93152C25.2443 6.81715 25.5003 6.64536 25.7127 6.42714C25.924 6.22311 26.092 5.97906 26.2067 5.70944C26.3214 5.43982 26.3805 5.15009 26.3805 4.85739C26.3805 4.56469 26.3214 4.27496 26.2067 4.00534C26.092 3.73572 25.924 3.49167 25.7127 3.28764C25.5029 3.06482 25.2479 2.88882 24.9644 2.77131C24.681 2.6538 24.3756 2.59746 24.0685 2.60603H21.2818V2.60706Z" fill="#5F6368"/>
<path d="M31.9024 4.79541C33.1306 4.79541 34.1001 5.12135 34.8109 5.77324C35.5216 6.42512 35.8767 7.3189 35.876 8.45457V13.8716H34.2865V12.6518H34.2143C33.5262 13.6563 32.6111 14.1586 31.4689 14.1586C30.4939 14.1586 29.6781 13.8716 29.0217 13.2976C28.7067 13.0341 28.4548 12.7042 28.2845 12.3318C28.1142 11.9595 28.0296 11.5541 28.0371 11.1451C28.0371 10.2356 28.3832 9.51234 29.0754 8.97526C29.7676 8.43817 30.6917 8.16894 31.8477 8.16758C32.8344 8.16758 33.647 8.34695 34.2855 8.70569V8.3285C34.2874 8.04972 34.2268 7.77402 34.1081 7.5214C33.9894 7.26877 33.8155 7.04554 33.5992 6.86791C33.1597 6.47419 32.587 6.25937 31.9952 6.26625C31.067 6.26625 30.3325 6.65506 29.7917 7.43267L28.3281 6.51737C29.1332 5.3694 30.3246 4.79541 31.9024 4.79541ZM29.7525 11.181C29.7513 11.391 29.8008 11.5983 29.8966 11.7855C29.9925 11.9727 30.132 12.1344 30.3036 12.2572C30.6711 12.5443 31.1273 12.6964 31.5948 12.6877C32.296 12.6866 32.9682 12.4094 33.464 11.9169C34.0144 11.4024 34.2896 10.7987 34.2896 10.1058C33.7715 9.69581 33.049 9.49082 32.1222 9.49082C31.4472 9.49082 30.8843 9.65242 30.4337 9.97563C29.9785 10.3036 29.7525 10.7023 29.7525 11.181Z" fill="#5F6368"/>
<path d="M45 5.08228L39.4513 17.7458H37.7359L39.795 13.3149L36.1465 5.08228H37.9527L40.5898 11.3961H40.6259L43.1907 5.08228H45Z" fill="#5F6368"/>
<path d="M14.567 7.54841C14.5676 7.04551 14.5248 6.54348 14.439 6.04785H7.43091V8.89011H11.4448C11.3627 9.34406 11.1888 9.77679 10.9338 10.1622C10.6787 10.5476 10.3476 10.8778 9.96063 11.1328V12.9777H12.3562C13.7588 11.6934 14.567 9.79413 14.567 7.54841Z" fill="#4285F4"/>
<path d="M7.43112 14.7601C9.43652 14.7601 11.1251 14.1062 12.3564 12.9787L9.96084 11.1338C9.29409 11.5827 8.43537 11.8389 7.43112 11.8389C5.4928 11.8389 3.8476 10.5413 3.2593 8.79272H0.791504V10.6941C1.41002 11.9163 2.35844 12.9438 3.53089 13.6618C4.70334 14.3798 6.05367 14.7601 7.43112 14.7601Z" fill="#34A853"/>
<path d="M3.25909 8.79257C2.94807 7.87628 2.94807 6.88402 3.25909 5.96773V4.06641H0.791296C0.27098 5.09461 0 6.22941 0 7.38015C0 8.53089 0.27098 9.66569 0.791296 10.6939L3.25909 8.79257Z" fill="#FBBC04"/>
<path d="M7.43112 2.92166C8.49088 2.90447 9.5149 3.30211 10.2818 4.02864L12.4028 1.92231C11.0579 0.667821 9.27615 -0.0209163 7.43112 0.000484185C6.05367 0.000546529 4.70334 0.380806 3.53089 1.09881C2.35844 1.81681 1.41002 2.8443 0.791504 4.06656L3.2593 5.96789C3.8476 4.21928 5.4928 2.92166 7.43112 2.92166Z" fill="#EA4335"/>
</svg>
