<svg width="73" height="14" viewBox="0 0 73 14" fill="none" xmlns="http://www.w3.org/2000/svg">
<g clip-path="url(#clip0)">
<path fill-rule="evenodd" clip-rule="evenodd" d="M10.0429 7.00646C10.0429 9.07694 10.0429 11.1416 10.0429 13.2121C10.0429 13.4534 10.0743 13.423 9.8419 13.423C9.1351 13.423 8.4267 13.423 7.71749 13.423C7.67327 13.423 7.62663 13.423 7.58321 13.4188C7.55185 13.4188 7.53497 13.4015 7.53255 13.367C7.53255 13.3497 7.53095 13.3324 7.53095 13.3151C7.53095 13.2673 7.53095 13.2253 7.53095 13.1775C7.53095 9.80086 7.53095 6.42584 7.53095 3.04835C7.53095 2.79468 7.56231 2.82928 7.32349 2.82928C5.78849 2.82433 4.25589 2.82433 2.72089 2.82928C2.5062 2.82928 2.52067 2.7988 2.52067 3.02611C2.52067 6.42007 2.52067 9.81322 2.52067 13.2064C2.52067 13.2624 2.51906 13.3225 2.51665 13.3785C2.51665 13.404 2.49816 13.4172 2.47484 13.4172C2.44106 13.4213 2.4081 13.4213 2.37433 13.4213C1.63215 13.4213 0.889978 13.4213 0.147 13.4213C-0.00979765 13.4213 -0.00175677 13.4263 -0.000148595 13.2755C-0.000148595 13.2541 -0.000148595 13.2278 -0.000148595 13.2064C-0.000148595 9.06623 -0.000148595 4.92446 -0.000148595 0.77939C-0.000148595 0.72421 -0.000148595 0.667383 0.00226367 0.612204C0.00387185 0.586673 0.0191495 0.569377 0.0440763 0.569377C0.0842807 0.564436 0.122073 0.564436 0.161473 0.564436C3.40115 0.564436 6.64323 0.564436 9.88291 0.564436C9.91024 0.564436 9.93919 0.564436 9.96653 0.564436C10.0317 0.569377 10.0397 0.577613 10.0421 0.646794C10.0437 0.698679 10.0421 0.749741 10.0421 0.801626C10.0429 2.87292 10.0429 4.93928 10.0429 7.00646ZM34.3288 3.11341C34.0273 3.58614 33.7249 4.05805 33.4234 4.53161C33.3808 4.59997 33.3406 4.66832 33.2956 4.73339C33.2642 4.77621 33.2642 4.81492 33.2907 4.85692C33.3116 4.89563 33.3285 4.93928 33.3454 4.98128C33.6051 5.58003 33.737 6.20594 33.7587 6.85904C33.7756 7.42237 33.6976 7.9717 33.532 8.51279C32.8027 10.8625 30.4837 12.396 27.9717 11.9315C27.0727 11.7684 26.2815 11.3648 25.6004 10.7422C24.3139 9.56944 23.7293 7.82098 24.0421 6.09394C24.2761 4.79269 24.9266 3.74098 25.9671 2.95034C26.7101 2.38784 27.5487 2.07488 28.471 2.00158C28.5378 1.99746 28.5884 1.98017 28.6198 1.91593C28.6351 1.88628 28.6576 1.86075 28.6745 1.83028C29.0074 1.3106 29.341 0.786802 29.6699 0.267124C29.7077 0.207827 29.768 0.160059 29.764 0.0744072C29.7037 0.0398169 29.6345 0.0529941 29.5694 0.0447584C28.8377 -0.0375994 28.11 -0.00300915 27.3903 0.165001C25.7508 0.547964 24.4168 1.42343 23.3996 2.79798C22.6317 3.8291 22.1935 5.00187 22.0616 6.29077C22.0198 6.69433 22.0134 7.09788 22.0447 7.50637C22.0825 8.00876 22.1662 8.5029 22.3045 8.98387C23.0474 11.574 25.2587 13.6354 28.1277 13.9624C28.7026 14.0266 29.2775 14.0143 29.8476 13.9278C30.5416 13.8199 31.2041 13.614 31.8353 13.3002C33.8568 12.2996 35.436 10.2423 35.6644 7.61426C35.7311 6.86234 35.6797 6.11947 35.5076 5.38484C35.3122 4.55467 34.9833 3.78627 34.5162 3.07717C34.4912 3.04258 34.4735 2.99564 34.4221 2.97834C34.3907 3.01952 34.3602 3.06647 34.3288 3.11341ZM73.0047 4.55714C73.0159 5.10647 72.9468 5.63932 72.7763 6.15982C72.4322 7.22059 71.7406 7.94205 70.7283 8.34066C70.348 8.49137 69.9499 8.57703 69.5455 8.62479C69.2657 8.65444 68.9874 8.6635 68.7084 8.6635C68.2975 8.6635 67.885 8.6635 67.4717 8.6635C67.4315 8.6635 67.3937 8.6635 67.3543 8.6635C67.2876 8.66762 67.2747 8.67668 67.2707 8.74092C67.2707 8.78868 67.2707 8.83069 67.2707 8.87845C67.2707 10.3172 67.2707 11.756 67.2707 13.1948C67.2707 13.4567 67.3085 13.4221 67.0528 13.4221C66.3404 13.4221 65.6344 13.4221 64.9252 13.4221C64.7386 13.4221 64.7596 13.4353 64.7596 13.2418C64.7596 11.154 64.7596 9.06294 64.7596 6.97517C64.7596 4.90387 64.7571 2.83833 64.7596 0.76786C64.7596 0.536434 64.7322 0.561965 64.967 0.561965C66.1981 0.561965 67.4315 0.561965 68.665 0.566083C69.0678 0.566083 69.4659 0.600673 69.8639 0.660795C71.3635 0.89222 72.3968 1.97111 72.7916 3.22871C72.9275 3.65862 72.9966 4.10582 73.0047 4.55714ZM70.4509 4.26065C70.3464 3.65121 70.0215 3.20894 69.4627 2.95034C69.2279 2.84328 68.9786 2.78727 68.7229 2.75762C68.2678 2.70986 67.8087 2.73209 67.3519 2.72798C67.282 2.72798 67.2739 2.73621 67.2691 2.80539C67.2691 2.85234 67.2691 2.89928 67.2691 2.94293C67.2691 3.50131 67.2691 4.06299 67.2691 4.6222C67.2691 5.18059 67.2691 5.74392 67.2691 6.3023C67.2691 6.35007 67.2691 6.39207 67.2691 6.43984C67.2691 6.48267 67.2964 6.49502 67.3342 6.49914C67.3455 6.49914 67.3576 6.49914 67.368 6.49914C67.7813 6.49502 68.1914 6.49502 68.6047 6.49502C68.7792 6.49502 68.9513 6.46537 69.1185 6.42172C69.6203 6.29736 70.0094 6.01405 70.2507 5.54214C70.4597 5.13694 70.5313 4.71197 70.4509 4.26065ZM20.7598 5.16659C20.7204 5.55449 20.6424 5.93169 20.5081 6.29654C20.1576 7.25436 19.5119 7.92063 18.5912 8.30689C18.1867 8.47408 17.7646 8.57291 17.3312 8.62479C17.0417 8.65938 16.7522 8.6635 16.4628 8.66762C16.0559 8.66762 15.6466 8.66762 15.2397 8.66762C15.1955 8.66762 15.1521 8.66762 15.1055 8.66762C15.0741 8.66762 15.0548 8.68903 15.0532 8.72362C15.0516 8.77551 15.0516 8.82245 15.0516 8.87845C15.0516 10.3214 15.0516 11.7651 15.0516 13.2121C15.0516 13.4485 15.0829 13.423 14.8506 13.423C14.1478 13.423 13.4458 13.423 12.7406 13.423C12.5075 13.423 12.5412 13.4534 12.5412 13.208C12.5412 11.1375 12.5412 9.06376 12.5412 6.98834C12.5412 4.92116 12.5412 2.85151 12.5412 0.785978C12.5412 0.532317 12.5139 0.566083 12.7511 0.566083C13.9612 0.566083 15.1738 0.566083 16.3832 0.566083C16.7965 0.566083 17.2049 0.600673 17.6158 0.660795C19.1661 0.888102 20.2082 2.01393 20.5869 3.28554C20.7711 3.90404 20.8233 4.52667 20.7598 5.16659ZM18.2438 4.35948C18.1972 3.96005 18.0444 3.6125 17.7742 3.32425C17.5266 3.05823 17.2162 2.91163 16.8745 2.82598C16.5641 2.75351 16.2473 2.73621 15.9288 2.72798C15.69 2.72303 15.4504 2.72798 15.2092 2.72798C15.05 2.72798 15.0524 2.7148 15.0524 2.88281C15.0524 3.45766 15.0524 4.03746 15.0524 4.61397C15.0524 4.92281 15.0524 5.2333 15.0524 5.53802C15.0524 5.82957 15.0524 6.12194 15.054 6.41019C15.054 6.49255 15.062 6.49996 15.1376 6.49996C15.5678 6.49996 15.9948 6.49996 16.425 6.49584C16.5922 6.49173 16.7587 6.46125 16.9195 6.41843C17.5193 6.25948 17.9302 5.8864 18.1401 5.28436C18.2486 4.98705 18.2816 4.67738 18.2438 4.35948ZM46.6499 3.79204C46.6499 2.95034 46.6499 2.1037 46.6499 1.25789C46.6499 1.2233 46.6474 1.18953 46.6515 1.15494C46.6539 1.09976 46.6386 1.05611 46.5823 1.0347C46.5614 1.02646 46.5421 1.01411 46.5236 1.00093C45.7621 0.597379 44.9508 0.356894 44.0945 0.300067C43.325 0.244888 42.5579 0.291832 41.7988 0.459018C40.2984 0.793391 39.0882 1.59308 38.182 2.86387C37.4173 3.93863 37.037 5.14929 36.9517 6.46867C36.9156 7.03199 36.9308 7.59861 37.0121 8.16112C37.1045 8.81422 37.283 9.44178 37.5701 10.0339C38.0148 10.9572 38.654 11.7173 39.4332 12.3572C40.0354 12.8547 40.7085 13.2162 41.4506 13.4353C42.0754 13.6239 42.7146 13.7013 43.3652 13.7194C43.879 13.7326 44.388 13.689 44.8953 13.5901C45.4678 13.4831 46.0138 13.2904 46.5381 13.0276C46.6257 12.984 46.6515 12.9288 46.6515 12.83C46.6474 11.9455 46.6499 11.0609 46.6499 10.1756C46.6499 10.141 46.6627 10.1064 46.633 10.0809C46.5976 10.0726 46.5863 10.1023 46.5678 10.1245C46.5035 10.1929 46.4408 10.2662 46.3708 10.3304C45.7284 10.9654 44.9677 11.336 44.0808 11.4217C43.3909 11.4859 42.7219 11.3871 42.0802 11.1211C40.8902 10.6269 40.0716 9.76709 39.6736 8.50949C39.4766 7.89098 39.4235 7.25106 39.4806 6.59797C39.5329 6.03958 39.6672 5.51167 39.8963 5.00023C40.6594 3.32507 42.2611 2.40925 43.9891 2.58138C44.4418 2.6242 44.8744 2.74856 45.2869 2.94622C45.7525 3.16941 46.1602 3.47496 46.5116 3.85298C46.5494 3.89581 46.5767 3.94275 46.6442 3.97322C46.6555 3.90404 46.6499 3.84804 46.6499 3.79204ZM51.9287 13.2426C51.9287 13.4444 51.9078 13.423 52.1096 13.423C52.8076 13.423 53.5031 13.423 54.2027 13.423C54.2758 13.423 54.3699 13.4575 54.4246 13.3974C54.4704 13.3455 54.4415 13.2558 54.4415 13.1825C54.4439 9.82392 54.4439 6.46537 54.4439 3.10517C54.4439 3.02364 54.4125 2.92975 54.4624 2.87375C54.5147 2.81363 54.6095 2.84822 54.6843 2.84822C55.4804 2.84822 56.2804 2.84822 57.0781 2.84822C57.2413 2.84822 57.2349 2.85234 57.2349 2.68927C57.2349 2.05758 57.2349 1.4226 57.2349 0.786802C57.2325 0.554553 57.2614 0.580084 57.0266 0.580084C54.8628 0.580084 52.7006 0.580084 50.5344 0.580084C50.134 0.580084 49.7319 0.580084 49.3315 0.580084C49.2849 0.580084 49.2414 0.580084 49.1972 0.580084C49.1739 0.585025 49.157 0.605615 49.1546 0.627852C49.1506 0.662442 49.1506 0.697032 49.1506 0.730799C49.1506 1.3839 49.1506 2.03205 49.1506 2.68515C49.1506 2.83998 49.1441 2.83175 49.3017 2.83175C50.1026 2.83175 50.9059 2.83175 51.7108 2.83175C51.7558 2.83175 51.7992 2.8268 51.8451 2.83175C51.9126 2.83175 51.9255 2.84492 51.9271 2.90916C51.9295 2.96105 51.9295 3.01211 51.9295 3.06399C51.9295 4.75233 51.9295 6.44478 51.9295 8.13723C51.9287 9.83628 51.9287 11.5378 51.9287 13.2426ZM62.2564 0.785978C62.2564 0.729975 62.2564 0.673972 62.254 0.613851C62.2524 0.57926 62.2315 0.566083 62.2001 0.561965C62.1599 0.561965 62.1197 0.561965 62.0811 0.561965C61.3631 0.561965 60.645 0.561965 59.9254 0.561965C59.8876 0.561965 59.8474 0.561965 59.808 0.561965C59.7686 0.561965 59.7477 0.583378 59.7477 0.626204C59.7428 0.67809 59.7428 0.729152 59.7428 0.781037C59.7428 4.92116 59.7428 9.05882 59.7428 13.1989C59.7428 13.2467 59.7428 13.2937 59.7453 13.3365C59.7477 13.4098 59.7581 13.4188 59.8184 13.4221C59.8634 13.4221 59.9085 13.4221 59.9527 13.4221C60.6281 13.4221 61.3012 13.4221 61.9766 13.4221C62.0441 13.4221 62.1109 13.4221 62.1776 13.4221C62.2492 13.418 62.2556 13.4131 62.258 13.3447C62.258 13.2928 62.258 13.2418 62.258 13.1899C62.258 11.1194 62.258 9.05388 62.258 6.98752C62.2564 4.92199 62.2564 2.85151 62.2564 0.785978Z" fill="#004A8F"/>
<path fill-rule="evenodd" clip-rule="evenodd" d="M28.8781 9.2142C28.8781 8.97289 28.8781 8.7324 28.8781 8.49192C28.8781 8.45815 28.8781 8.42356 28.8798 8.38897C28.8822 8.35932 28.9007 8.33709 28.9304 8.33379C28.9706 8.32885 29.0084 8.32061 29.0478 8.3165C29.6388 8.24402 30.1028 7.70293 30.1317 7.10996C30.1655 6.4058 29.675 5.88118 29.1427 5.76505C28.4592 5.61434 27.8111 6.04425 27.6439 6.69734C27.6205 6.78711 27.6101 6.87771 27.6037 6.97242C27.5996 7.03666 27.5868 7.04572 27.52 7.04572C27.4935 7.04983 27.4662 7.04983 27.4364 7.04983C26.9757 7.04983 26.5125 7.04983 26.0486 7.04983C26.0108 7.04983 25.9706 7.04572 25.9328 7.04572C25.899 7.04572 25.8845 7.02019 25.8845 6.98971C25.8845 6.98148 25.8845 6.97654 25.8845 6.96912C25.9239 5.49986 26.9306 4.30979 28.2751 4.03801C29.9789 3.6987 31.4134 4.83276 31.7656 6.30285C32.15 7.89977 31.2317 9.51974 29.6903 9.97024C29.4531 10.0394 29.2118 10.0781 28.9674 10.0905C28.8918 10.0905 28.8798 10.0814 28.8798 10.0007C28.8781 9.73717 28.8781 9.47527 28.8781 9.2142Z" fill="#FFCB05"/>
</g>
<defs>
<clipPath id="clip0">
<rect width="73" height="14" fill="white"/>
</clipPath>
</defs>
</svg>
