<svg width="45" height="27" viewBox="0 0 45 27" fill="none" xmlns="http://www.w3.org/2000/svg">
<path d="M45 13.5C45 20.9077 38.9769 27 31.5 27C24.0923 27 18 20.9077 18 13.5C18 6.09231 24.0231 0 31.4308 0C38.9769 0 45 6.09231 45 13.5Z" fill="#F9B50B"/>
<path d="M26.9308 13.5692C26.9308 12.6 26.7923 11.6308 26.6539 10.7308H18.3462C18.4154 10.2462 18.5539 9.83077 18.6923 9.27693H26.1C25.9615 8.79231 25.7539 8.30769 25.5462 7.82308H19.2462C19.4538 7.33846 19.7308 6.92308 20.0077 6.36923H24.7846C24.5077 5.88462 24.1615 5.4 23.7462 4.91539H21.1154C21.5308 4.43077 21.9462 4.01539 22.5 3.53077C20.1462 1.31538 16.9615 0 13.4308 0C6.09231 0.207692 0 6.09231 0 13.5C0 20.9077 6.02308 27 13.5 27C17.0308 27 20.1462 25.6154 22.5692 23.4692C23.0539 23.0539 23.4692 22.5692 23.9538 22.0154H21.1846C20.8385 21.6 20.4923 21.1154 20.2154 20.6308H24.9231C25.2 20.2154 25.4769 19.7308 25.6846 19.1769H19.3846C19.1769 18.7615 18.9692 18.2769 18.8308 17.7231H26.2385C26.6539 16.4769 26.9308 15.0923 26.9308 13.5692Z" fill="#C8191C"/>
<path d="M18.2769 16.9614L18.4846 15.7152C18.4153 15.7152 18.2769 15.7845 18.1384 15.7845C17.6538 15.7845 17.5846 15.5075 17.6538 15.3691L18.0692 12.8768H18.8307L19.0384 11.4921H18.3461L18.4846 10.6614H17.0307C17.0307 10.6614 16.2 15.3691 16.2 15.9229C16.2 16.7537 16.6846 17.1691 17.3769 17.1691C17.7923 17.1691 18.1384 17.0306 18.2769 16.9614Z" fill="white"/>
<path d="M18.7615 14.6768C18.7615 16.6845 20.1461 17.1691 21.2538 17.1691C22.2922 17.1691 22.7769 16.9614 22.7769 16.9614L23.0538 15.5768C23.0538 15.5768 22.2922 15.923 21.5307 15.923C19.9384 15.923 20.2153 14.746 20.2153 14.746H23.123C23.123 14.746 23.3307 13.846 23.3307 13.4307C23.3307 12.5307 22.8461 11.3537 21.2538 11.3537C19.8692 11.2845 18.7615 12.8768 18.7615 14.6768ZM21.2538 12.5999C22.0153 12.5999 21.8769 13.4999 21.8769 13.5691H20.2846C20.3538 13.4999 20.4922 12.5999 21.2538 12.5999Z" fill="white"/>
<path d="M30.3231 16.9613L30.6 15.369C30.6 15.369 29.9077 15.7152 29.3539 15.7152C28.3846 15.7152 27.9 14.9536 27.9 14.0536C27.9 12.3228 28.7308 11.4228 29.7693 11.4228C30.4616 11.4228 31.0846 11.8382 31.0846 11.8382L31.2923 10.3151C31.2923 10.3151 30.4616 9.96899 29.6308 9.96899C27.9693 9.96899 26.377 11.4228 26.377 14.1228C26.377 15.9228 27.2077 17.0998 28.9385 17.0998C29.5616 17.169 30.3231 16.9613 30.3231 16.9613Z" fill="white"/>
<path d="M10.4539 11.2844C9.48468 11.2844 8.72314 11.5613 8.72314 11.5613L8.51545 12.8075C8.51545 12.8075 9.13852 12.5306 10.1078 12.5306C10.5924 12.5306 11.0078 12.5998 11.0078 13.0152C11.0078 13.2921 10.9385 13.3613 10.9385 13.3613H10.3154C9.06929 13.3613 7.75391 13.846 7.75391 15.5075C7.75391 16.8229 8.58468 17.0998 9.13852 17.0998C10.1078 17.0998 10.5924 16.4767 10.6616 16.4767L10.5924 17.0306H11.7693L12.3231 13.0844C12.3231 11.3537 10.9385 11.2844 10.4539 11.2844ZM10.7308 14.469C10.7308 14.6767 10.5924 15.8537 9.7616 15.8537C9.34621 15.8537 9.20775 15.5075 9.20775 15.2998C9.20775 14.9537 9.41544 14.469 10.5231 14.469C10.6616 14.469 10.7308 14.469 10.7308 14.469Z" fill="white"/>
<path d="M13.7078 17.0999C14.054 17.0999 15.854 17.1692 15.854 15.2307C15.854 13.4307 14.1232 13.7769 14.1232 13.0846C14.1232 12.7384 14.4001 12.5999 14.8847 12.5999C15.0924 12.5999 15.854 12.6692 15.854 12.6692L16.0617 11.3538C16.0617 11.3538 15.5771 11.2153 14.6771 11.2153C13.6386 11.2153 12.5309 11.6307 12.5309 13.0846C12.5309 14.7461 14.3309 14.6076 14.3309 15.2307C14.3309 15.6461 13.8463 15.7153 13.5001 15.7153C12.8771 15.7153 12.1847 15.5076 12.1847 15.5076L11.9771 16.823C12.1155 16.9615 12.5309 17.0999 13.7078 17.0999Z" fill="white"/>
<path d="M42.2309 10.177L41.9539 12.1155C41.9539 12.1155 41.4001 11.4232 40.5693 11.4232C39.2539 11.4232 38.1462 13.0155 38.1462 14.8847C38.1462 16.0616 38.7001 17.2385 39.9462 17.2385C40.777 17.2385 41.3309 16.6847 41.3309 16.6847L41.2616 17.1693H42.7155L43.7539 10.3155L42.2309 10.177ZM41.5385 13.9155C41.5385 14.677 41.1924 15.7155 40.3616 15.7155C39.877 15.7155 39.6001 15.3001 39.6001 14.5385C39.6001 13.3616 40.0847 12.6693 40.777 12.6693C41.2616 12.7385 41.5385 13.0847 41.5385 13.9155Z" fill="white"/>
<path d="M2.63095 17.0308L3.46172 11.9078L3.60018 17.0308H4.56942L6.43865 11.9078L5.67711 17.0308H7.20018L8.37711 10.177H6.02326L4.56942 14.4001L4.50018 10.177H2.42326L1.24634 17.0308H2.63095Z" fill="white"/>
<path d="M24.7847 17.0308C25.2001 14.6769 25.2693 12.7385 26.3078 13.0846C26.4462 12.1846 26.6539 11.7692 26.7924 11.4231H26.5155C25.8924 11.4231 25.3385 12.2539 25.3385 12.2539L25.477 11.4923H24.0924L23.1924 17.0308H24.7847Z" fill="white"/>
<path d="M33.646 11.2844C32.6768 11.2844 31.9153 11.5613 31.9153 11.5613L31.7076 12.8075C31.7076 12.8075 32.3307 12.5306 33.2999 12.5306C33.7845 12.5306 34.1999 12.5998 34.1999 13.0152C34.1999 13.2921 34.1307 13.3613 34.1307 13.3613H33.5076C32.2614 13.3613 30.946 13.846 30.946 15.5075C30.946 16.8229 31.7768 17.0998 32.3307 17.0998C33.2999 17.0998 33.7845 16.4767 33.8537 16.4767L33.7845 17.0306H35.0999L35.6537 13.0844C35.6537 11.3537 34.1307 11.2844 33.646 11.2844ZM33.9922 14.469C33.9922 14.6767 33.8537 15.8537 33.023 15.8537C32.6076 15.8537 32.4691 15.5075 32.4691 15.2998C32.4691 14.9537 32.6768 14.469 33.7845 14.469C33.923 14.469 33.923 14.469 33.9922 14.469Z" fill="white"/>
<path d="M36.7615 17.0308C37.1769 14.6769 37.2461 12.7385 38.2846 13.0846C38.423 12.1846 38.6307 11.7692 38.7692 11.4231H38.4923C37.8692 11.4231 37.3153 12.2539 37.3153 12.2539L37.4538 11.4923H36.0692L35.1692 17.0308H36.7615Z" fill="white"/>
</svg>
