<svg width="87" height="27" viewBox="0 0 87 27" fill="none" xmlns="http://www.w3.org/2000/svg">
<path d="M20.2618 14.6C20.5328 13.936 20.2618 13.096 19.6518 12.729C19.0418 12.363 18.5268 11.482 18.5128 10.763C18.4998 10.045 17.9028 9.394 17.1978 9.299V6.833C17.1978 3.064 14.1348 0 10.3528 0C6.58381 0 3.51981 3.064 3.51981 6.833V9.305C2.82681 9.413 2.24581 10.068 2.23181 10.764C2.21881 11.469 1.70381 12.364 1.09281 12.73C0.482813 13.109 0.211813 13.95 0.482813 14.601C0.767813 15.266 0.658813 16.282 0.252813 16.865C-0.153187 17.448 -0.059187 18.329 0.455813 18.817C0.984813 19.305 1.29681 20.268 1.16081 20.972C1.02481 21.663 1.45881 22.436 2.13681 22.667C2.81481 22.898 3.49181 23.656 3.65581 24.348C3.81881 25.039 4.53681 25.555 5.24181 25.5C5.94681 25.445 6.88181 25.853 7.31581 26.422C7.74981 26.991 8.61681 27.168 9.24081 26.829C9.87781 26.49 10.8948 26.49 11.5178 26.829C12.1418 27.168 12.9958 26.992 13.4298 26.422C13.8638 25.853 14.7988 25.446 15.5038 25.5C16.2088 25.554 16.9268 25.039 17.0898 24.348C17.2528 23.657 17.9308 22.898 18.6088 22.667C19.2728 22.437 19.7198 21.677 19.5848 20.972C19.4488 20.281 19.7748 19.305 20.2898 18.817C20.8048 18.329 20.8998 17.448 20.4928 16.865C20.0998 16.268 19.9908 15.251 20.2618 14.6ZM6.86881 6.833C6.86881 4.908 8.42781 3.349 10.3528 3.349C12.2778 3.349 13.8368 4.908 13.8368 6.833V7.12C13.7448 7.128 13.6538 7.145 13.5658 7.171C12.8748 7.374 11.8848 7.157 11.3428 6.696C10.8008 6.235 9.91881 6.235 9.37681 6.696C8.83381 7.158 7.84481 7.375 7.17981 7.171C7.07781 7.141 6.97381 7.124 6.86781 7.118V6.833H6.86881ZM10.3528 23.453C6.61081 23.453 3.57481 20.416 3.57481 16.675C3.57481 15.251 4.01581 13.93 4.76681 12.839C5.31781 12.039 6.03481 11.363 6.86981 10.862C7.88781 10.25 9.07981 9.897 10.3538 9.897C11.6278 9.897 12.8188 10.25 13.8378 10.862C14.6718 11.363 15.3898 12.039 15.9398 12.839C16.6908 13.93 17.1318 15.252 17.1318 16.675C17.1308 20.416 14.0938 23.453 10.3528 23.453ZM10.8128 12.228H14.7298C14.7298 12.228 14.4858 13.828 13.1298 13.828H11.1918C9.99881 13.828 9.53781 14.113 9.33481 14.248C8.99581 14.492 8.79281 14.817 8.65681 15.143C8.61581 15.279 8.50781 15.658 8.45381 15.997L8.27781 17.339C8.23681 17.637 8.22381 18.085 8.26381 18.288C8.35881 18.803 8.62981 19.088 9.06381 19.25C9.38981 19.372 9.85081 19.413 10.3248 19.413H13.8358C13.8358 19.413 13.6458 21.013 12.1138 21.013H9.47081C7.96581 21.013 6.94981 20.471 6.35281 19.806C5.85081 19.237 5.66181 18.45 5.78281 17.393L5.97281 15.861C6.24381 13.841 7.42381 12.648 9.60581 12.323C9.97281 12.269 10.3788 12.228 10.8128 12.228ZM74.8268 10.303C75.3008 10.845 75.4908 11.577 75.3688 12.54C75.3688 12.54 75.1798 14.14 75.1658 14.235C75.0838 14.75 74.9358 15.184 74.7318 15.55C74.3528 16.187 73.5928 17.19 70.8148 17.19H68.0758C67.1408 17.19 66.7068 16.851 66.7878 16.255L67.0858 14.018L67.3978 11.483H68.5638C69.4038 11.483 69.6208 12.201 69.5668 12.649L69.1878 15.727H70.5298C71.5468 15.727 72.6988 15.483 72.9018 13.883L73.0648 12.649C73.2818 11.104 72.5368 10.643 71.1538 10.643H69.8248H68.7808C67.8858 10.643 67.7098 9.979 67.6968 9.45V9.205H71.2488C73.0238 9.205 74.1898 9.584 74.8268 10.303ZM38.9838 9.029H38.5898C35.7978 9.056 34.3338 10.222 34.0218 12.445L33.8318 13.882C33.7098 14.872 33.8858 15.617 34.3738 16.159C34.9698 16.824 36.0138 17.311 37.5868 17.325H37.9798C40.7178 17.298 42.1688 16.173 42.5218 14.098L42.5488 13.949L42.7388 12.512C42.8608 11.482 42.6848 10.709 42.1828 10.153C41.5858 9.489 40.5418 9.042 38.9838 9.029ZM40.4338 12.513L40.2578 13.828C40.1768 14.411 40.0278 14.858 39.7698 15.197C39.4168 15.644 38.8888 15.915 38.1568 15.915H37.7368C37.0048 15.915 36.4758 15.658 36.2458 15.237C36.0968 14.925 36.0568 14.478 36.1378 13.882L36.3138 12.567C36.4088 11.862 36.6388 11.347 37.0048 10.981C37.3708 10.629 37.8728 10.466 38.4958 10.466H38.9028C39.3228 10.466 39.8928 10.534 40.2038 10.954C40.4478 11.306 40.5288 11.808 40.4338 12.513ZM85.6178 10.154C85.0208 9.489 83.9768 9.042 82.4178 9.029H82.0248C79.2328 9.056 77.7678 10.222 77.4568 12.445L77.2668 13.882C77.1448 14.872 77.3208 15.617 77.8088 16.159C78.4048 16.824 79.4488 17.311 81.0218 17.325H81.4148C84.1528 17.298 85.6038 16.173 85.9568 14.098L85.9838 13.949L86.1738 12.512C86.2818 11.482 86.1058 10.709 85.6178 10.154ZM83.8688 12.513L83.6928 13.828C83.6108 14.411 83.4628 14.858 83.2048 15.197C82.8518 15.644 82.3238 15.915 81.5918 15.915H81.1578C80.4258 15.915 79.8968 15.658 79.6668 15.237C79.5178 14.925 79.4778 14.478 79.5588 13.882L79.7348 12.567C79.8298 11.862 80.0598 11.347 80.4258 10.981C80.7788 10.629 81.2938 10.466 81.9168 10.466H82.3238C82.7438 10.466 83.3138 10.534 83.6248 10.954C83.8828 11.306 83.9638 11.808 83.8688 12.513ZM61.5008 9.029H61.1078C58.3158 9.056 56.8508 10.222 56.5398 12.445L56.3498 13.882C56.2278 14.872 56.4038 15.617 56.8918 16.159C57.4888 16.824 58.5328 17.311 60.1048 17.325H60.4988C63.2368 17.298 64.6868 16.173 65.0398 14.098L65.0668 13.949L65.2568 12.512C65.3788 11.482 65.2018 10.709 64.7008 10.153C64.1038 9.489 63.0738 9.042 61.5008 9.029ZM62.9648 12.513L62.7888 13.828C62.7068 14.411 62.5588 14.858 62.3008 15.197C61.9478 15.644 61.4198 15.915 60.6878 15.915H60.2678C59.5358 15.915 59.0068 15.658 58.7768 15.237C58.6278 14.925 58.5868 14.478 58.6678 13.882L58.8438 12.567C58.9388 11.862 59.1558 11.347 59.5348 10.981C59.9008 10.629 60.4028 10.466 61.0258 10.466H61.4328C61.8528 10.466 62.4228 10.534 62.7338 10.954C62.9788 11.306 63.0598 11.808 62.9648 12.513ZM53.9628 9.191H54.9798L54.1388 15.996C54.0978 16.321 53.9218 16.633 53.6778 16.85C53.5148 16.999 53.2308 17.162 52.8378 17.162H51.6858L52.2688 12.512L49.8558 15.562C49.7878 15.643 49.5578 15.901 49.2868 15.901H49.2598C49.0028 15.901 48.8128 15.643 48.7448 15.535L47.1588 12.512L46.7248 16.01C46.6838 16.335 46.5208 16.647 46.2638 16.864C46.1008 17.013 45.8158 17.176 45.4228 17.176H44.2298L45.2058 9.205H46.1818C46.8058 9.205 47.2258 9.354 47.4288 9.679L49.5848 13.136L52.6618 9.652C52.9198 9.354 53.3668 9.205 53.9628 9.191ZM29.6698 9.191H33.2618C33.2618 9.191 33.0318 10.641 31.7978 10.641H30.0218C28.9378 10.641 28.5028 10.899 28.3268 11.035C28.0148 11.252 27.8258 11.563 27.7028 11.848C27.6618 11.956 27.5678 12.309 27.5128 12.621L27.3498 13.841C27.3088 14.098 27.3088 14.505 27.3368 14.695C27.4318 15.169 27.6618 15.427 28.0688 15.576C28.3668 15.684 28.7868 15.725 29.2208 15.725H32.4068C32.4068 15.725 32.2438 17.189 30.8478 17.189H28.4348C27.0658 17.189 26.1438 16.688 25.6018 16.091C25.1408 15.576 24.9778 14.858 25.0868 13.895L25.2628 12.499C25.5198 10.669 26.5778 9.584 28.5708 9.286C28.9098 9.232 29.2758 9.205 29.6688 9.205V9.191H29.6698Z" fill="#C41230"/>
</svg>
