<svg width="82" height="38" viewBox="0 0 82 38" fill="none" xmlns="http://www.w3.org/2000/svg">
<path d="M14.5263 22.4209C14.2105 22.1841 13.8158 22.0262 13.421 21.9473C13.0263 21.7894 12.6316 21.7894 12.2368 21.7894C12 21.7894 11.7632 21.7894 11.5263 21.8683C11.2895 21.9473 11.1316 22.0262 10.9737 22.1052C10.8158 22.1841 10.6579 22.342 10.5789 22.4999C10.5 22.6578 10.421 22.8157 10.421 22.9736C10.421 23.1315 10.421 23.2894 10.5 23.3683C10.5789 23.4473 10.6579 23.6052 10.8158 23.6841C10.9737 23.7631 11.1316 23.842 11.3684 23.9209C11.6053 23.9999 11.8421 23.9999 12.0789 24.0788L12.6316 24.1578C12.9474 24.2367 13.2632 24.2367 13.5789 24.3946C13.8947 24.4736 14.1316 24.6315 14.3684 24.7894C14.6053 24.9473 14.8421 25.1841 14.921 25.421C15.0789 25.6578 15.1579 25.9736 15.1579 26.3683C15.1579 26.7631 15.0789 27.1578 14.921 27.4736C14.7632 27.7894 14.5263 28.0262 14.2105 28.2631C13.8947 28.4999 13.5789 28.6578 13.1842 28.7367C12.7895 28.8157 12.3947 28.8946 11.921 28.8946C11.6842 28.8946 11.3684 28.8946 11.0526 28.8157C10.7368 28.7367 10.5 28.7367 10.1842 28.5788C9.86841 28.4999 9.63157 28.342 9.39473 28.2631C9.15789 28.1052 8.92105 27.9473 8.6842 27.7894L9.39473 26.7631C9.55262 26.921 9.71052 26.9999 9.86841 27.0788C10.0263 27.1578 10.2632 27.3157 10.5 27.3946C10.7368 27.4736 10.9737 27.5525 11.2105 27.5525C11.4474 27.6315 11.6842 27.6315 11.921 27.6315C12.1579 27.6315 12.3947 27.6315 12.6316 27.5525C12.8684 27.4736 13.0263 27.3946 13.1842 27.3157C13.3421 27.2367 13.5 27.0788 13.5789 26.9209C13.6579 26.7631 13.7368 26.6052 13.7368 26.4473C13.7368 26.1315 13.5789 25.8946 13.2632 25.7367C12.9474 25.5788 12.4737 25.4209 11.921 25.342L11.5263 25.2631C11.2105 25.1841 10.9737 25.1841 10.6579 25.0262C10.3421 24.9473 10.1053 24.7894 9.86841 24.6315C9.63157 24.4736 9.47368 24.2367 9.31578 23.9999C9.15789 23.7631 9.07894 23.4473 9.07894 23.0525C9.07894 22.6578 9.15789 22.2631 9.31578 22.0262C9.47368 21.7104 9.71052 21.4736 10.0263 21.2367C10.3421 20.9999 10.6579 20.842 11.0526 20.7631C11.4474 20.6841 11.8421 20.6052 12.2368 20.6052C12.7895 20.6052 13.3421 20.6841 13.8158 20.842C14.2895 20.9999 14.6842 21.2367 15.1579 21.4736L14.5263 22.4209ZM18.9474 23.0525C19.3421 23.0525 19.6579 23.1315 19.9737 23.2894C20.2895 23.4473 20.5263 23.6052 20.7632 23.842C21 24.0788 21.1579 24.3946 21.3158 24.7104C21.4737 25.0262 21.4737 25.4209 21.4737 25.8946C21.4737 25.9736 21.4737 26.0525 21.4737 26.1315C21.4737 26.2104 21.4737 26.2894 21.4737 26.3683H17.4474C17.4474 26.6052 17.5263 26.842 17.6842 26.9999C17.7632 27.1578 17.921 27.3157 18.0789 27.3946C18.2368 27.4736 18.3947 27.5525 18.5526 27.6315C18.7105 27.7104 18.9474 27.7104 19.1053 27.7104C19.3421 27.7104 19.6579 27.6315 19.8947 27.5525C20.1316 27.4736 20.4474 27.3157 20.6842 27.1578L21.3158 28.0262C21 28.342 20.6053 28.4999 20.2895 28.6578C19.8947 28.7367 19.5 28.8157 19.1053 28.8157C18.7105 28.8157 18.3158 28.7367 18 28.5788C17.6842 28.421 17.3684 28.2631 17.1316 28.0262C16.8947 27.7894 16.6579 27.4736 16.5789 27.1578C16.421 26.842 16.3421 26.4473 16.3421 25.9736C16.3421 25.5788 16.421 25.1841 16.5789 24.7894C16.7368 24.4736 16.8947 24.1578 17.1316 23.842C17.3684 23.6052 17.6842 23.3683 18 23.2894C18.1579 23.1315 18.4737 23.0525 18.9474 23.0525ZM18.8684 24.1578C18.6316 24.1578 18.4737 24.1578 18.3158 24.2367C18.1579 24.3157 18 24.3946 17.921 24.5525C17.7632 24.7104 17.6842 24.7894 17.6053 24.9473C17.5263 25.1052 17.4474 25.2631 17.4474 25.4999H20.2895C20.2105 25.1052 20.0526 24.7104 19.8158 24.4736C19.5789 24.2367 19.2632 24.1578 18.8684 24.1578ZM25.1842 23.0525C25.5789 23.0525 25.9737 23.1315 26.2895 23.2894C26.6053 23.4473 26.921 23.6841 27.1579 23.9209L26.3684 24.7104C26.2105 24.5525 25.9737 24.3946 25.7368 24.3157C25.5 24.2367 25.2632 24.1578 25.0263 24.1578C24.7895 24.1578 24.5526 24.2367 24.3947 24.3157C24.1579 24.3946 24 24.5525 23.921 24.7104C23.7632 24.8683 23.6842 25.0262 23.6053 25.2631C23.5263 25.4999 23.4474 25.7367 23.4474 25.9736C23.4474 26.2104 23.5263 26.4473 23.6053 26.6841C23.6842 26.9209 23.7632 27.0788 23.921 27.2367C24.0789 27.3946 24.2368 27.4736 24.3947 27.6315C24.5526 27.7104 24.7895 27.7894 25.0263 27.7894C25.2632 27.7894 25.5 27.7104 25.7368 27.6315C25.9737 27.5525 26.1316 27.3946 26.3684 27.2367L27.0789 28.0262C26.8421 28.342 26.5263 28.4999 26.2105 28.6578C25.8947 28.8157 25.5 28.8946 25.1053 28.8946C24.7105 28.8946 24.3158 28.8157 23.921 28.6578C23.6053 28.4999 23.2895 28.342 23.0526 28.0262C22.8158 27.7894 22.5789 27.4736 22.5 27.0788C22.3421 26.7631 22.2632 26.3683 22.2632 25.9736C22.2632 25.5788 22.3421 25.1841 22.5 24.8683C22.6579 24.5525 22.8158 24.2367 23.0526 23.9209C23.2895 23.6841 23.6053 23.4473 23.921 23.2894C24.3947 23.1315 24.7895 23.0525 25.1842 23.0525ZM33.3947 26.3683C33.3947 26.7631 33.3158 27.1578 33.1579 27.4736C33 27.7894 32.8421 28.0262 32.6053 28.2631C32.3684 28.4999 32.1316 28.5788 31.8158 28.7367C31.5 28.8157 31.1842 28.8946 30.8684 28.8946C30.5526 28.8946 30.2368 28.8157 29.921 28.7367C29.6053 28.6578 29.3684 28.4999 29.1316 28.2631C28.8947 28.1052 28.7368 27.7894 28.5789 27.4736C28.421 27.1578 28.3421 26.7631 28.3421 26.3683V23.2104H29.5263V26.2104C29.5263 26.4473 29.5263 26.6841 29.6053 26.842C29.6842 26.9999 29.7632 27.1578 29.921 27.3157C30.0789 27.3946 30.1579 27.4736 30.3158 27.5525C30.4737 27.6315 30.6316 27.6315 30.8684 27.6315C31.0263 27.6315 31.2632 27.6315 31.421 27.5525C31.5789 27.4736 31.7368 27.3946 31.8158 27.3157C31.9737 27.2367 32.0526 27.0788 32.1316 26.842C32.2105 26.6841 32.2105 26.4473 32.2105 26.2104V23.2104H33.3947V26.3683ZM37.7368 23.0525C37.8947 23.0525 38.0526 23.0525 38.2105 23.0525C38.3684 23.0525 38.5263 23.1315 38.6053 23.1315L38.2895 24.3157C38.1316 24.2367 38.0526 24.2367 37.8158 24.1578C37.6579 24.1578 37.5 24.0788 37.3421 24.0788C37.1842 24.0788 36.9474 24.0788 36.7895 24.1578C36.6316 24.2367 36.4737 24.3157 36.3947 24.4736C36.3158 24.6315 36.1579 24.7894 36.1579 24.9473C36.0789 25.1052 36.0789 25.342 36.0789 25.5788V28.5788H34.8947V23.1315H36.0789V23.7631C36.2368 23.5262 36.4737 23.2894 36.7895 23.2104C37.0263 23.1315 37.3421 23.0525 37.7368 23.0525ZM41.6842 23.0525C42.0789 23.0525 42.3947 23.1315 42.7105 23.2894C43.0263 23.4473 43.2632 23.6052 43.5 23.842C43.7368 24.0788 43.8947 24.3946 44.0526 24.7104C44.2105 25.0262 44.2105 25.4209 44.2105 25.8946C44.2105 25.9736 44.2105 26.0525 44.2105 26.1315C44.2105 26.2104 44.2105 26.2894 44.2105 26.3683H40.2632C40.2632 26.6052 40.3421 26.842 40.5 26.9999C40.5789 27.1578 40.7368 27.3157 40.8947 27.3946C41.0526 27.4736 41.2105 27.5525 41.3684 27.6315C41.5263 27.7104 41.7632 27.7104 41.921 27.7104C42.1579 27.7104 42.4737 27.6315 42.7105 27.5525C42.9474 27.4736 43.2632 27.3157 43.5 27.1578L44.0526 28.0262C43.7368 28.342 43.3421 28.4999 43.0263 28.6578C42.6316 28.7367 42.2368 28.8157 41.8421 28.8157C41.4474 28.8157 41.0526 28.7367 40.7368 28.5788C40.421 28.421 40.1053 28.2631 39.8684 28.0262C39.6316 27.7894 39.3947 27.4736 39.3158 27.1578C39.1579 26.842 39.0789 26.4473 39.0789 25.9736C39.0789 25.5788 39.1579 25.1841 39.3158 24.7894C39.4737 24.4736 39.6316 24.1578 39.8684 23.842C40.1053 23.6052 40.421 23.3683 40.7368 23.2894C40.8947 23.1315 41.2895 23.0525 41.6842 23.0525ZM41.6842 24.1578C41.4474 24.1578 41.2895 24.1578 41.1316 24.2367C40.9737 24.3157 40.8158 24.3946 40.7368 24.5525C40.5789 24.7104 40.5 24.7894 40.421 24.9473C40.3421 25.1052 40.2632 25.2631 40.2632 25.4999H43.1053C43.0263 25.1052 42.8684 24.7104 42.6316 24.4736C42.3947 24.2367 42.0789 24.1578 41.6842 24.1578ZM49.421 20.5262C49.7368 20.5262 50.1316 20.5262 50.4474 20.6052C50.7632 20.6841 51.0789 20.7631 51.3947 20.921C51.7105 21.0788 51.9474 21.2367 52.1842 21.4736C52.421 21.7104 52.5789 21.9473 52.7368 22.1841L51.6316 22.8946C51.3947 22.4999 51.0789 22.2631 50.6842 22.0262C50.2895 21.7894 49.8947 21.7104 49.421 21.7104C49.0263 21.7104 48.6316 21.7894 48.3158 21.9473C48 22.1052 47.6842 22.2631 47.4474 22.5788C47.2105 22.8157 46.9737 23.1315 46.8947 23.5262C46.7368 23.9209 46.6579 24.2367 46.6579 24.7104C46.6579 25.1052 46.7368 25.4999 46.8947 25.8946C47.0526 26.2894 47.2105 26.5262 47.4474 26.842C47.6842 27.0788 48 27.3157 48.3158 27.3946C48.6316 27.5525 49.0263 27.6315 49.421 27.6315C49.8947 27.6315 50.2895 27.5525 50.6842 27.3157C51.0789 27.0788 51.3947 26.842 51.6316 26.4473L52.6579 27.2367C52.5 27.4736 52.2632 27.7104 52.0263 27.9473C51.7895 28.1841 51.5526 28.342 51.2368 28.421C50.921 28.5788 50.6842 28.6578 50.3684 28.7367C50.0526 28.8157 49.7368 28.8157 49.3421 28.8157C48.7105 28.8157 48.1579 28.7367 47.6842 28.4999C47.2105 28.2631 46.7368 28.0262 46.3421 27.6315C45.9474 27.2367 45.7105 26.842 45.4737 26.2894C45.2368 25.8157 45.1579 25.2631 45.1579 24.6315C45.1579 23.9999 45.2368 23.4473 45.4737 22.9736C45.7105 22.4999 45.9474 22.0262 46.3421 21.6315C46.7368 21.2367 47.1316 20.9999 47.6842 20.7631C48.2368 20.6841 48.7895 20.5262 49.421 20.5262ZM56.4474 23.0525C56.8421 23.0525 57.2368 23.1315 57.6316 23.2894C58.0263 23.4473 58.2631 23.6052 58.5789 23.9209C58.8158 24.1578 59.0526 24.4736 59.2105 24.8683C59.3684 25.1841 59.4474 25.5788 59.4474 25.9736C59.4474 26.3683 59.3684 26.7631 59.2105 27.0788C59.0526 27.3946 58.8947 27.7104 58.5789 28.0262C58.3421 28.2631 58.0263 28.4999 57.6316 28.6578C57.2368 28.8157 56.921 28.8946 56.4474 28.8946C56.0526 28.8946 55.6579 28.8157 55.2632 28.6578C54.8684 28.4999 54.6316 28.342 54.3158 28.0262C54.0789 27.7894 53.8421 27.4736 53.6842 27.0788C53.5263 26.7631 53.4474 26.3683 53.4474 25.9736C53.4474 25.5788 53.5263 25.1841 53.6842 24.8683C53.8421 24.5525 54 24.2367 54.3158 23.9209C54.5526 23.6841 54.8684 23.4473 55.2632 23.2894C55.6579 23.1315 56.0526 23.0525 56.4474 23.0525ZM56.4474 24.1578C56.2105 24.1578 55.9737 24.2367 55.7368 24.3157C55.5 24.3946 55.3421 24.5525 55.1842 24.7104C55.0263 24.8683 54.9474 25.0262 54.7895 25.2631C54.7105 25.4999 54.6316 25.7367 54.6316 25.9736C54.6316 26.2104 54.7105 26.4473 54.7895 26.6841C54.8684 26.9209 55.0263 27.0788 55.1842 27.2367C55.3421 27.3946 55.5 27.4736 55.7368 27.6315C55.9737 27.7104 56.2105 27.7894 56.4474 27.7894C56.6842 27.7894 56.9211 27.7104 57.1579 27.6315C57.3947 27.5525 57.5526 27.3946 57.7105 27.2367C57.8684 27.0788 57.9474 26.9209 58.1053 26.6841C58.1842 26.4473 58.2632 26.2104 58.2632 25.9736C58.2632 25.7367 58.1842 25.4999 58.1053 25.2631C58.0263 25.0262 57.8684 24.8683 57.7105 24.7104C57.5526 24.5525 57.3947 24.4736 57.1579 24.3157C56.9211 24.2367 56.6842 24.1578 56.4474 24.1578ZM63 23.0525C63.3947 23.0525 63.7105 23.1315 64.0263 23.2894C64.3421 23.4473 64.5789 23.6052 64.7368 23.842V20.4473H65.921V28.6578H64.7368V28.0262C64.5789 28.2631 64.3421 28.4999 64.0263 28.5788C63.7105 28.7367 63.3947 28.8157 63 28.8157C62.6053 28.8157 62.2895 28.7367 61.8947 28.5788C61.5789 28.421 61.2632 28.2631 61.0263 27.9473C60.7895 27.7104 60.5526 27.3946 60.4737 26.9999C60.3158 26.6841 60.2368 26.2894 60.2368 25.8157C60.2368 25.421 60.3158 25.0262 60.4737 24.6315C60.6316 24.3157 60.7895 23.9999 61.0263 23.6841C61.2632 23.4473 61.5789 23.2104 61.8947 23.0525C62.2105 23.1315 62.6053 23.0525 63 23.0525ZM63.0789 24.1578C62.8421 24.1578 62.6053 24.2367 62.3684 24.3157C62.1316 24.3946 61.9737 24.5525 61.8158 24.7104C61.6579 24.8683 61.5789 25.0262 61.5 25.2631C61.4211 25.4999 61.4211 25.7367 61.4211 25.9736C61.4211 26.2104 61.4211 26.4473 61.5 26.6841C61.5789 26.9209 61.6579 27.0788 61.8158 27.2367C61.9737 27.3946 62.1316 27.5525 62.3684 27.6315C62.6053 27.7104 62.7632 27.7894 63.0789 27.7894C63.3158 27.7894 63.5526 27.7104 63.7895 27.6315C64.0263 27.5525 64.1842 27.3946 64.3421 27.2367C64.5 27.0788 64.5789 26.9209 64.6579 26.6841C64.7368 26.4473 64.8158 26.2104 64.8158 25.9736C64.8158 25.7367 64.7368 25.4999 64.6579 25.2631C64.5789 25.0262 64.5 24.8683 64.3421 24.7104C64.1842 24.5525 64.0263 24.3946 63.7895 24.3157C63.5526 24.2367 63.3947 24.1578 63.0789 24.1578ZM69.8684 23.0525C70.2632 23.0525 70.5789 23.1315 70.8947 23.2894C71.2105 23.4473 71.4474 23.6052 71.6842 23.842C71.9211 24.0788 72.0789 24.3946 72.2368 24.7104C72.3947 25.0262 72.3947 25.4209 72.3947 25.8946C72.3947 25.9736 72.3947 26.0525 72.3947 26.1315C72.3947 26.2104 72.3947 26.2894 72.3947 26.3683H68.3684C68.3684 26.6052 68.4474 26.842 68.6053 26.9999C68.6842 27.1578 68.8421 27.3157 69 27.3946C69.1579 27.4736 69.3158 27.5525 69.4737 27.6315C69.6316 27.7104 69.8684 27.7104 70.0263 27.7104C70.2632 27.7104 70.5789 27.6315 70.8158 27.5525C71.0526 27.4736 71.3684 27.3157 71.6053 27.1578L72.1579 28.0262C71.8421 28.342 71.4474 28.4999 71.1316 28.6578C70.7368 28.7367 70.3421 28.8157 69.9474 28.8157C69.5526 28.8157 69.1579 28.7367 68.8421 28.5788C68.5263 28.421 68.2105 28.2631 67.9737 28.0262C67.7368 27.7894 67.5 27.4736 67.4211 27.1578C67.2632 26.842 67.1842 26.4473 67.1842 25.9736C67.1842 25.5788 67.2632 25.1841 67.4211 24.7894C67.5789 24.4736 67.7368 24.1578 67.9737 23.842C68.2105 23.6052 68.5263 23.3683 68.8421 23.2894C69.0789 23.1315 69.4737 23.0525 69.8684 23.0525ZM72.9474 28.6578V28.421H73.0263V28.342H72.7105V28.421H72.7895L72.9474 28.6578ZM73.5 28.6578V28.342H73.4211L73.3421 28.5788L73.2632 28.342H73.1842V28.6578H73.2632V28.421L73.3421 28.6578H73.4211L73.5 28.421V28.6578ZM69.7895 24.1578C69.5526 24.1578 69.3947 24.1578 69.2368 24.2367C69.0789 24.3157 68.921 24.3946 68.8421 24.5525C68.6842 24.7104 68.6053 24.7894 68.5263 24.9473C68.4474 25.1052 68.3684 25.2631 68.3684 25.4999H71.2105C71.1316 25.1052 70.9737 24.7104 70.7368 24.4736C70.5 24.2367 70.1842 24.1578 69.7895 24.1578Z" fill="#F59E1F"/>
<path d="M18.4739 17.4472H17.1318V10.6577L14.7634 16.5788H13.3423L10.895 10.6577V17.3683H9.55286V9.15774H11.6055L13.9739 15.0788L16.3423 9.15774H18.395V17.4472H18.4739ZM25.5002 17.4472H24.2371V16.7367C24.0792 16.9735 23.7634 17.2104 23.5265 17.3683C23.2108 17.5262 22.895 17.6051 22.5002 17.6051C22.1055 17.6051 21.7108 17.5262 21.395 17.3683C21.0792 17.2104 20.7634 17.0525 20.5265 16.7367C20.2897 16.4998 20.0529 16.1841 19.895 15.7893C19.7371 15.3946 19.6581 14.9998 19.6581 14.6051C19.6581 14.2104 19.7371 13.7367 19.895 13.4209C20.0529 13.0262 20.2108 12.7104 20.5265 12.4735C20.7634 12.2367 21.0792 11.9998 21.395 11.842C21.7108 11.6841 22.1055 11.6051 22.5002 11.6051C22.895 11.6051 23.2897 11.6841 23.5265 11.842C23.8423 11.9998 24.0792 12.1577 24.2371 12.4735V11.763H25.5002V17.4472ZM22.6581 12.7893C22.4213 12.7893 22.1844 12.8683 21.9476 12.9472C21.7108 13.0262 21.5529 13.1841 21.395 13.342C21.2371 13.4998 21.1581 13.6577 21.0792 13.8946C21.0002 14.1314 21.0002 14.3683 21.0002 14.6051C21.0002 14.842 21.0002 15.0788 21.0792 15.3156C21.1581 15.5525 21.2371 15.7104 21.395 15.8683C21.5529 16.0262 21.7108 16.1841 21.9476 16.263C22.1844 16.342 22.4213 16.4209 22.6581 16.4209C22.895 16.4209 23.1318 16.342 23.3686 16.263C23.6055 16.1841 23.7634 16.0262 23.9213 15.8683C24.0792 15.7104 24.1581 15.5525 24.2371 15.3156C24.316 15.0788 24.395 14.842 24.395 14.6051C24.395 14.3683 24.316 14.1314 24.2371 13.8946C24.1581 13.6577 24.0002 13.4998 23.9213 13.342C23.7634 13.1841 23.6055 13.0262 23.3686 12.9472C23.1318 12.7893 22.895 12.7893 22.6581 12.7893ZM31.1844 13.1841C31.1055 13.1051 31.0265 13.1051 30.8686 13.0262C30.7108 12.9472 30.6318 12.9472 30.4739 12.8683C30.316 12.7893 30.1581 12.7893 30.0002 12.7893C29.8423 12.7893 29.6844 12.7104 29.4476 12.7104C29.1318 12.7104 28.816 12.7893 28.6581 12.8683C28.5002 13.0262 28.3423 13.1841 28.3423 13.342C28.3423 13.4209 28.3423 13.4998 28.4213 13.5788C28.5002 13.6577 28.5002 13.7367 28.6581 13.7367C28.7371 13.8156 28.816 13.8156 28.9739 13.8156C29.0529 13.8156 29.2108 13.8946 29.3686 13.8946L29.9213 13.9735C30.5529 14.0525 31.0265 14.2104 31.3423 14.5262C31.6581 14.763 31.895 15.1577 31.895 15.6314C31.895 15.8683 31.816 16.1841 31.7371 16.342C31.6581 16.5788 31.4213 16.7367 31.2634 16.8946C31.0265 17.0525 30.7897 17.2104 30.4739 17.2893C30.1581 17.3683 29.7634 17.4472 29.3686 17.4472C29.2108 17.4472 29.0529 17.4472 28.895 17.4472C28.7371 17.4472 28.5002 17.3683 28.2634 17.3683C28.0265 17.2893 27.7897 17.2104 27.6318 17.1314C27.395 17.0525 27.1581 16.8946 27.0002 16.7367L27.5529 15.7893C27.6318 15.8683 27.7897 15.9472 27.8686 16.0262C28.0265 16.1051 28.1055 16.1841 28.2634 16.1841C28.4213 16.263 28.5792 16.263 28.7371 16.342C28.895 16.342 29.1318 16.4209 29.3686 16.4209C29.7634 16.4209 30.0792 16.342 30.316 16.263C30.5529 16.1051 30.6318 15.9472 30.6318 15.7893C30.6318 15.6314 30.5529 15.4735 30.395 15.3946C30.2371 15.3156 30.0002 15.2367 29.6844 15.1577L29.1318 15.0788C28.5002 14.9998 28.0265 14.842 27.7108 14.5262C27.395 14.2104 27.2371 13.8946 27.2371 13.4209C27.2371 13.1051 27.316 12.8683 27.395 12.6314C27.4739 12.3946 27.6318 12.2367 27.8686 12.0788C28.1055 11.9209 28.3423 11.842 28.5792 11.6841C28.895 11.6051 29.2108 11.5262 29.5265 11.5262C30.0002 11.5262 30.395 11.6051 30.7897 11.6841C31.1844 11.763 31.5002 11.9209 31.816 12.1577L31.1844 13.1841ZM37.0265 12.8683H34.895V15.3156C34.895 15.4735 34.895 15.6314 34.9739 15.7893C35.0529 15.9472 35.0529 16.0262 35.1318 16.1051C35.2108 16.1841 35.2897 16.263 35.4476 16.263C35.5265 16.263 35.6844 16.342 35.7634 16.342C35.9213 16.342 36.1581 16.342 36.316 16.263C36.5529 16.1841 36.7108 16.1051 36.8686 16.0262L37.3423 16.9735C37.1055 17.1314 36.8686 17.2893 36.5529 17.3683C36.2371 17.4472 35.9213 17.5262 35.6055 17.5262C34.9739 17.5262 34.5002 17.3683 34.1055 16.9735C33.7108 16.5788 33.5529 16.0262 33.5529 15.3156V12.7893H32.4476V11.6841H33.5529V9.94721H34.816V11.6841H36.9476V12.8683H37.0265ZM40.816 11.6051C41.2108 11.6051 41.6055 11.6841 41.9213 11.842C42.2371 11.9998 42.5529 12.1577 42.7897 12.4735C43.0265 12.7104 43.1844 13.0262 43.3423 13.4209C43.5002 13.8156 43.5792 14.2104 43.5792 14.6051C43.5792 14.6841 43.5792 14.763 43.5792 14.842C43.5792 14.9209 43.5792 14.9998 43.5792 15.0788H39.395C39.395 15.3156 39.4739 15.5525 39.6318 15.7104C39.7108 15.8683 39.8686 16.0262 40.0265 16.1841C40.1844 16.263 40.3423 16.4209 40.5002 16.4209C40.6581 16.4998 40.895 16.4998 41.0529 16.4998C41.3686 16.4998 41.6055 16.4209 41.9213 16.342C42.2371 16.263 42.4739 16.1051 42.7108 15.8683L43.3423 16.7367C43.0265 17.0525 42.6318 17.2104 42.2371 17.3683C41.8423 17.4472 41.4476 17.5262 40.9739 17.5262C40.5792 17.5262 40.1844 17.4472 39.7897 17.2893C39.4739 17.1314 39.1581 16.9735 38.8423 16.6577C38.6055 16.4209 38.3686 16.1051 38.2108 15.7104C38.0529 15.3156 37.9739 14.9209 37.9739 14.5262C37.9739 14.0525 38.0529 13.6577 38.2108 13.342C38.3686 12.9472 38.5265 12.6314 38.7634 12.3946C39.0002 12.1577 39.316 11.9209 39.6318 11.763C40.0265 11.6841 40.4213 11.6051 40.816 11.6051ZM40.816 12.7104C40.5792 12.7104 40.4213 12.7104 40.2634 12.7893C40.1055 12.8683 39.9476 12.9472 39.7897 13.1051C39.6318 13.263 39.5529 13.342 39.4739 13.5788C39.395 13.7367 39.316 13.9735 39.316 14.1314H42.2371C42.1581 13.6577 42.0002 13.342 41.7634 13.1051C41.5265 12.7893 41.2108 12.7104 40.816 12.7104ZM47.7634 11.6051C47.9213 11.6051 48.1581 11.6051 48.2371 11.6051C48.395 11.6051 48.5529 11.6841 48.7108 11.763L48.395 12.9472C48.2371 12.8683 48.0792 12.8683 47.9213 12.7893C47.7634 12.7893 47.6055 12.7104 47.4476 12.7104C47.2897 12.7104 47.0529 12.7104 46.895 12.7893C46.7371 12.8683 46.5792 12.9472 46.5002 13.1051C46.4213 13.263 46.2634 13.4209 46.1844 13.5788C46.1055 13.7367 46.1055 13.9735 46.1055 14.2104V17.2893H44.8423V11.6051H46.0265V12.2367C46.1844 11.9998 46.4213 11.763 46.7371 11.6051C47.1318 11.6841 47.4476 11.6051 47.7634 11.6051ZM52.0265 11.6051C52.4213 11.6051 52.816 11.6841 53.2108 11.842C53.6055 11.9998 53.9213 12.2367 54.1581 12.5525L53.3686 13.4209C53.1318 13.263 52.9739 13.1051 52.7371 12.9472C52.5002 12.8683 52.2634 12.7893 52.0265 12.7893C51.7897 12.7893 51.5529 12.8683 51.395 12.9472C51.1581 13.0262 51.0002 13.1841 50.8423 13.342C50.6844 13.4998 50.6055 13.6577 50.5265 13.8946C50.4476 14.1314 50.3686 14.3683 50.3686 14.6051C50.3686 14.842 50.4476 15.0788 50.5265 15.3156C50.6055 15.5525 50.7634 15.7104 50.8423 15.8683C51.0002 16.0262 51.1581 16.1841 51.395 16.263C51.6318 16.342 51.7897 16.4209 52.0265 16.4209C52.2634 16.4209 52.5792 16.342 52.816 16.263C53.0529 16.1841 53.2897 16.0262 53.4476 15.8683L54.2371 16.7367C54.0002 17.0525 53.6844 17.2893 53.2897 17.4472C52.895 17.6051 52.5002 17.6841 52.1055 17.6841C51.6318 17.6841 51.2371 17.6051 50.9213 17.4472C50.5265 17.2893 50.2108 17.0525 49.9739 16.8156C49.7371 16.5788 49.5002 16.263 49.3423 15.8683C49.1844 15.4735 49.1055 15.0788 49.1055 14.6841C49.1055 14.2893 49.1844 13.8946 49.3423 13.4998C49.5002 13.1051 49.6581 12.7893 49.9739 12.5525C50.2108 12.3156 50.5265 12.0788 50.9213 11.9209C51.1581 11.6841 51.5529 11.6051 52.0265 11.6051ZM60.7108 17.4472H59.4476V16.7367C59.2897 16.9735 58.9739 17.2104 58.7371 17.3683C58.4213 17.5262 58.1055 17.6051 57.7108 17.6051C57.316 17.6051 56.9213 17.5262 56.6055 17.3683C56.2897 17.2104 55.9739 17.0525 55.7371 16.7367C55.5002 16.4998 55.2634 16.1841 55.1055 15.7893C54.9476 15.3946 54.8686 14.9998 54.8686 14.6051C54.8686 14.2104 54.9476 13.7367 55.1055 13.4209C55.2634 13.0262 55.4213 12.7104 55.7371 12.4735C55.9739 12.2367 56.2897 11.9998 56.6055 11.842C56.9213 11.6841 57.316 11.6051 57.7108 11.6051C58.1055 11.6051 58.5002 11.6841 58.7371 11.842C59.0529 11.9998 59.2897 12.1577 59.4476 12.4735V11.763H60.7108V17.4472ZM57.8687 12.7893C57.6318 12.7893 57.395 12.8683 57.1581 12.9472C56.9213 13.0262 56.7634 13.1841 56.6055 13.342C56.4476 13.4998 56.3687 13.6577 56.2897 13.8946C56.2108 14.1314 56.2108 14.3683 56.2108 14.6051C56.2108 14.842 56.2897 15.0788 56.2897 15.3156C56.3687 15.5525 56.4476 15.7104 56.6055 15.8683C56.7634 16.0262 56.9213 16.1841 57.1581 16.263C57.395 16.342 57.6318 16.4209 57.8687 16.4209C58.1055 16.4209 58.3423 16.342 58.5792 16.263C58.816 16.1841 58.9739 16.0262 59.1318 15.8683C59.2897 15.7104 59.3687 15.5525 59.4476 15.3156C59.5265 15.0788 59.6055 14.842 59.6055 14.6051C59.6055 14.3683 59.5265 14.1314 59.4476 13.8946C59.3687 13.6577 59.2108 13.4998 59.1318 13.342C58.9739 13.1841 58.816 13.0262 58.5792 12.9472C58.3423 12.7893 58.1055 12.7893 57.8687 12.7893ZM65.3687 11.6051C65.5265 11.6051 65.7634 11.6051 65.8423 11.6051C66.0002 11.6051 66.1581 11.6841 66.316 11.763L66.0002 12.9472C65.8423 12.8683 65.6844 12.8683 65.5265 12.7893C65.3686 12.7893 65.2108 12.7104 65.0529 12.7104C64.895 12.7104 64.6581 12.7104 64.5002 12.7893C64.3423 12.8683 64.1844 12.9472 64.1055 13.1051C64.0265 13.263 63.8687 13.4209 63.7897 13.5788C63.7108 13.7367 63.7108 13.9735 63.7108 14.2104V17.2893H62.4476V11.6051H63.6318V12.2367C63.7897 11.9998 64.0265 11.763 64.3423 11.6051C64.7371 11.6841 65.0529 11.6051 65.3687 11.6051ZM69.4739 11.6051C69.8686 11.6051 70.2634 11.6841 70.5002 11.842C70.816 11.9998 71.0529 12.1577 71.2108 12.4735V8.9209H72.4739V17.4472H71.2108V16.7367C71.0529 16.9735 70.7371 17.2104 70.5002 17.3683C70.1844 17.5262 69.8686 17.6051 69.4739 17.6051C69.0792 17.6051 68.6844 17.5262 68.3686 17.3683C68.0529 17.2104 67.7371 17.0525 67.5002 16.7367C67.2634 16.4998 67.0265 16.1841 66.8686 15.7893C66.7108 15.3946 66.6318 14.9998 66.6318 14.6051C66.6318 14.2104 66.7108 13.7367 66.8686 13.4209C67.0265 13.0262 67.1844 12.7104 67.5002 12.4735C67.7371 12.2367 68.0529 11.9998 68.3686 11.842C68.6844 11.6841 69.0792 11.6051 69.4739 11.6051ZM73.895 16.8946C73.9739 16.8946 73.9739 16.8946 74.0529 16.8946C74.1318 16.8946 74.1318 16.9735 74.1318 16.9735L74.2108 17.0525C74.2108 17.1314 74.2108 17.1314 74.2108 17.2104C74.2108 17.2893 74.2108 17.2893 74.2108 17.3683C74.2108 17.4472 74.1318 17.4472 74.1318 17.4472L74.0529 17.5262C73.9739 17.5262 73.9739 17.5262 73.895 17.5262C73.816 17.5262 73.816 17.5262 73.7371 17.5262C73.6581 17.5262 73.6581 17.4472 73.6581 17.4472L73.5792 17.3683C73.5792 17.2893 73.5792 17.2893 73.5792 17.2104C73.5792 17.1314 73.5792 17.1314 73.5792 17.0525C73.5792 16.9735 73.6581 16.9735 73.6581 16.9735L73.7371 16.8946C73.816 16.8946 73.816 16.8946 73.895 16.8946ZM73.895 17.5262H73.9739C73.9739 17.5262 74.0529 17.5262 74.0529 17.4472L74.1318 17.3683V17.2893V17.2104C74.1318 17.2104 74.1318 17.1314 74.0529 17.1314L73.9739 17.0525H73.895H73.816C73.816 17.0525 73.7371 17.0525 73.7371 17.1314L73.6581 17.2104V17.2893V17.3683C73.6581 17.3683 73.6581 17.4472 73.7371 17.4472L73.816 17.5262H73.895ZM73.895 17.0525C73.9739 17.0525 73.9739 17.0525 73.9739 17.0525V17.1314V17.2104H73.895L73.9739 17.3683H73.895L73.816 17.2104V17.3683H73.7371V17.0525H73.895ZM73.816 17.1314V17.2104H73.895C73.895 17.2104 73.895 17.2104 73.9739 17.2104C73.9739 17.2104 73.9739 17.2104 73.895 17.2104H73.816V17.1314ZM69.6318 12.7893C69.395 12.7893 69.1581 12.8683 68.9213 12.9472C68.6844 13.0262 68.5265 13.1841 68.3686 13.342C68.2108 13.4998 68.1318 13.6577 68.0529 13.8946C67.895 14.1314 67.895 14.3683 67.895 14.6051C67.895 14.842 67.9739 15.0788 67.9739 15.3156C68.0529 15.5525 68.1318 15.7104 68.2897 15.8683C68.4476 16.0262 68.6055 16.1841 68.8423 16.263C69.0792 16.342 69.316 16.4209 69.5529 16.4209C69.7897 16.4209 70.0265 16.342 70.2634 16.263C70.5002 16.1841 70.6581 16.0262 70.816 15.8683C70.9739 15.7104 71.0529 15.5525 71.1318 15.3156C71.2108 15.0788 71.2897 14.842 71.2897 14.6051C71.2897 14.3683 71.2108 14.1314 71.1318 13.8946C71.0529 13.6577 70.895 13.4998 70.816 13.342C70.6581 13.1841 70.5002 13.0262 70.2634 12.9472C70.1055 12.7893 69.8686 12.7893 69.6318 12.7893Z" fill="#E41522"/>
</svg>
