<svg width="64" height="25" viewBox="0 0 64 25" fill="none" xmlns="http://www.w3.org/2000/svg">
<path d="M29.312 22.1381C29.6154 22.1381 29.8489 22.1381 30.2329 21.9655C31.5603 21.2643 36.0284 10.3036 40.7419 6.93216C40.768 6.90954 40.8083 6.87978 40.8308 6.84763C40.8604 6.80359 40.8616 6.75716 40.8616 6.75716C40.8616 6.75716 40.8616 6.53335 40.1623 6.53335C35.9668 6.41787 31.6041 15.2536 29.312 18.7488C29.2835 18.7881 29.1247 18.7488 29.1247 18.7488C29.1247 18.7488 27.5887 16.9286 26.253 16.2298C26.2258 16.2143 26.0729 16.1679 25.9152 16.1798C25.8109 16.1798 25.1899 16.3036 24.9007 16.6119C24.5594 16.975 24.5665 17.1786 24.5689 17.6191C24.57 17.6548 24.5937 17.8024 24.6352 17.8774C24.9623 18.45 26.4533 20.5095 27.6741 21.6453C27.8637 21.781 28.1517 22.1417 29.3132 22.1417L29.312 22.1381Z" fill="#2BBC5D"/>
<path d="M43.7082 13.9762L44.3435 14.169C44.3008 14.3476 44.2333 14.4964 44.1432 14.6167C44.0508 14.7381 43.937 14.8298 43.8007 14.8893C43.6644 14.9488 43.4913 14.9798 43.2816 14.9798C43.0256 14.9798 42.8158 14.9429 42.6546 14.8702C42.4946 14.794 42.3559 14.6631 42.2374 14.475C42.1189 14.2881 42.062 14.0476 42.062 13.7548C42.062 13.3655 42.1639 13.0667 42.3702 12.8571C42.5787 12.6464 42.8703 12.5405 43.2472 12.5405C43.5435 12.5405 43.7746 12.6012 43.9441 12.7214C44.1147 12.8429 44.2404 13.0262 44.321 13.275L43.6821 13.4167C43.6596 13.344 43.6359 13.2929 43.6099 13.2595C43.5708 13.2036 43.5222 13.1607 43.4629 13.1321C43.4036 13.1036 43.3396 13.0869 43.265 13.0869C43.1014 13.0869 42.9758 13.1548 42.8881 13.2869C42.8217 13.3845 42.7885 13.5405 42.7885 13.7524C42.7885 14.0143 42.8276 14.1929 42.9094 14.2893C42.9876 14.3869 43.099 14.4357 43.2424 14.4357C43.3811 14.4357 43.4854 14.3964 43.5565 14.319C43.6288 14.2405 43.6798 14.1286 43.713 13.9798L43.7082 13.9762ZM44.603 13.7631C44.603 13.3774 44.7109 13.0786 44.9242 12.8643C45.1376 12.6488 45.4339 12.5417 45.8155 12.5417C46.2054 12.5417 46.5076 12.6476 46.7186 12.8583C46.9308 13.0691 47.0362 13.3643 47.0362 13.744C47.0362 14.0179 46.99 14.2452 46.8976 14.4214C46.8075 14.5964 46.6736 14.7345 46.4993 14.8345C46.3263 14.931 46.1082 14.981 45.8487 14.981C45.5844 14.981 45.3663 14.9381 45.1921 14.8548C45.019 14.7702 44.8804 14.6369 44.7725 14.4524C44.6658 14.2702 44.6113 14.0393 44.6113 13.7643L44.603 13.7631ZM45.3284 13.7655C45.3284 14.0036 45.371 14.175 45.4576 14.2798C45.5453 14.3833 45.6662 14.4357 45.8167 14.4357C45.9731 14.4357 46.0928 14.3845 46.1805 14.281C46.2635 14.1786 46.3062 13.9964 46.3062 13.7333C46.3062 13.5107 46.2611 13.35 46.171 13.2476C46.0833 13.1452 45.9613 13.0929 45.8096 13.0929C45.6614 13.0929 45.5453 13.1452 45.4576 13.2476C45.3675 13.35 45.3236 13.5214 45.3236 13.7643L45.3284 13.7655ZM47.419 12.581H48.3731L48.7429 14.0155L49.1103 12.581H50.0608V14.9381H49.4694V13.1405L49.0096 14.9381H48.4739L48.0176 13.1405V14.9381H47.4226V12.581H47.419ZM50.5159 12.581H51.7225C51.9844 12.581 52.1811 12.644 52.3103 12.769C52.4418 12.894 52.507 13.0738 52.507 13.3036C52.507 13.5405 52.4347 13.7262 52.2925 13.8607C52.1503 13.9952 51.9334 14.0619 51.6407 14.0619H51.2448V14.9357H50.5159V12.5786V12.581ZM51.2448 13.5857H51.4214C51.5613 13.5857 51.6584 13.5619 51.7153 13.5131C51.7722 13.4643 51.7995 13.4012 51.7995 13.3262C51.7995 13.2512 51.7758 13.1905 51.726 13.1381C51.6762 13.0857 51.585 13.0607 51.4499 13.0607H51.2424L51.2448 13.5857ZM52.8887 12.581H53.6116V14.3583H54.7423V14.9381H52.8863V12.581H52.8887ZM55.105 12.581H55.8303V14.9381H55.1038L55.105 12.581ZM57.7942 14.55H56.9669L56.8519 14.9393H56.1112L56.993 12.5833H57.7823L58.6641 14.9405H57.9056L57.7894 14.5536L57.7942 14.55ZM57.6413 14.0405L57.3793 13.1929L57.1198 14.0405H57.6365H57.6413ZM58.9023 12.581H59.5779L60.462 13.8857V12.581H61.1447V14.9381H60.462L59.5826 13.6429V14.9381H58.9023V12.581ZM61.4647 12.581H63.6679V13.1631H62.9272V14.9381H62.2042V13.1643H61.4647V12.581ZM11.7307 10.6726C11.7556 10.7417 11.7485 11.175 11.7307 11.1976C11.5648 12.2405 10.4389 12.2917 10.4389 12.2917L9.44452 12.2905H9.44215V9.72738H10.3334C10.3334 9.72738 11.63 9.7869 11.7307 10.6726ZM34.2635 9.21428C33.7965 9.86071 32.398 11.8048 31.0789 13.7107V7.59523H27.3396V7.59642V15.7964C26.8217 15.444 26.2777 15.1964 25.755 15.1083V14.6988C25.755 14.6667 25.7337 14.6548 25.7065 14.6714C25.7065 14.6714 25.3023 14.9988 23.5281 15.1714C23.0244 15.2274 22.7873 15.2012 22.6048 15.1714C20.0887 14.7464 19.9678 12.8952 19.9678 12.8952C19.9654 12.8643 19.9619 12.8143 19.9619 12.7833V12.0762C19.9619 12.0464 19.9654 11.9952 19.9678 11.9643C19.9678 11.9643 20.1373 9.98095 22.6036 9.76905H23.5257C24.6149 9.91667 25.4884 10.4583 25.4884 10.4583L25.4943 10.4571C25.5204 10.4738 25.5429 10.4595 25.5429 10.4298V7.94643C25.5429 7.91429 25.5204 7.87619 25.4931 7.86071C25.4931 7.86071 25.0024 7.53929 23.5067 7.45119C23.4262 7.40715 22.1236 7.4 21.7633 7.45119C16.3257 7.8881 16.1242 11.8405 16.1242 12.0202V12.981C16.1242 13.0976 16.1242 17.1381 21.7633 17.4952C22.3133 17.5369 23.393 17.4952 23.5067 17.4952C23.515 17.4952 23.5233 17.494 23.5316 17.494C23.6513 18.1571 23.9761 18.8643 24.4276 19.5191L8.35178 24.6083L0.000976562 1.71786L30.145 0L34.2635 9.21428ZM15.3764 10.9679C15.3764 7.875 11.7296 7.53571 10.529 7.59167C10.5041 7.59405 5.80955 7.59167 5.80955 7.59167C5.77992 7.59167 5.75385 7.61905 5.75385 7.65V17.3643C5.75385 17.394 5.77874 17.4202 5.80955 17.4202H9.45164C9.48246 17.4202 9.50734 17.3952 9.50734 17.3643V14.5179C9.50734 14.4881 9.53224 14.4643 9.56424 14.4655C9.56305 14.4655 15.3764 14.8881 15.3764 10.9679ZM31.4949 4.49286C31.4949 3.29643 30.4709 2.32976 29.2087 2.32976C27.9465 2.32976 26.9236 3.29881 26.9236 4.49405C26.9236 5.68929 27.9465 6.65834 29.2087 6.65834V6.65715C30.4709 6.65834 31.4949 5.68929 31.4949 4.49286ZM36.398 13.9929C35.8931 14.6179 35.3942 15.4298 34.9782 16.1786L34.9793 16.1798L37.0783 15.5143L36.398 13.9929ZM41.9814 3.61071H45.4718C46.1592 3.61071 46.715 3.70357 47.1358 3.89166C47.5613 4.07738 47.9133 4.34762 48.1894 4.69881C48.4668 5.05 48.667 5.45714 48.7915 5.92262C48.9159 6.38809 48.9788 6.88096 48.9788 7.4C48.9788 8.21667 48.8851 8.85119 48.699 9.30238C48.5165 9.75119 48.2593 10.1274 47.931 10.4345C47.6027 10.7357 47.2507 10.9369 46.8727 11.0369C46.3571 11.175 45.8913 11.244 45.4718 11.244H41.9814V3.60714V3.61071ZM44.3305 5.34048V9.51428H44.9041C45.3947 9.51428 45.7444 9.46072 45.953 9.35119C46.1604 9.24048 46.3227 9.05119 46.4389 8.77976C46.5574 8.50595 46.6143 8.0631 46.6143 7.45238C46.6143 6.64286 46.4827 6.08928 46.2184 5.79047C45.9565 5.49166 45.5204 5.34286 44.9112 5.34286H44.3257L44.3305 5.34048ZM49.6176 8.72142L51.8516 8.58214C51.9002 8.94762 51.9986 9.225 52.1456 9.41547C52.3885 9.725 52.7334 9.87977 53.185 9.87977C53.5204 9.87977 53.7776 9.80119 53.9553 9.64524C54.1379 9.48571 54.2291 9.30119 54.2291 9.09286C54.2291 8.89643 54.1426 8.72024 53.9684 8.5631C53.7941 8.40595 53.3936 8.25952 52.7642 8.12262C51.7343 7.89047 50.9983 7.58095 50.5586 7.19524C50.1165 6.81071 49.8937 6.31905 49.8937 5.72143C49.8937 5.32976 50.0075 4.95952 50.2315 4.61191C50.4579 4.2631 50.7992 3.98928 51.2519 3.79047C51.7106 3.58928 52.3328 3.4881 53.1245 3.4881C54.0952 3.4881 54.8348 3.67024 55.3444 4.03571C55.854 4.39881 56.1586 4.975 56.257 5.76667L54.0419 5.89762C53.9814 5.55357 53.857 5.30357 53.6673 5.14643C53.4801 4.99047 53.2193 4.91309 52.8887 4.91309C52.6149 4.91309 52.4087 4.97262 52.2712 5.09048C52.1313 5.20595 52.0614 5.34643 52.0614 5.5119C52.0614 5.63452 52.1195 5.74286 52.2333 5.83928C52.3435 5.94047 52.6054 6.03452 53.0214 6.12143C54.0478 6.34524 54.7838 6.57024 55.2259 6.8C55.6715 7.025 55.9939 7.30833 56.1953 7.64523C56.4004 7.98214 56.5035 8.36072 56.5035 8.77619C56.5035 9.26667 56.3672 9.71786 56.097 10.1321C55.8267 10.5464 55.4499 10.8595 54.9663 11.0762C54.4839 11.2857 53.8736 11.3905 53.1376 11.3905C51.8433 11.3905 50.9473 11.1417 50.4496 10.6417C49.9506 10.1417 49.6697 9.50595 49.6033 8.73452L49.6176 8.72142ZM57.1127 8.72142L59.3468 8.58214C59.3953 8.94762 59.4925 9.225 59.6407 9.41547C59.8825 9.725 60.2285 9.87977 60.6789 9.87977C61.0143 9.87977 61.2727 9.80119 61.4504 9.64524C61.633 9.48571 61.7254 9.30119 61.7254 9.09286C61.7254 8.89643 61.6389 8.72024 61.4647 8.5631C61.2904 8.40595 60.8899 8.25952 60.2605 8.12262C59.2294 7.89047 58.4958 7.58095 58.0561 7.19524C57.6116 6.81071 57.3912 6.31905 57.3912 5.72143C57.3912 5.32976 57.5026 4.95952 57.7266 4.61191C57.9553 4.2631 58.2955 3.98928 58.747 3.79047C59.2033 3.58928 59.8279 3.4881 60.6196 3.4881C61.5903 3.4881 62.3299 3.67024 62.8383 4.03571C63.3515 4.39881 63.6537 4.975 63.7521 5.76667L61.537 5.89524C61.4777 5.55119 61.3533 5.30238 61.1636 5.14524C60.9776 4.98928 60.718 4.9119 60.385 4.9119C60.1124 4.9119 59.9062 4.97024 59.7675 5.0881C59.6288 5.20476 59.5589 5.34523 59.5589 5.5119C59.5589 5.63452 59.6158 5.74286 59.7296 5.83928C59.8398 5.94047 60.1029 6.03452 60.5177 6.12143C61.5453 6.34405 62.2801 6.56905 62.7233 6.79762C63.1678 7.02381 63.4913 7.30714 63.6928 7.64404C63.8967 7.98095 63.9986 8.35834 63.9986 8.77381C63.9986 9.26429 63.8647 9.71667 63.5945 10.1298C63.3242 10.5441 62.9473 10.8583 62.4614 11.0738C61.9802 11.2857 61.3699 11.3917 60.635 11.3917C59.3408 11.3917 58.4448 11.1417 57.9459 10.6393C57.4481 10.1393 57.1672 9.50476 57.0996 8.73214L57.1127 8.72142Z" fill="#225E63"/>
</svg>
