<svg width="44" height="44" viewBox="0 0 44 44" fill="none" xmlns="http://www.w3.org/2000/svg">
<path d="M21.8333 42.6667C33.3393 42.6667 42.6667 33.3393 42.6667 21.8333C42.6667 10.3274 33.3393 1 21.8333 1C10.3274 1 1 10.3274 1 21.8333C1 33.3393 10.3274 42.6667 21.8333 42.6667Z" stroke="#2B5FAE" stroke-width="2" stroke-linecap="round" stroke-linejoin="round"/>
<path d="M15.771 15.5837C16.2608 14.1913 17.2276 13.0173 18.5001 12.2694C19.7726 11.5215 21.2687 11.2482 22.7234 11.4977C24.1782 11.7472 25.4977 12.5035 26.4482 13.6327C27.3988 14.7619 27.919 16.191 27.9168 17.667C27.9168 21.8337 21.6668 23.917 21.6668 23.917" stroke="#2B5FAE" stroke-width="2" stroke-linecap="round" stroke-linejoin="round"/>
<path d="M21.8335 32.25H21.8543" stroke="#2B5FAE" stroke-width="2" stroke-linecap="round" stroke-linejoin="round"/>
</svg>
