<svg width="26" height="22" viewBox="0 0 26 22" fill="none" xmlns="http://www.w3.org/2000/svg">
<path d="M8.32147 9.84038C7.6811 9.65601 7.04073 9.56247 6.41781 9.56247C5.45589 9.56247 4.65325 9.78229 4.03088 10.0515C4.63088 7.8549 6.07226 4.06477 8.94356 3.63795C9.20948 3.5984 9.42739 3.40613 9.49993 3.14731L10.1275 0.902737C10.1804 0.712917 10.149 0.509733 10.0408 0.345004C9.93248 0.180275 9.75848 0.0703643 9.56348 0.0436368C9.35157 0.0147274 9.13557 0 8.92147 0C5.47498 0 2.06176 3.59731 0.621475 8.74809C-0.223988 11.7699 -0.4719 16.3131 1.61067 19.1727C2.77604 20.7728 4.47624 21.6272 6.66409 21.7126C6.67309 21.7129 6.68181 21.7131 6.69081 21.7131C9.3903 21.7131 11.784 19.8951 12.5122 17.2925C12.9472 15.7365 12.7506 14.1048 11.9581 12.6967C11.174 11.3044 9.88258 10.2896 8.32147 9.84038Z" fill="#BEBEBE"/>
<path d="M25.2195 12.697C24.4354 11.3044 23.144 10.2896 21.5829 9.84038C20.9426 9.65601 20.3022 9.56247 19.6796 9.56247C18.7176 9.56247 17.9147 9.78229 17.2923 10.0515C17.8924 7.8549 19.3337 4.06477 22.2053 3.63795C22.4712 3.5984 22.6889 3.40613 22.7617 3.14731L23.3892 0.902737C23.4421 0.712917 23.4108 0.509733 23.3025 0.345004C23.1945 0.180275 23.0205 0.0703643 22.8252 0.0436368C22.6136 0.0147274 22.3976 0 22.1832 0C18.7367 0 15.3235 3.59731 13.8829 8.74809C13.0378 11.7699 12.7898 16.3131 14.8727 19.1732C16.0378 20.773 17.7383 21.6278 19.9258 21.7129C19.9348 21.7131 19.9436 21.7134 19.9528 21.7134C22.652 21.7134 25.0461 19.8954 25.7743 17.2927C26.2087 15.7368 26.0118 14.1048 25.2195 12.697Z" fill="#BEBEBE"/>
</svg>
