<svg width="26" height="22" viewBox="0 0 26 22" fill="none" xmlns="http://www.w3.org/2000/svg">
<path d="M17.6785 11.873C18.3189 12.0574 18.9593 12.1509 19.5822 12.1509C20.5441 12.1509 21.3468 11.9311 21.9691 11.6619C21.3691 13.8585 19.9277 17.6486 17.0564 18.0754C16.7905 18.115 16.5726 18.3072 16.5001 18.5661L15.8725 20.8106C15.8196 21.0005 15.851 21.2036 15.9592 21.3684C16.0675 21.5331 16.2415 21.643 16.4365 21.6697C16.6484 21.6986 16.8644 21.7134 17.0785 21.7134C20.525 21.7134 23.9382 18.1161 25.3785 12.9653C26.224 9.94344 26.4719 5.4003 24.3893 2.54072C23.224 0.94061 21.5238 0.0861452 19.3359 0.000778872C19.3269 0.000506117 19.3182 0.000233362 19.3092 0.000233357C16.6097 0.000232085 14.216 1.81825 13.4878 4.42092C13.0528 5.97684 13.2494 7.60859 14.0419 9.01669C14.826 10.409 16.1174 11.4238 17.6785 11.873Z" fill="#BEBEBE"/>
<path d="M0.780354 9.01666C1.56445 10.4092 2.85583 11.4241 4.41694 11.8732C5.05731 12.0576 5.69768 12.1512 6.32032 12.1512C7.28224 12.1512 8.08516 11.9313 8.70753 11.6621C8.10752 13.8587 6.66614 17.6488 3.79457 18.0757C3.52866 18.1152 3.31102 18.3075 3.2382 18.5663L2.61065 20.8109C2.55774 21.0007 2.5891 21.2039 2.69737 21.3686C2.80538 21.5333 2.97938 21.6433 3.17465 21.67C3.38629 21.6989 3.60229 21.7136 3.81666 21.7136C7.26315 21.7136 10.6764 18.1163 12.1169 12.9655C12.9621 9.94368 13.21 5.40054 11.1272 2.54042C9.96209 0.940581 8.26162 0.0858438 6.07405 0.000750261C6.06505 0.000477506 6.05632 0.000204751 6.04705 0.000204747C3.34783 0.000203475 0.953811 1.81822 0.225622 4.42089C-0.208838 5.97681 -0.0119283 7.60883 0.780354 9.01666Z" fill="#BEBEBE"/>
</svg>
