<svg width="44" height="47" viewBox="0 0 44 47" fill="none" xmlns="http://www.w3.org/2000/svg">
<path d="M23.2739 29.629C24.0858 29.5658 24.826 29.1517 25.3064 28.491L32.6089 18.3956C32.8328 18.0859 32.7992 17.6585 32.5278 17.3871C32.2564 17.1165 31.829 17.0829 31.5194 17.306L21.4223 24.6109C20.7641 25.0898 20.3499 25.8299 20.2868 26.6418C20.2236 27.4537 20.5176 28.2485 21.0924 28.8233C21.6158 29.3474 22.3216 29.6376 23.0555 29.6376C23.1281 29.6376 23.2006 29.6344 23.2739 29.629ZM21.8419 26.7635C21.8692 26.4071 22.0517 26.0818 22.3388 25.8728L28.4979 21.417L24.0437 27.5746C23.8331 27.864 23.5079 28.0457 23.1515 28.0738C22.7966 28.0972 22.448 27.974 22.1945 27.7205C21.9433 27.4686 21.8139 27.1191 21.8419 26.7635Z" fill="#2A2A2A"/>
<path d="M40.7445 15.2586C40.7367 15.2423 40.7367 15.2251 40.7281 15.2087C40.7188 15.1931 40.7039 15.1845 40.6938 15.1697C39.9053 13.8173 38.9725 12.5593 37.9133 11.419L39.5886 9.7445L40.6915 10.8473L43.9999 7.53807L40.6915 4.22958L37.3822 7.53807L38.4858 8.64167L36.8105 10.3162C35.6702 9.25704 34.413 8.32346 33.0598 7.53495C33.045 7.52481 33.0364 7.50999 33.0208 7.50063C33.0044 7.49127 32.9873 7.49205 32.9709 7.48347C30.5585 6.09363 27.8483 5.16784 24.9586 4.82857V3.89967H26.1285C27.204 3.89967 28.0784 3.02537 28.0784 1.94984C28.0784 0.874306 27.2033 0 26.1277 0H19.1083C18.0328 0 17.1585 0.874306 17.1585 1.94984C17.1585 3.02537 18.0328 3.89967 19.1083 3.89967H20.2782V4.80128C19.4359 4.89097 18.5951 5.02824 17.7637 5.21854C17.3441 5.31447 17.0813 5.7333 17.178 6.1529C17.2739 6.57251 17.6927 6.83612 18.1124 6.73863C18.8299 6.57407 19.5545 6.45006 20.2806 6.3666L21.1174 6.30187C21.3733 6.28237 21.6088 6.26833 21.8381 6.25741V7.79934C21.8381 8.23065 22.1867 8.57928 22.618 8.57928C23.0493 8.57928 23.398 8.23065 23.398 7.79934V6.26287C26.3313 6.3978 29.0954 7.18553 31.553 8.48179L30.7839 9.81313C30.5687 10.1867 30.6966 10.6633 31.0694 10.8785C31.1919 10.9495 31.326 10.983 31.4586 10.983C31.7284 10.983 31.9905 10.8434 32.1348 10.5931L32.9015 9.26484C35.3419 10.813 37.4149 12.8861 38.9631 15.3265L37.6349 16.0932C37.2629 16.3084 37.135 16.785 37.351 17.1586C37.4961 17.4089 37.7573 17.5485 38.0272 17.5485C38.1598 17.5485 38.2939 17.515 38.4164 17.444L39.7477 16.675C41.0619 19.1677 41.852 21.977 41.9698 24.9571H40.4294C39.9981 24.9571 39.6495 25.3057 39.6495 25.7371C39.6495 26.1684 39.9981 26.517 40.4294 26.517H41.9698C41.852 29.4971 41.0619 32.3064 39.7477 34.7991L38.4164 34.0301C38.0436 33.8148 37.5663 33.9412 37.351 34.3156C37.1357 34.6891 37.2636 35.1657 37.6365 35.3809L38.9647 36.1476C37.4165 38.588 35.3434 40.6611 32.903 42.2093L32.1364 40.881C31.9203 40.5067 31.4422 40.3795 31.071 40.5956C30.6974 40.8108 30.5695 41.2882 30.7855 41.661L31.5545 42.9923C29.0969 44.2886 26.3329 45.0763 23.3995 45.2112V43.6763C23.3995 43.245 23.0509 42.8964 22.6196 42.8964C22.1883 42.8964 21.8397 43.245 21.8397 43.6763V45.2175C20.5941 45.1746 19.3446 45.0186 18.1147 44.7363C17.6951 44.6356 17.2763 44.9024 17.1803 45.322C17.0836 45.7416 17.3465 46.1604 17.7661 46.2563C19.3228 46.6151 20.9131 46.7961 22.4909 46.7961C22.5291 46.7961 22.5658 46.7937 22.604 46.7929C22.6095 46.7929 22.6134 46.7961 22.618 46.7961C22.6243 46.7961 22.6297 46.7922 22.636 46.7922C26.3851 46.7664 29.9026 45.7541 32.9459 44.0055C32.9701 43.9945 32.9958 43.9891 33.0192 43.975C33.0348 43.9657 33.0434 43.9509 33.0582 43.9407C36.2084 42.1048 38.8407 39.4756 40.6805 36.3278C40.6954 36.3067 40.7141 36.2903 40.7273 36.2669C40.7367 36.2506 40.7359 36.2334 40.7437 36.217C42.5251 33.1285 43.5491 29.5517 43.5491 25.7378C43.5491 21.924 42.5251 18.3472 40.7445 15.2586ZM40.6907 6.43524L41.7935 7.53807L40.6907 8.64167L39.5871 7.53807L40.6907 6.43524ZM21.8381 4.69598V2.3398H19.1083C18.8938 2.3398 18.7184 2.16432 18.7184 1.94984C18.7184 1.73535 18.8938 1.55987 19.1083 1.55987H26.1277C26.3422 1.55987 26.5177 1.73535 26.5177 1.94984C26.5177 2.16432 26.3422 2.3398 26.1277 2.3398H23.398V4.69598C23.1266 4.68507 22.8676 4.67961 22.618 4.67961C22.5962 4.67961 22.5712 4.68117 22.5494 4.68117C22.5299 4.68117 22.5104 4.67961 22.4909 4.67961C22.363 4.67961 22.2351 4.68819 22.1072 4.69053C22.0167 4.69286 21.9317 4.69208 21.8381 4.69598Z" fill="#2A2A2A"/>
<path d="M15.5986 10.9192H11.6989C11.2676 10.9192 10.9189 11.2678 10.9189 11.6991C10.9189 12.1304 11.2676 12.4791 11.6989 12.4791H15.5986C16.0299 12.4791 16.3785 12.1304 16.3785 11.6991C16.3785 11.2678 16.0299 10.9192 15.5986 10.9192Z" fill="#2A2A2A"/>
<path d="M15.5988 16.3787H7.79947C7.36816 16.3787 7.01953 16.7273 7.01953 17.1586C7.01953 17.5899 7.36816 17.9385 7.79947 17.9385H15.5988C16.0301 17.9385 16.3787 17.5899 16.3787 17.1586C16.3787 16.7273 16.0301 16.3787 15.5988 16.3787Z" fill="#2A2A2A"/>
<path d="M15.5986 21.8381H3.89956C3.46826 21.8381 3.11963 22.1868 3.11963 22.6181C3.11963 23.0494 3.46826 23.398 3.89956 23.398H15.5986C16.0299 23.398 16.3785 23.0494 16.3785 22.6181C16.3785 22.1868 16.0299 21.8381 15.5986 21.8381Z" fill="#2A2A2A"/>
<path d="M15.5987 27.2976H0.779934C0.348631 27.2976 0 27.6462 0 28.0775C0 28.5088 0.348631 28.8575 0.779934 28.8575H15.5987C16.03 28.8575 16.3786 28.5088 16.3786 28.0775C16.3786 27.6462 16.03 27.2976 15.5987 27.2976Z" fill="#2A2A2A"/>
<path d="M15.5988 32.7573H5.45962C5.02832 32.7573 4.67969 33.106 4.67969 33.5373C4.67969 33.9686 5.02832 34.3172 5.45962 34.3172H15.5988C16.0301 34.3172 16.3787 33.9686 16.3787 33.5373C16.3787 33.106 16.0301 32.7573 15.5988 32.7573Z" fill="#2A2A2A"/>
<path d="M15.5988 38.2168H10.1393C9.70801 38.2168 9.35938 38.5654 9.35938 38.9967C9.35938 39.428 9.70801 39.7767 10.1393 39.7767H15.5988C16.0302 39.7767 16.3788 39.428 16.3788 38.9967C16.3788 38.5654 16.0302 38.2168 15.5988 38.2168Z" fill="#2A2A2A"/>
</svg>
