<svg width="45" height="48" viewBox="0 0 45 48" fill="none" xmlns="http://www.w3.org/2000/svg">
<path d="M43.0268 21.4921C42.966 18.966 42.4553 16.5225 41.5041 14.2153C41.8331 13.9919 42.0873 13.667 42.2186 13.2874C42.3845 12.8073 42.345 12.274 42.1099 11.8243C40.6502 9.02964 38.6464 6.62511 36.1541 4.67768C35.8534 4.4427 35.4189 4.49583 35.1838 4.79678C34.9488 5.09764 35.002 5.5321 35.3029 5.76717C37.6387 7.59235 39.5167 9.84563 40.8846 12.4645C40.945 12.5801 40.9547 12.7119 40.9119 12.8355C40.869 12.9599 40.7793 13.0581 40.6595 13.1121L37.3954 14.5838C37.171 14.6848 36.9046 14.5956 36.7888 14.3804C33.9739 9.14875 28.537 5.89875 22.6 5.89875C16.663 5.89875 11.2262 9.14875 8.41121 14.3804C8.29534 14.5956 8.02885 14.685 7.80469 14.5838L4.54046 13.112C4.42071 13.0581 4.33108 12.9599 4.28812 12.8356C4.24534 12.712 4.25504 12.58 4.31547 12.4644C7.88591 5.62885 14.8921 1.38249 22.6 1.38249C26.2017 1.38249 29.7605 2.33662 32.8917 4.14175C33.2224 4.33201 33.6451 4.21882 33.8358 3.88812C34.0264 3.55732 33.9129 3.13468 33.5822 2.94397C30.2414 1.01797 26.4437 0 22.6 0C18.578 0 14.6289 1.1077 11.1798 3.20343C7.74241 5.29186 4.94508 8.27297 3.09005 11.8243C2.85508 12.2742 2.81553 12.8074 2.98158 13.2875C3.11297 13.6673 3.36725 13.9921 3.69629 14.2155C2.75566 16.4972 2.24477 18.9119 2.17492 21.4085C0.906171 21.8821 9.24377e-05 23.1059 9.24377e-05 24.5378V30.2286C9.24377e-05 30.6104 0.309541 30.9198 0.69134 30.9198C1.07314 30.9198 1.38259 30.6104 1.38259 30.2286V24.5378C1.38259 23.459 2.26021 22.5814 3.33898 22.5814H5.14051C6.21928 22.5814 7.0969 23.4591 7.0969 24.5378V34.565C7.0969 35.6438 6.21928 36.5214 5.14051 36.5214H3.33889C2.26011 36.5214 1.38249 35.6437 1.38249 34.565V33.2644C1.38249 32.8826 1.07305 32.5732 0.691247 32.5732C0.309449 32.5732 0 32.8826 0 33.2644V34.565C0 36.4061 1.49781 37.904 3.33898 37.904H5.14051C6.98159 37.904 8.47949 36.4062 8.47949 34.565V24.5378C8.47949 23.1134 7.58274 21.8953 6.32444 21.4164C6.39096 19.5212 6.78145 17.6817 7.48674 15.9336C8.3103 16.17 9.21315 15.8079 9.62886 15.0354C12.2024 10.2525 17.1727 7.28124 22.6002 7.28124C28.0277 7.28124 32.998 10.2524 35.5716 15.0354C35.9027 15.6509 36.5432 16.0071 37.2064 16.0071C37.3758 16.0071 37.5466 15.9832 37.7141 15.9352C38.4105 17.6616 38.7994 19.4774 38.8727 21.3478C37.512 21.7697 36.5207 23.0401 36.5207 24.5378V34.565C36.5207 35.8437 37.2435 36.9562 38.3016 37.517C37.3496 39.6569 35.3439 41.1799 33.0167 41.5032C32.7886 41.1062 32.4716 40.7592 32.0799 40.4945C31.7636 40.2807 31.3339 40.364 31.1202 40.6804C30.9064 40.9967 30.9897 41.4263 31.3061 41.6401C31.7655 41.9505 32.0397 42.4661 32.0397 43.0195V44.2635C32.0397 45.1805 31.2938 45.9265 30.3767 45.9265H27.0016C26.0846 45.9265 25.3386 45.1805 25.3386 44.2635V43.0195C25.3386 42.1025 26.0845 41.3565 27.0016 41.3565H28.4127C28.7945 41.3565 29.1039 41.047 29.1039 40.6652C29.1039 40.2834 28.7945 39.974 28.4127 39.974H27.0016C25.3223 39.974 23.9561 41.3402 23.9561 43.0195V44.2635C23.9561 45.9428 25.3223 47.309 27.0016 47.309H30.3767C31.5495 47.309 32.5688 46.6422 33.0775 45.6682C35.3165 45.4654 37.406 44.5934 39.1365 43.1324C40.821 41.7103 42.0173 39.8608 42.6144 37.7646C43.9923 37.3533 45 36.075 45 34.565V24.5378C44.9999 23.1832 44.1886 22.0152 43.0268 21.4921ZM6.21734 15.3847C5.46456 17.24 5.03961 19.1903 4.95017 21.1989H3.56619C3.65628 18.9842 4.11921 16.8414 4.94656 14.8118L6.21734 15.3847ZM40.2498 21.1989C40.1603 19.1902 39.7355 17.24 38.9826 15.3848L40.2536 14.8117C41.0808 16.8414 41.5437 18.9844 41.6338 21.1989H40.2498ZM33.4221 44.2372V43.0195C33.4221 42.9592 33.4201 42.8992 33.4166 42.8395C36.1919 42.3792 38.5596 40.5 39.643 37.8963C39.7146 37.9009 39.7867 37.904 39.8595 37.904H41.1184C39.9441 41.2523 36.9378 43.733 33.4221 44.2372ZM43.6174 34.565C43.6174 35.6438 42.7398 36.5214 41.6611 36.5214H39.8595C38.7807 36.5214 37.9032 35.6437 37.9032 34.565V24.5378C37.9032 23.459 38.7808 22.5814 39.8595 22.5814H41.6611C42.7399 22.5814 43.6174 23.4591 43.6174 24.5378V34.565Z" fill="#2A2A2A"/>
</svg>
