<svg width="46" height="46" viewBox="0 0 46 46" fill="none" xmlns="http://www.w3.org/2000/svg">
<path d="M34.7632 27.5757C34.5961 27.7429 34.5 27.9746 34.5 28.2109C34.5 28.4472 34.596 28.679 34.7632 28.8461C34.9304 29.0132 35.1621 29.1094 35.3984 29.1094C35.6347 29.1094 35.8665 29.0132 36.0335 28.8461C36.2007 28.679 36.2969 28.4472 36.2969 28.2109C36.2969 27.9746 36.2007 27.7429 36.0335 27.5757C35.8665 27.4086 35.6347 27.3125 35.3984 27.3125C35.1621 27.3125 34.9304 27.4086 34.7632 27.5757Z" fill="#2A2A2A"/>
<path d="M11.4578 23.7188H21.7722C22.2683 23.7188 22.6706 23.3165 22.6706 22.8203C22.6706 22.3241 22.2683 21.9219 21.7722 21.9219H11.4578C10.9616 21.9219 10.5593 22.3241 10.5593 22.8203C10.5593 23.3165 10.9616 23.7188 11.4578 23.7188Z" fill="#2A2A2A"/>
<path d="M28.433 28.3906H11.4578C10.9616 28.3906 10.5593 28.7929 10.5593 29.2891C10.5593 29.7853 10.9616 30.1875 11.4578 30.1875H28.4329C28.9291 30.1875 29.3314 29.7853 29.3314 29.2891C29.3314 28.7929 28.9291 28.3906 28.433 28.3906Z" fill="#2A2A2A"/>
<path d="M28.4329 34.8594H15.0938C14.5976 34.8594 14.1953 35.2616 14.1953 35.7578C14.1953 36.254 14.5976 36.6562 15.0938 36.6562H28.4329C28.9291 36.6562 29.3314 36.254 29.3314 35.7578C29.3314 35.2616 28.9291 34.8594 28.4329 34.8594Z" fill="#2A2A2A"/>
<path d="M33.2422 0C30.3978 0 27.7682 0.935992 25.6443 2.51562H2.69531C1.20912 2.51562 0 3.72474 0 5.21094V39.7109C0 41.1971 1.20912 42.4062 2.69531 42.4062H3.59375C3.59375 44.3878 5.20591 46 7.1875 46H32.7031C34.6847 46 36.2969 44.3878 36.2969 42.4062V31.8047C36.2969 31.3085 35.8946 30.9062 35.3984 30.9062C34.9023 30.9062 34.5 31.3085 34.5 31.8047V42.4062C34.5 43.397 33.6939 44.2031 32.7031 44.2031H7.1875C6.1967 44.2031 5.39062 43.397 5.39062 42.4062V17.25H12.0391C13.5253 17.25 14.7344 16.0409 14.7344 14.5547V7.90625H21.4436C20.8261 9.40269 20.4844 11.041 20.4844 12.7578C20.4844 13.6824 20.5841 14.5839 20.7719 15.4531H17.2799C16.7838 15.4531 16.3815 15.8554 16.3815 16.3516C16.3815 16.8478 16.7838 17.25 17.2799 17.25H21.3018C23.1229 22.0747 27.788 25.5156 33.2422 25.5156C40.2769 25.5156 46 19.7925 46 12.7578C46 5.72314 40.2769 0 33.2422 0ZM12.9375 14.5547C12.9375 15.0501 12.5345 15.4531 12.0391 15.4531H6.66128L12.9375 9.17682V14.5547ZM13.8359 6.10938C13.5881 6.10938 13.3636 6.20982 13.2011 6.37208C13.2009 6.37226 13.2007 6.37235 13.2007 6.37244L3.8569 15.7162C3.85663 15.7165 3.85645 15.7167 3.85627 15.717C3.69402 15.8796 3.59375 16.1039 3.59375 16.3516V40.6094H2.69531C2.19991 40.6094 1.79688 40.2063 1.79688 39.7109V5.21094C1.79688 4.71554 2.19991 4.3125 2.69531 4.3125H23.6887C23.195 4.87034 22.749 5.4713 22.3578 6.10938H13.8359ZM33.2422 23.7188C27.1983 23.7188 22.2812 18.8017 22.2812 12.7578C22.2812 6.71393 27.1983 1.79688 33.2422 1.79688C39.2861 1.79688 44.2031 6.71393 44.2031 12.7578C44.2031 18.8017 39.2861 23.7188 33.2422 23.7188Z" fill="#2A2A2A"/>
<path d="M41.601 11.8689H40.8767C40.3806 11.8689 39.9783 12.2711 39.9783 12.7673C39.9783 13.2635 40.3806 13.6658 40.8767 13.6658H41.601C42.0971 13.6658 42.4995 13.2635 42.4995 12.7673C42.4995 12.2711 42.0972 11.8689 41.601 11.8689Z" fill="#2A2A2A"/>
<path d="M25.6076 11.8499H24.8833C24.3872 11.8499 23.9849 12.2521 23.9849 12.7483C23.9849 13.2445 24.3872 13.6467 24.8833 13.6467H25.6076C26.1037 13.6467 26.5061 13.2445 26.5061 12.7483C26.5061 12.2521 26.1038 11.8499 25.6076 11.8499Z" fill="#2A2A2A"/>
<path d="M33.2517 6.02159C33.7478 6.02159 34.1501 5.61936 34.1501 5.12316V4.39893C34.1501 3.90272 33.7478 3.50049 33.2517 3.50049C32.7556 3.50049 32.3533 3.90272 32.3533 4.39893V5.12316C32.3533 5.61936 32.7556 6.02159 33.2517 6.02159Z" fill="#2A2A2A"/>
<path d="M33.2327 19.4939C32.7365 19.4939 32.3342 19.8961 32.3342 20.3923V21.1166C32.3342 21.6128 32.7365 22.015 33.2327 22.015C33.7288 22.015 34.1311 21.6128 34.1311 21.1166V20.3923C34.1311 19.8961 33.7288 19.4939 33.2327 19.4939Z" fill="#2A2A2A"/>
<path d="M32.6081 13.3943C32.7834 13.5689 33.0127 13.6562 33.2421 13.6562C33.4721 13.6562 33.702 13.5684 33.8774 13.393L40.0882 7.18219C40.439 6.83135 40.439 6.26246 40.0882 5.91153C39.7372 5.56069 39.1685 5.56078 38.8175 5.91153L33.2421 11.4871L30.003 8.2481C29.6523 7.89726 29.0836 7.89726 28.7324 8.2481C28.3815 8.59894 28.3815 9.16783 28.7324 9.51867L32.5981 13.3845L32.6081 13.3943Z" fill="#2A2A2A"/>
<path d="M10.8648 35.1226C10.6977 35.2897 10.6016 35.5215 10.6016 35.7578C10.6016 35.9941 10.6976 36.2259 10.8648 36.393C11.032 36.5601 11.2637 36.6562 11.5 36.6562C11.7363 36.6562 11.9681 36.5601 12.1351 36.393C12.3022 36.2259 12.3984 35.9941 12.3984 35.7578C12.3984 35.5215 12.3023 35.2897 12.1351 35.1226C11.9681 34.9555 11.7363 34.8594 11.5 34.8594C11.2637 34.8594 11.0319 34.9555 10.8648 35.1226Z" fill="#2A2A2A"/>
</svg>
