<svg width="25" height="25" viewBox="0 0 25 25" fill="none" xmlns="http://www.w3.org/2000/svg">
<path d="M19.6136 18.8086L18.95 21.2855C18.8893 21.5157 18.7812 21.7307 18.6326 21.9167C18.4841 22.1027 18.2983 22.2556 18.0872 22.3656C17.8761 22.4757 17.6444 22.5404 17.4068 22.5557C17.1692 22.571 16.9311 22.5365 16.7076 22.4545C14.241 21.4977 12.0332 19.9756 10.2616 18.0106C8.60641 16.2085 7.36829 14.064 6.63519 11.7295C5.817 9.20168 5.60574 6.51672 6.01855 3.89208C6.05909 3.65824 6.14788 3.4354 6.27927 3.23775C6.41065 3.04011 6.58175 2.87198 6.78167 2.74409C6.98159 2.61619 7.20595 2.53132 7.44047 2.49488C7.67499 2.45845 7.91452 2.47124 8.14382 2.53245L10.6207 3.19613C11.0225 3.29955 11.3729 3.54552 11.6067 3.8882C11.8405 4.23088 11.9417 4.64688 11.8915 5.05867C11.7836 5.87934 11.769 6.70958 11.8478 7.53355C11.8797 7.85883 11.8176 8.18643 11.6691 8.47754C11.5205 8.76866 11.2916 9.01108 11.0094 9.17608L9.67993 9.94367C10.3014 12.3256 11.5543 14.4956 13.3063 16.2248L14.6359 15.4572C14.9198 15.2954 15.2442 15.2183 15.5706 15.2352C15.897 15.2521 16.2117 15.3622 16.4775 15.5525C17.1517 16.0327 17.878 16.4351 18.6427 16.7521C19.0286 16.9161 19.3407 17.2163 19.5197 17.5954C19.6988 17.9746 19.7322 18.4064 19.6136 18.8086Z" stroke="white" stroke-width="2" stroke-linecap="round" stroke-linejoin="round"/>
</svg>
